<svg width="250" height="250" viewBox="0 0 250 250" fill="none" xmlns="http://www.w3.org/2000/svg">
<path d="M250 125C250 194.036 194.036 250 125 250C55.9644 250 0 194.036 0 125C0 55.9644 55.9644 0 125 0C194.036 0 250 55.9644 250 125ZM33.75 125C33.75 175.396 74.604 216.25 125 216.25C175.396 216.25 216.25 175.396 216.25 125C216.25 74.604 175.396 33.75 125 33.75C74.604 33.75 33.75 74.604 33.75 125Z" fill="#54698A"/>
<path d="M125 250C95.349 250 66.6636 239.46 44.0668 220.262C21.4699 201.064 6.43334 174.458 1.64246 145.197C-3.14841 115.936 2.61843 85.924 17.9131 60.5222C33.2077 35.1204 57.034 15.9825 85.1368 6.52669C113.24 -2.92917 143.789 -2.08724 171.328 8.90209C198.867 19.8914 221.603 40.3125 235.476 66.5182C249.348 92.7238 253.453 123.007 247.058 151.961C240.663 180.914 224.184 206.651 200.564 224.575L180.161 197.69C197.404 184.605 209.434 165.817 214.102 144.681C218.771 123.545 215.774 101.438 205.647 82.3083C195.52 63.1781 178.923 48.2707 158.819 40.2485C138.716 32.2263 116.415 31.6117 95.8999 38.5145C75.3848 45.4173 57.9916 59.3879 46.8265 77.9312C35.6615 96.4746 31.4517 118.383 34.949 139.744C38.4463 161.105 49.4231 180.527 65.9187 194.541C82.4144 208.556 103.355 216.25 125 216.25L125 250Z" fill="#00BFD9"/>
<path d="M125 250C100.277 250 76.1099 242.669 55.5537 228.934C34.9976 215.199 18.976 195.676 9.51505 172.835C0.0541021 149.995 -2.42131 124.861 2.40184 100.614C7.225 76.3661 19.1301 54.0932 36.6117 36.6116C54.0932 19.1301 76.3661 7.22499 100.614 2.40184C124.861 -2.42131 149.995 0.0541076 172.835 9.51507C195.676 18.976 215.199 34.9976 228.934 55.5537C242.669 76.1099 250 100.277 250 125L216.25 125C216.25 106.952 210.898 89.3102 200.872 74.3042C190.845 59.2982 176.594 47.6025 159.92 40.696C143.246 33.7895 124.899 31.9824 107.198 35.5033C89.4973 39.0242 73.2381 47.715 60.4765 60.4765C47.715 73.238 39.0242 89.4972 35.5033 107.198C31.9824 124.899 33.7895 143.246 40.696 159.92C47.6025 176.594 59.2982 190.845 74.3042 200.872C89.3102 210.898 106.952 216.25 125 216.25L125 250Z" fill="#0042AD"/>
<path d="M125 250C91.8479 250 60.0537 236.83 36.6116 213.388C13.1696 189.946 -9.22228e-07 158.152 0 125C9.22229e-07 91.8479 13.1696 60.0537 36.6117 36.6117C60.0537 13.1696 91.8479 -3.95334e-07 125 0L125 33.75C100.799 33.75 77.5892 43.3638 60.4765 60.4765C43.3638 77.5892 33.75 100.799 33.75 125C33.75 149.201 43.3638 172.411 60.4765 189.523C77.5892 206.636 100.799 216.25 125 216.25L125 250Z" fill="#4379E2"/>
<path d="M221.67 164.441C222.14 164.77 222.618 165.1 223.104 165.429C223.591 165.765 224.078 166.085 224.566 166.389C225.054 166.699 225.542 166.993 226.027 167.269C226.513 167.545 226.992 167.79 227.463 168.004C227.936 168.223 228.397 168.406 228.848 168.551C229.298 168.697 229.733 168.795 230.154 168.845L230.05 170.802C229.632 170.785 229.221 170.728 228.816 170.631C228.412 170.534 228.01 170.406 227.611 170.249C227.213 170.097 226.815 169.923 226.418 169.724C226.022 169.532 225.621 169.331 225.216 169.121C224.906 168.957 224.578 168.77 224.232 168.56C223.886 168.349 223.538 168.129 223.189 167.901C222.837 167.675 222.492 167.447 222.155 167.217C221.818 166.986 221.503 166.768 221.211 166.564L220.522 166.081L221.67 164.441ZM228.081 173.091C227.952 173.17 227.809 173.275 227.654 173.405C227.5 173.541 227.349 173.685 227.201 173.836C227.051 173.991 226.909 174.144 226.776 174.295C226.647 174.449 226.539 174.588 226.452 174.713C226.31 174.916 226.173 175.13 226.041 175.356C225.907 175.586 225.787 175.799 225.681 175.996C225.573 176.196 225.484 176.368 225.416 176.511C225.345 176.658 225.302 176.753 225.288 176.796L223.771 176.984C223.716 176.934 223.542 176.783 223.251 176.532C222.962 176.287 222.555 175.981 222.031 175.614C221.796 175.449 221.543 175.277 221.271 175.097C220.996 174.921 220.699 174.739 220.378 174.552C219.899 174.275 219.433 174.044 218.983 173.862C218.532 173.679 218.132 173.534 217.782 173.427C217.43 173.324 217.147 173.25 216.933 173.207C216.72 173.163 216.61 173.142 216.604 173.143L216.928 171.077C216.94 171.075 217.009 171.086 217.135 171.111C217.259 171.139 217.427 171.18 217.639 171.233C217.852 171.292 218.099 171.364 218.379 171.449C218.661 171.54 218.965 171.647 219.293 171.77C219.624 171.896 219.97 172.039 220.329 172.201C220.689 172.368 221.054 172.557 221.422 172.767C221.773 172.97 222.1 173.17 222.403 173.366C222.71 173.565 222.991 173.754 223.248 173.934C223.429 174.061 223.586 174.174 223.719 174.272C223.856 174.373 223.989 174.474 224.119 174.576L224.265 174.312C224.34 174.173 224.419 174.038 224.502 173.905C224.588 173.774 224.674 173.648 224.759 173.527C225.33 172.711 225.989 172.077 226.736 171.623L228.081 173.091ZM214.559 177.633L214.944 179.845L212.719 180.237L212.334 178.025L214.559 177.633ZM223.247 177.96L223.632 180.172L221.407 180.565L221.022 178.352L223.247 177.96ZM220.757 184.926L214.127 175.18L215.428 173.321L222.074 183.046L220.757 184.926Z" fill="white"/>
<path d="M164.599 220.84C164.795 221.379 164.998 221.923 165.207 222.472C165.413 223.026 165.629 223.567 165.854 224.096C166.076 224.631 166.307 225.15 166.546 225.656C166.786 226.161 167.037 226.636 167.301 227.081C167.562 227.532 167.836 227.946 168.121 228.323C168.406 228.701 168.707 229.031 169.023 229.314L167.815 230.857C167.482 230.603 167.178 230.321 166.902 230.009C166.627 229.698 166.371 229.363 166.134 229.005C165.895 228.652 165.67 228.281 165.458 227.891C165.244 227.506 165.031 227.112 164.819 226.707C164.659 226.396 164.498 226.054 164.335 225.683C164.172 225.312 164.014 224.933 163.859 224.545C163.699 224.158 163.548 223.774 163.404 223.392C163.26 223.009 163.127 222.65 163.005 222.315L162.718 221.525L164.599 220.84ZM161.26 226.226C161.214 226.1 161.148 225.989 161.063 225.895C160.974 225.803 160.873 225.729 160.76 225.673C160.644 225.622 160.523 225.592 160.394 225.583C160.268 225.579 160.141 225.599 160.014 225.645C159.888 225.692 159.778 225.757 159.684 225.842C159.587 225.933 159.513 226.034 159.461 226.145C159.406 226.262 159.374 226.385 159.366 226.513C159.357 226.641 159.375 226.769 159.421 226.895C159.468 227.022 159.535 227.132 159.624 227.224C159.715 227.321 159.818 227.394 159.934 227.445C160.047 227.501 160.169 227.532 160.301 227.54C160.43 227.549 160.557 227.53 160.684 227.484C160.81 227.438 160.92 227.37 161.012 227.281C161.105 227.192 161.178 227.089 161.233 226.972C161.285 226.86 161.315 226.738 161.322 226.606C161.327 226.48 161.306 226.353 161.26 226.226ZM162.639 225.724C162.753 226.039 162.802 226.357 162.785 226.678C162.765 227.004 162.69 227.309 162.562 227.592C162.429 227.876 162.247 228.13 162.013 228.353C161.78 228.577 161.504 228.747 161.186 228.863C160.871 228.977 160.552 229.024 160.23 229.002C159.903 228.982 159.598 228.906 159.314 228.774C159.03 228.641 158.775 228.456 158.55 228.219C158.326 227.986 158.157 227.712 158.043 227.397C157.927 227.079 157.879 226.758 157.901 226.436C157.922 226.113 157.999 225.81 158.132 225.526C158.266 225.246 158.451 224.993 158.689 224.768C158.923 224.548 159.198 224.381 159.513 224.267C159.831 224.151 160.151 224.101 160.472 224.119C160.794 224.14 161.097 224.215 161.38 224.343C161.66 224.477 161.912 224.661 162.135 224.894C162.355 225.129 162.523 225.406 162.639 225.724ZM152.281 227.176L151.328 229.21L149.28 228.255L150.233 226.221L152.281 227.176ZM159.21 232.427L158.257 234.461L156.209 233.506L157.162 231.472L159.21 232.427ZM153.175 236.706L153.334 224.919L155.466 224.143L155.332 235.921L153.175 236.706Z" fill="white"/>
<path d="M15.6255 116.7C16.7428 116 17.7689 115.65 18.7037 115.65C19.2124 115.65 19.6885 115.735 20.132 115.904C20.5711 116.069 20.9559 116.309 21.2863 116.622C21.6124 116.935 21.8689 117.315 22.0559 117.763C22.2428 118.206 22.3363 118.706 22.3363 119.263C22.3363 119.815 22.2363 120.315 22.0363 120.763C21.8363 121.211 21.5646 121.593 21.2211 121.911C20.8776 122.224 20.4798 122.467 20.0276 122.641C19.5711 122.811 19.0907 122.896 18.5863 122.896C18.1863 122.896 17.7776 122.837 17.3602 122.719C16.9428 122.602 16.532 122.446 16.1276 122.25C15.7233 122.054 15.3341 121.833 14.9602 121.585C14.582 121.333 14.232 121.072 13.9102 120.802L13.5581 121.141L12.1102 119.68C12.2276 119.546 12.3755 119.391 12.5537 119.217C12.732 119.039 12.9276 118.854 13.1407 118.663C13.3494 118.472 13.5689 118.28 13.7994 118.089C14.0298 117.893 14.2559 117.709 14.4776 117.535C14.6994 117.361 14.9102 117.202 15.1102 117.059C15.3059 116.911 15.4776 116.791 15.6255 116.7ZM20.2755 119.256C20.2755 119.017 20.2407 118.8 20.1711 118.604C20.0972 118.409 19.9928 118.241 19.8581 118.102C19.7233 117.959 19.5602 117.848 19.3689 117.769C19.1733 117.691 18.9515 117.648 18.7037 117.639C18.495 117.639 18.2646 117.685 18.0124 117.776C17.7559 117.867 17.4841 117.996 17.1972 118.161C16.9059 118.322 16.6037 118.517 16.2907 118.748C15.9733 118.974 15.6515 119.226 15.3255 119.504C15.5168 119.661 15.745 119.828 16.0102 120.006C16.2755 120.18 16.5559 120.343 16.8515 120.496C17.1428 120.643 17.4385 120.767 17.7385 120.867C18.0341 120.963 18.3124 121.011 18.5733 121.011C19.7081 121.011 20.2755 120.426 20.2755 119.256ZM18.4102 112.99C18.545 112.99 18.6711 112.966 18.7885 112.918C18.9059 112.866 19.0102 112.797 19.1015 112.71C19.1885 112.618 19.2581 112.514 19.3102 112.397C19.3581 112.279 19.382 112.153 19.382 112.018C19.382 111.884 19.3581 111.757 19.3102 111.64C19.2581 111.518 19.1885 111.414 19.1015 111.327C19.0102 111.236 18.9059 111.164 18.7885 111.112C18.6711 111.06 18.545 111.034 18.4102 111.034C18.2755 111.034 18.1494 111.06 18.032 111.112C17.9102 111.164 17.8059 111.236 17.7189 111.327C17.6276 111.414 17.5559 111.518 17.5037 111.64C17.4515 111.757 17.4255 111.884 17.4255 112.018C17.4255 112.153 17.4515 112.279 17.5037 112.397C17.5559 112.514 17.6276 112.618 17.7189 112.71C17.8059 112.797 17.9102 112.866 18.032 112.918C18.1494 112.966 18.2755 112.99 18.4102 112.99ZM18.4102 114.457C18.0755 114.457 17.7602 114.394 17.4646 114.268C17.1646 114.138 16.9037 113.964 16.682 113.747C16.4602 113.525 16.2841 113.266 16.1537 112.971C16.0233 112.675 15.9581 112.357 15.9581 112.018C15.9581 111.684 16.0233 111.368 16.1537 111.073C16.2841 110.773 16.4602 110.512 16.682 110.29C16.9037 110.068 17.1646 109.892 17.4646 109.762C17.7602 109.631 18.0755 109.566 18.4102 109.566C18.7494 109.566 19.0668 109.631 19.3624 109.762C19.6581 109.892 19.9168 110.068 20.1385 110.29C20.3559 110.512 20.5298 110.773 20.6602 111.073C20.7863 111.368 20.8494 111.684 20.8494 112.018C20.8494 112.357 20.7863 112.675 20.6602 112.971C20.5298 113.266 20.3559 113.525 20.1385 113.747C19.9168 113.964 19.6581 114.138 19.3624 114.268C19.0668 114.394 18.7494 114.457 18.4102 114.457ZM20.5885 104.228L19.0037 102.637L20.6015 101.039L22.1863 102.63L20.5885 104.228ZM13.2841 108.943L11.6994 107.352L13.2972 105.754L14.882 107.345L13.2841 108.943ZM11.3276 101.808L22.3494 105.989V108.258L11.3276 104.104V101.808Z" fill="white"/>
<path d="M207.431 46.7686C207.222 47.0065 207.026 47.2193 206.843 47.4069C206.66 47.5946 206.484 47.7597 206.314 47.9022C205.997 48.1677 205.645 48.3838 205.257 48.5505C204.873 48.7143 204.479 48.8064 204.076 48.8267C203.679 48.8475 203.288 48.784 202.903 48.6361C202.521 48.4854 202.176 48.2269 201.869 47.8605C201.796 47.7739 201.727 47.6876 201.66 47.6015C201.6 47.516 201.544 47.4294 201.493 47.3416C201.183 47.6694 200.852 47.9984 200.499 48.3286C200.149 48.6621 199.792 48.9904 199.427 49.3134C199.066 49.6336 198.707 49.9432 198.351 50.2423C197.997 50.5446 197.664 50.8272 197.351 51.0899L196.064 49.5561C196.623 49.0866 197.18 48.6076 197.735 48.1192C198.293 47.6341 198.819 47.1477 199.312 46.6601C199.808 46.1758 200.257 45.6966 200.66 45.2226C201.066 44.7458 201.399 44.2843 201.661 43.8381C201.75 43.6669 201.826 43.5208 201.889 43.3997C201.955 43.2821 202.012 43.1714 202.061 43.0676C202.111 42.9639 202.155 42.8614 202.195 42.7599C202.237 42.6618 202.283 42.55 202.331 42.4246L204.231 43.026C204.18 43.1882 204.129 43.3334 204.078 43.4616C204.03 43.587 203.975 43.7119 203.915 43.8363C203.861 43.9611 203.797 44.0944 203.723 44.2361C203.652 44.3749 203.57 44.5344 203.477 44.7145C203.388 44.8919 203.31 45.0625 203.243 45.2264C203.179 45.3936 203.138 45.5552 203.122 45.7111C203.105 45.867 203.115 46.0176 203.152 46.1627C203.194 46.3084 203.275 46.4482 203.393 46.5819C203.541 46.7523 203.692 46.8504 203.844 46.876C203.999 46.905 204.149 46.892 204.296 46.8369C204.449 46.7824 204.597 46.6981 204.74 46.584C204.888 46.4705 205.029 46.3579 205.163 46.2461C205.289 46.1399 205.405 46.0282 205.511 45.9109C205.623 45.7942 205.751 45.6526 205.896 45.4862L207.431 46.7686ZM209.554 52.2711C209.518 52.2278 209.432 52.1693 209.296 52.0958C209.164 52.0255 209.002 51.9481 208.812 51.8636C208.625 51.7824 208.422 51.7029 208.203 51.6252C207.988 51.5446 207.782 51.4788 207.586 51.4277C207.39 51.3766 207.214 51.3427 207.058 51.3259C206.905 51.3125 206.797 51.3293 206.734 51.3763C206.684 51.4644 206.67 51.5666 206.694 51.6829C206.72 51.8025 206.769 51.9318 206.84 52.0707C206.915 52.2068 207.006 52.349 207.113 52.4973C207.221 52.6456 207.336 52.793 207.459 52.9395C207.582 53.0861 207.702 53.2262 207.82 53.36C207.941 53.4971 208.05 53.6208 208.149 53.7313L206.836 55.2413C206.669 55.1433 206.486 55.0471 206.287 54.9526C206.089 54.8581 205.888 54.7741 205.684 54.7008C205.481 54.6274 205.279 54.5697 205.079 54.5275C204.883 54.4825 204.7 54.4572 204.53 54.4517C204.364 54.4495 204.218 54.4722 204.094 54.52C203.969 54.5677 203.881 54.6479 203.828 54.7605C203.778 54.8704 203.77 54.9962 203.804 55.138C203.841 55.2771 203.905 55.4216 203.997 55.5716C204.089 55.7216 204.201 55.8718 204.333 56.0222C204.471 56.1731 204.614 56.3138 204.763 56.4441C204.919 56.5749 205.074 56.6919 205.228 56.7949C205.383 56.8979 205.527 56.9784 205.661 57.0364L204.699 58.8225C204.413 58.6987 204.129 58.5319 203.845 58.3219C203.56 58.118 203.293 57.8848 203.045 57.6223C202.793 57.3626 202.569 57.0792 202.374 56.772C202.179 56.4648 202.029 56.1478 201.925 55.8208C201.821 55.4938 201.769 55.1653 201.77 54.8351C201.775 54.5022 201.854 54.1805 202.007 53.8699C202.135 53.6095 202.303 53.3896 202.51 53.2102C202.72 53.028 202.952 52.8816 203.205 52.7711C203.465 52.6611 203.739 52.5847 204.026 52.542C204.317 52.4965 204.606 52.4785 204.892 52.4881C204.809 52.2401 204.752 51.9929 204.721 51.7464C204.696 51.5004 204.703 51.2618 204.742 51.0307C204.78 50.7995 204.854 50.5822 204.961 50.3786C205.071 50.1723 205.225 49.9866 205.422 49.8218C205.651 49.6289 205.909 49.4925 206.193 49.4125C206.478 49.3325 206.776 49.2953 207.087 49.3009C207.401 49.3098 207.718 49.353 208.039 49.4304C208.359 49.5078 208.673 49.6048 208.981 49.7212C209.291 49.8409 209.585 49.9746 209.862 50.1223C210.143 50.2672 210.396 50.4097 210.621 50.5498L209.554 52.2711ZM208.912 61.9366L211.149 62.1369L210.952 64.388L208.716 64.1876L208.912 61.9366ZM211.477 53.6294L213.714 53.8297L213.517 56.0808L211.28 55.8804L211.477 53.6294ZM217.562 57.8373L206.432 61.7195L204.973 59.981L216.086 56.0787L217.562 57.8373Z" fill="white"/>
<circle cx="124.75" cy="124.75" r="91.75" fill="#CBD1EC"/>
<path d="M48.7687 127.188C48.6794 127.354 48.5965 127.526 48.52 127.704C48.4435 127.883 48.3701 128.065 48.3 128.25C48.1852 128.575 48.08 128.938 47.9843 129.34C47.8951 129.742 47.8632 130.153 47.8887 130.574C47.9078 130.937 47.9812 131.269 48.1087 131.569C48.2362 131.868 48.3988 132.139 48.5965 132.382C48.8006 132.624 49.027 132.834 49.2757 133.013C49.5307 133.192 49.789 133.341 50.0504 133.463C50.3183 133.584 50.5829 133.673 50.8443 133.73C51.1058 133.794 51.3449 133.826 51.5617 133.826C51.8359 133.826 52.1293 133.794 52.4417 133.73C52.7542 133.673 53.0667 133.581 53.3791 133.453C53.6916 133.326 53.9913 133.163 54.2783 132.965C54.5652 132.774 54.8203 132.538 55.0435 132.257C55.2667 131.983 55.442 131.668 55.5696 131.31C55.7035 130.953 55.7704 130.552 55.7704 130.105C55.7704 129.601 55.7545 129.008 55.7226 128.326C55.6971 127.637 55.662 126.907 55.6174 126.136C55.5791 125.358 55.5313 124.557 55.4739 123.735C55.4165 122.912 55.3591 122.109 55.3017 121.324C55.2316 120.381 55.1583 119.443 55.0817 118.512C55.0116 117.575 54.9319 116.593 54.8426 115.566L57.8939 114.858C57.9386 115.955 57.98 117.001 58.0183 117.996C58.0629 118.99 58.1012 119.985 58.133 120.98C58.1649 121.809 58.1936 122.657 58.2191 123.524C58.251 124.392 58.2797 125.233 58.3052 126.05C58.3307 126.859 58.3499 127.618 58.3626 128.326C58.3754 129.028 58.3817 129.63 58.3817 130.134C58.3817 130.976 58.2797 131.725 58.0757 132.382C57.8716 133.045 57.5974 133.625 57.253 134.123C56.9087 134.62 56.507 135.041 56.0478 135.385C55.5951 135.73 55.1168 136.01 54.613 136.227C54.1157 136.444 53.6087 136.6 53.0922 136.696C52.5757 136.798 52.0846 136.849 51.6191 136.849C51.1536 136.849 50.6722 136.794 50.1748 136.686C49.6774 136.584 49.1928 136.425 48.7209 136.208C48.249 135.991 47.8026 135.717 47.3817 135.385C46.9609 135.054 46.5942 134.661 46.2817 134.209C45.9693 133.762 45.7238 133.252 45.5452 132.678C45.3667 132.111 45.2838 131.479 45.2965 130.784C45.3093 130.013 45.3699 129.337 45.4783 128.757C45.593 128.17 45.7174 127.676 45.8513 127.274C45.9342 127.032 46.0203 126.808 46.1096 126.604C46.1988 126.394 46.2881 126.206 46.3774 126.04L48.7687 127.188ZM64.0922 127.551H65.3835C65.6513 127.551 65.9446 127.529 66.2635 127.484C66.5887 127.44 66.8884 127.37 67.1626 127.274C67.4432 127.172 67.6759 127.038 67.8609 126.872C68.0522 126.7 68.1478 126.49 68.1478 126.241C68.1478 126.088 68.1032 125.861 68.0139 125.562C67.9246 125.256 67.8067 124.918 67.66 124.548C67.5133 124.172 67.3475 123.779 67.1626 123.371C66.9777 122.963 66.7928 122.574 66.6078 122.204L69.3435 120.846C69.522 121.248 69.6974 121.675 69.8696 122.128C70.0481 122.581 70.2075 123.04 70.3478 123.505C70.4881 123.971 70.5997 124.436 70.6826 124.902C70.7719 125.361 70.8165 125.801 70.8165 126.222C70.8165 126.987 70.689 127.644 70.4339 128.192C70.1788 128.741 69.8217 129.193 69.3626 129.55C68.9035 129.901 68.3551 130.159 67.7174 130.325C67.0797 130.491 66.3783 130.574 65.613 130.574H64.0922V127.551ZM75.6661 123.563C75.8 123.958 75.9403 124.392 76.087 124.863C76.24 125.329 76.3771 125.807 76.4983 126.298C76.6258 126.789 76.731 127.28 76.8139 127.771C76.8968 128.256 76.9383 128.712 76.9383 129.139C76.9383 129.739 76.8554 130.322 76.6896 130.89C76.5301 131.463 76.3006 132.018 76.0009 132.554C75.7075 133.09 75.3568 133.603 74.9487 134.094C74.5406 134.585 74.0878 135.047 73.5904 135.481C73.093 135.921 72.5606 136.326 71.993 136.696C71.4255 137.072 70.8388 137.41 70.233 137.71L68.4922 135.29C68.9513 135.06 69.4136 134.799 69.8791 134.505C70.351 134.218 70.8006 133.909 71.2278 133.577C71.6615 133.246 72.0632 132.898 72.433 132.535C72.8093 132.171 73.1345 131.801 73.4087 131.425C73.6893 131.049 73.9093 130.666 74.0687 130.277C74.2281 129.895 74.3078 129.519 74.3078 129.149C74.3078 128.881 74.2696 128.591 74.193 128.278C74.1229 127.966 74.0241 127.631 73.8965 127.274C73.769 126.91 73.6191 126.528 73.447 126.126C73.2812 125.718 73.0994 125.284 72.9017 124.825L75.6661 123.563ZM64.0061 130.574C63.209 130.574 62.533 130.466 61.9783 130.249C61.4235 130.038 60.9707 129.745 60.62 129.369C60.2693 128.992 60.0142 128.549 59.8548 128.039C59.7017 127.523 59.6252 126.965 59.6252 126.365C59.6252 126.059 59.6316 125.68 59.6443 125.227C59.6571 124.768 59.6635 124.239 59.6635 123.639C59.6635 123.04 59.6603 122.383 59.6539 121.669C59.6475 120.948 59.6284 120.228 59.5965 119.507C59.571 118.786 59.5296 118.094 59.4722 117.431C59.4212 116.768 59.3478 116.191 59.2522 115.7L62.1122 114.83C62.1951 115.25 62.262 115.748 62.313 116.322C62.3704 116.889 62.4151 117.486 62.447 118.11C62.4788 118.735 62.5012 119.363 62.5139 119.995C62.533 120.626 62.5458 121.213 62.5522 121.755C62.5586 122.233 62.549 122.737 62.5235 123.266C62.5043 123.789 62.4884 124.293 62.4757 124.777C62.4629 125.256 62.4661 125.689 62.4852 126.078C62.5107 126.467 62.5713 126.764 62.667 126.968C62.7243 127.114 62.7945 127.226 62.8774 127.303C62.9667 127.379 63.0687 127.437 63.1835 127.475C63.2983 127.513 63.4226 127.535 63.5565 127.542C63.6968 127.548 63.8499 127.551 64.0157 127.551H64.2739V130.574H64.0061ZM64.9243 133.377L63.1261 135.175L61.2704 133.329L63.107 131.483L64.9243 133.3L66.7226 131.502L68.5783 133.348L66.7417 135.194L64.9243 133.377ZM86.1039 130.555C86.1039 129.713 86.0976 128.862 86.0848 128.001C86.0784 127.134 86.0529 126.279 86.0083 125.437C85.97 124.589 85.9126 123.757 85.8361 122.941C85.7596 122.125 85.6512 121.343 85.5109 120.597C85.377 119.845 85.208 119.137 85.0039 118.474C84.7999 117.811 84.5512 117.205 84.2579 116.657L86.697 115.136C87.0286 115.652 87.306 116.194 87.5292 116.762C87.7523 117.329 87.9373 117.919 88.0839 118.531C88.237 119.137 88.3613 119.762 88.457 120.406C88.559 121.044 88.6547 121.694 88.7439 122.357C88.8077 122.868 88.8587 123.419 88.897 124.012C88.9352 124.605 88.9639 125.208 88.9831 125.82C89.0086 126.432 89.0245 127.038 89.0309 127.637C89.0373 128.237 89.0405 128.798 89.0405 129.321V130.555H86.1039ZM91.9444 133.922L90.3184 133.07L90.7105 132.372C91.1888 131.499 91.4343 130.628 91.4471 129.761V127.36H94.0679L94.0584 129.503C94.052 130.3 93.8511 131.103 93.4557 131.913C93.0604 132.723 92.5566 133.392 91.9444 133.922ZM97.8129 130.555C97.8129 129.713 97.8066 128.862 97.7938 128.001C97.7874 127.134 97.7619 126.279 97.7173 125.437C97.679 124.589 97.6216 123.757 97.5451 122.941C97.4686 122.125 97.3602 121.343 97.2199 120.597C97.086 119.845 96.917 119.137 96.7129 118.474C96.5089 117.811 96.2602 117.205 95.9668 116.657L98.406 115.136C98.7376 115.652 99.015 116.194 99.2381 116.762C99.4613 117.329 99.6463 117.919 99.7929 118.531C99.946 119.137 100.07 119.762 100.166 120.406C100.268 121.044 100.364 121.694 100.453 122.357C100.517 122.868 100.568 123.419 100.606 124.012C100.644 124.605 100.673 125.208 100.692 125.82C100.718 126.432 100.734 127.038 100.74 127.637C100.746 128.237 100.749 128.798 100.749 129.321V130.555H97.8129ZM111.497 115.365C111.567 115.824 111.621 116.245 111.66 116.628C111.698 117.01 111.717 117.364 111.717 117.69C111.717 118.295 111.628 118.895 111.449 119.488C111.271 120.074 111.003 120.604 110.646 121.076C110.295 121.541 109.855 121.921 109.326 122.214C108.796 122.501 108.181 122.644 107.48 122.644C107.314 122.644 107.151 122.641 106.992 122.635C106.839 122.622 106.689 122.603 106.542 122.577C106.619 123.234 106.676 123.917 106.714 124.624C106.759 125.332 106.791 126.043 106.81 126.757C106.829 127.465 106.839 128.16 106.839 128.843C106.845 129.525 106.848 130.166 106.848 130.765H103.912C103.912 129.694 103.899 128.616 103.873 127.532C103.854 126.448 103.803 125.399 103.72 124.385C103.644 123.371 103.529 122.415 103.376 121.516C103.223 120.61 103.019 119.8 102.764 119.086C102.655 118.825 102.563 118.601 102.486 118.417C102.416 118.232 102.346 118.063 102.276 117.91C102.206 117.757 102.133 117.61 102.056 117.47C101.986 117.329 101.903 117.173 101.807 117.001L104.275 115.432C104.409 115.643 104.524 115.837 104.62 116.016C104.715 116.188 104.804 116.366 104.887 116.551C104.977 116.73 105.066 116.928 105.155 117.144C105.244 117.355 105.346 117.597 105.461 117.871C105.576 118.139 105.694 118.388 105.815 118.617C105.943 118.847 106.086 119.045 106.246 119.21C106.405 119.376 106.584 119.507 106.781 119.603C106.985 119.692 107.218 119.733 107.48 119.727C107.811 119.721 108.063 119.644 108.235 119.497C108.414 119.351 108.541 119.169 108.618 118.952C108.701 118.729 108.745 118.483 108.752 118.216C108.764 117.941 108.771 117.677 108.771 117.422C108.771 117.179 108.755 116.943 108.723 116.714C108.697 116.478 108.659 116.201 108.608 115.882L111.497 115.365ZM122.406 120.722C123.433 122.361 123.946 123.866 123.946 125.237C123.946 125.983 123.822 126.681 123.573 127.331C123.331 127.975 122.98 128.54 122.521 129.024C122.062 129.503 121.504 129.879 120.847 130.153C120.197 130.427 119.463 130.564 118.647 130.564C117.837 130.564 117.104 130.418 116.447 130.124C115.79 129.831 115.229 129.432 114.764 128.929C114.305 128.425 113.947 127.841 113.692 127.178C113.444 126.509 113.319 125.804 113.319 125.064C113.319 124.478 113.405 123.878 113.578 123.266C113.75 122.654 113.979 122.051 114.266 121.458C114.553 120.865 114.878 120.294 115.242 119.746C115.612 119.191 115.994 118.678 116.39 118.206L115.892 117.69L118.035 115.566C118.233 115.738 118.459 115.955 118.714 116.217C118.976 116.478 119.247 116.765 119.527 117.077C119.808 117.383 120.088 117.706 120.369 118.043C120.656 118.381 120.927 118.713 121.182 119.038C121.437 119.363 121.67 119.673 121.88 119.966C122.097 120.253 122.272 120.505 122.406 120.722ZM118.657 127.542C119.007 127.542 119.326 127.491 119.613 127.389C119.9 127.28 120.146 127.127 120.35 126.93C120.56 126.732 120.723 126.493 120.838 126.212C120.952 125.925 121.016 125.6 121.029 125.237C121.029 124.93 120.962 124.592 120.828 124.223C120.694 123.846 120.506 123.448 120.264 123.027C120.028 122.6 119.741 122.157 119.403 121.697C119.071 121.232 118.701 120.76 118.293 120.282C118.064 120.562 117.818 120.897 117.557 121.286C117.302 121.675 117.062 122.086 116.839 122.52C116.622 122.947 116.441 123.381 116.294 123.821C116.154 124.254 116.084 124.663 116.084 125.045C116.084 126.71 116.941 127.542 118.657 127.542ZM126.384 133.922L124.758 133.07L125.15 132.372C125.628 131.499 125.874 130.628 125.887 129.761V127.36H128.507L128.498 129.503C128.491 130.3 128.291 131.103 127.895 131.913C127.5 132.723 126.996 133.392 126.384 133.922ZM139.637 120.722C140.663 122.361 141.177 123.866 141.177 125.237C141.177 125.983 141.052 126.681 140.804 127.331C140.561 127.975 140.211 128.54 139.752 129.024C139.292 129.503 138.734 129.879 138.078 130.153C137.427 130.427 136.694 130.564 135.878 130.564C135.068 130.564 134.334 130.418 133.678 130.124C133.021 129.831 132.46 129.432 131.994 128.929C131.535 128.425 131.178 127.841 130.923 127.178C130.674 126.509 130.55 125.804 130.55 125.064C130.55 124.478 130.636 123.878 130.808 123.266C130.98 122.654 131.21 122.051 131.497 121.458C131.784 120.865 132.109 120.294 132.472 119.746C132.842 119.191 133.225 118.678 133.62 118.206L133.123 117.69L135.265 115.566C135.463 115.738 135.689 115.955 135.945 116.217C136.206 116.478 136.477 116.765 136.758 117.077C137.038 117.383 137.319 117.706 137.599 118.043C137.886 118.381 138.157 118.713 138.412 119.038C138.667 119.363 138.9 119.673 139.111 119.966C139.327 120.253 139.503 120.505 139.637 120.722ZM135.887 127.542C136.238 127.542 136.557 127.491 136.844 127.389C137.131 127.28 137.376 127.127 137.58 126.93C137.791 126.732 137.953 126.493 138.068 126.212C138.183 125.925 138.247 125.6 138.259 125.237C138.259 124.93 138.192 124.592 138.058 124.223C137.925 123.846 137.736 123.448 137.494 123.027C137.258 122.6 136.971 122.157 136.633 121.697C136.302 121.232 135.932 120.76 135.524 120.282C135.294 120.562 135.049 120.897 134.787 121.286C134.532 121.675 134.293 122.086 134.07 122.52C133.853 122.947 133.671 123.381 133.525 123.821C133.384 124.254 133.314 124.663 133.314 125.045C133.314 126.71 134.172 127.542 135.887 127.542ZM151.458 115.365C151.528 115.824 151.582 116.245 151.62 116.628C151.659 117.01 151.678 117.364 151.678 117.69C151.678 118.295 151.589 118.895 151.41 119.488C151.231 120.074 150.964 120.604 150.607 121.076C150.256 121.541 149.816 121.921 149.287 122.214C148.757 122.501 148.142 122.644 147.44 122.644C147.275 122.644 147.112 122.641 146.953 122.635C146.8 122.622 146.65 122.603 146.503 122.577C146.58 123.234 146.637 123.917 146.675 124.624C146.72 125.332 146.752 126.043 146.771 126.757C146.79 127.465 146.8 128.16 146.8 128.843C146.806 129.525 146.809 130.166 146.809 130.765H143.873C143.873 129.694 143.86 128.616 143.834 127.532C143.815 126.448 143.764 125.399 143.681 124.385C143.605 123.371 143.49 122.415 143.337 121.516C143.184 120.61 142.98 119.8 142.725 119.086C142.616 118.825 142.524 118.601 142.447 118.417C142.377 118.232 142.307 118.063 142.237 117.91C142.167 117.757 142.093 117.61 142.017 117.47C141.947 117.329 141.864 117.173 141.768 117.001L144.236 115.432C144.37 115.643 144.485 115.837 144.58 116.016C144.676 116.188 144.765 116.366 144.848 116.551C144.938 116.73 145.027 116.928 145.116 117.144C145.205 117.355 145.307 117.597 145.422 117.871C145.537 118.139 145.655 118.388 145.776 118.617C145.904 118.847 146.047 119.045 146.207 119.21C146.366 119.376 146.545 119.507 146.742 119.603C146.946 119.692 147.179 119.733 147.44 119.727C147.772 119.721 148.024 119.644 148.196 119.497C148.375 119.351 148.502 119.169 148.579 118.952C148.662 118.729 148.706 118.483 148.713 118.216C148.725 117.941 148.732 117.677 148.732 117.422C148.732 117.179 148.716 116.943 148.684 116.714C148.658 116.478 148.62 116.201 148.569 115.882L151.458 115.365ZM162.367 120.722C163.394 122.361 163.907 123.866 163.907 125.237C163.907 125.983 163.783 126.681 163.534 127.331C163.292 127.975 162.941 128.54 162.482 129.024C162.023 129.503 161.465 129.879 160.808 130.153C160.158 130.427 159.424 130.564 158.608 130.564C157.798 130.564 157.065 130.418 156.408 130.124C155.751 129.831 155.19 129.432 154.725 128.929C154.265 128.425 153.908 127.841 153.653 127.178C153.405 126.509 153.28 125.804 153.28 125.064C153.28 124.478 153.366 123.878 153.539 123.266C153.711 122.654 153.94 122.051 154.227 121.458C154.514 120.865 154.839 120.294 155.203 119.746C155.573 119.191 155.955 118.678 156.351 118.206L155.853 117.69L157.996 115.566C158.194 115.738 158.42 115.955 158.675 116.217C158.936 116.478 159.207 116.765 159.488 117.077C159.769 117.383 160.049 117.706 160.33 118.043C160.617 118.381 160.888 118.713 161.143 119.038C161.398 119.363 161.631 119.673 161.841 119.966C162.058 120.253 162.233 120.505 162.367 120.722ZM158.618 127.542C158.968 127.542 159.287 127.491 159.574 127.389C159.861 127.28 160.107 127.127 160.311 126.93C160.521 126.732 160.684 126.493 160.799 126.212C160.913 125.925 160.977 125.6 160.99 125.237C160.99 124.93 160.923 124.592 160.789 124.223C160.655 123.846 160.467 123.448 160.225 123.027C159.989 122.6 159.702 122.157 159.364 121.697C159.032 121.232 158.662 120.76 158.254 120.282C158.025 120.562 157.779 120.897 157.518 121.286C157.263 121.675 157.023 122.086 156.8 122.52C156.583 122.947 156.402 123.381 156.255 123.821C156.115 124.254 156.045 124.663 156.045 125.045C156.045 126.71 156.902 127.542 158.618 127.542ZM166.345 133.922L164.719 133.07L165.111 132.372C165.589 131.499 165.835 130.628 165.847 129.761V127.36H168.468L168.459 129.503C168.452 130.3 168.252 131.103 167.856 131.913C167.461 132.723 166.957 133.392 166.345 133.922ZM176.872 118.168C176.789 118.168 176.642 118.209 176.432 118.292C176.228 118.375 175.988 118.483 175.714 118.617C175.446 118.751 175.166 118.904 174.872 119.077C174.579 119.242 174.311 119.411 174.069 119.583C173.827 119.756 173.623 119.921 173.457 120.081C173.297 120.24 173.214 120.377 173.208 120.492C173.259 120.632 173.361 120.744 173.514 120.827C173.674 120.91 173.865 120.977 174.088 121.028C174.311 121.072 174.557 121.104 174.825 121.123C175.092 121.143 175.367 121.152 175.647 121.152C175.928 121.152 176.199 121.149 176.46 121.143C176.728 121.136 176.97 121.13 177.187 121.123L177.646 124.022C177.379 124.117 177.098 124.232 176.805 124.366C176.511 124.5 176.228 124.647 175.953 124.806C175.679 124.966 175.424 125.138 175.188 125.323C174.952 125.501 174.751 125.683 174.585 125.868C174.426 126.053 174.314 126.238 174.251 126.423C174.187 126.608 174.193 126.783 174.27 126.949C174.346 127.108 174.48 127.236 174.672 127.331C174.863 127.421 175.086 127.484 175.341 127.523C175.596 127.561 175.87 127.577 176.164 127.57C176.463 127.558 176.757 127.529 177.044 127.484C177.337 127.433 177.614 127.37 177.876 127.293C178.137 127.217 178.364 127.13 178.555 127.035L179.655 129.799C179.247 130.003 178.791 130.166 178.287 130.287C177.79 130.414 177.277 130.494 176.747 130.526C176.218 130.564 175.689 130.548 175.159 130.478C174.63 130.408 174.133 130.277 173.667 130.086C173.202 129.895 172.784 129.643 172.414 129.33C172.044 129.012 171.757 128.619 171.553 128.154C171.381 127.765 171.292 127.37 171.285 126.968C171.279 126.56 171.333 126.161 171.448 125.772C171.569 125.377 171.741 124.997 171.965 124.634C172.188 124.264 172.44 123.923 172.72 123.61C172.363 123.47 172.032 123.301 171.725 123.103C171.426 122.899 171.164 122.667 170.941 122.405C170.718 122.144 170.543 121.857 170.415 121.544C170.288 121.226 170.224 120.878 170.224 120.502C170.224 120.062 170.313 119.644 170.492 119.249C170.67 118.853 170.909 118.483 171.209 118.139C171.515 117.795 171.863 117.479 172.252 117.192C172.641 116.905 173.045 116.644 173.466 116.408C173.894 116.172 174.321 115.968 174.748 115.796C175.175 115.617 175.574 115.467 175.944 115.346L176.872 118.168ZM190.168 120.722C191.195 122.361 191.708 123.866 191.708 125.237C191.708 125.983 191.584 126.681 191.335 127.331C191.093 127.975 190.742 128.54 190.283 129.024C189.824 129.503 189.266 129.879 188.609 130.153C187.958 130.427 187.225 130.564 186.409 130.564C185.599 130.564 184.866 130.418 184.209 130.124C183.552 129.831 182.991 129.432 182.525 128.929C182.066 128.425 181.709 127.841 181.454 127.178C181.205 126.509 181.081 125.804 181.081 125.064C181.081 124.478 181.167 123.878 181.339 123.266C181.511 122.654 181.741 122.051 182.028 121.458C182.315 120.865 182.64 120.294 183.004 119.746C183.373 119.191 183.756 118.678 184.151 118.206L183.654 117.69L185.797 115.566C185.994 115.738 186.221 115.955 186.476 116.217C186.737 116.478 187.008 116.765 187.289 117.077C187.569 117.383 187.85 117.706 188.131 118.043C188.418 118.381 188.689 118.713 188.944 119.038C189.199 119.363 189.431 119.673 189.642 119.966C189.859 120.253 190.034 120.505 190.168 120.722ZM186.418 127.542C186.769 127.542 187.088 127.491 187.375 127.389C187.662 127.28 187.907 127.127 188.111 126.93C188.322 126.732 188.485 126.493 188.599 126.212C188.714 125.925 188.778 125.6 188.791 125.237C188.791 124.93 188.724 124.592 188.59 124.223C188.456 123.846 188.268 123.448 188.025 123.027C187.789 122.6 187.502 122.157 187.165 121.697C186.833 121.232 186.463 120.76 186.055 120.282C185.825 120.562 185.58 120.897 185.318 121.286C185.063 121.675 184.824 122.086 184.601 122.52C184.384 122.947 184.202 123.381 184.056 123.821C183.916 124.254 183.845 124.663 183.845 125.045C183.845 126.71 184.703 127.542 186.418 127.542ZM195.609 124.806C195.609 125.004 195.644 125.189 195.714 125.361C195.791 125.533 195.893 125.686 196.02 125.82C196.154 125.948 196.307 126.05 196.48 126.126C196.652 126.196 196.837 126.231 197.034 126.231C197.232 126.231 197.417 126.196 197.589 126.126C197.768 126.05 197.921 125.948 198.048 125.82C198.182 125.686 198.287 125.533 198.364 125.361C198.44 125.189 198.479 125.004 198.479 124.806C198.479 124.608 198.44 124.423 198.364 124.251C198.287 124.073 198.182 123.92 198.048 123.792C197.921 123.658 197.768 123.553 197.589 123.477C197.417 123.4 197.232 123.362 197.034 123.362C196.837 123.362 196.652 123.4 196.48 123.477C196.307 123.553 196.154 123.658 196.02 123.792C195.893 123.92 195.791 124.073 195.714 124.251C195.644 124.423 195.609 124.608 195.609 124.806ZM193.457 124.806C193.457 124.315 193.549 123.853 193.734 123.419C193.926 122.979 194.181 122.597 194.5 122.271C194.825 121.946 195.204 121.688 195.638 121.497C196.071 121.305 196.537 121.21 197.034 121.21C197.525 121.21 197.988 121.305 198.421 121.497C198.861 121.688 199.244 121.946 199.569 122.271C199.894 122.597 200.153 122.979 200.344 123.419C200.535 123.853 200.631 124.315 200.631 124.806C200.631 125.303 200.535 125.769 200.344 126.203C200.153 126.636 199.894 127.016 199.569 127.341C199.244 127.66 198.861 127.915 198.421 128.106C197.988 128.291 197.525 128.383 197.034 128.383C196.537 128.383 196.071 128.291 195.638 128.106C195.204 127.915 194.825 127.66 194.5 127.341C194.181 127.016 193.926 126.636 193.734 126.203C193.549 125.769 193.457 125.303 193.457 124.806Z" fill="black" fill-opacity="0.75"/>
</svg>
