<svg width="52" height="52" viewBox="0 0 52 52" fill="none" xmlns="http://www.w3.org/2000/svg">
<circle cx="26" cy="26" r="26" fill="#EAF5DC"/>
<path d="M37.3333 15H15.5556C15.143 15 14.7473 15.1639 14.4556 15.4556C14.1639 15.7473 14 16.143 14 16.5556V32.1111C14 32.5237 14.1639 32.9193 14.4556 33.2111C14.7473 33.5028 15.143 33.6667 15.5556 33.6667H37.3333C37.7459 33.6667 38.1416 33.5028 38.4333 33.2111C38.725 32.9193 38.8889 32.5237 38.8889 32.1111V16.5556C38.8889 16.143 38.725 15.7473 38.4333 15.4556C38.1416 15.1639 37.7459 15 37.3333 15ZM37.3333 16.5556V25.8889H15.5556V16.5556H37.3333ZM15.5556 32.1111V29H37.3333V32.1111H15.5556Z" fill="#45661B"/>
</svg>
