<svg width="38" height="35" viewBox="0 0 38 35" fill="none" xmlns="http://www.w3.org/2000/svg">
<rect x="6.6499" y="3.80005" width="24.7" height="22.8" fill="#CBD1EC"/>
<path d="M35.5317 13.9203C36.3772 13.5444 37.3715 14.1257 37.4902 15.0237L37.5 15.2129V30.4V30.4002C37.5003 31.2327 37.1858 32.0346 36.6197 32.6451C36.0559 33.2531 35.2839 33.6265 34.4575 33.6911L34.1917 33.7H3.8H3.79984C2.96729 33.7003 2.16541 33.3858 1.55494 32.8197C0.946931 32.2559 0.573554 31.484 0.508863 30.6575L0.5 30.3917V15.2C0.5 14.2736 1.43855 13.6015 2.30418 13.8594L2.48412 13.9265L3.59664 14.4218L4.3 14.7349V13.965V5.7L4.3 5.69997C4.29993 4.37361 4.8067 3.09735 5.71662 2.13232C6.62486 1.16909 7.86622 0.588615 9.18754 0.509079L9.5071 0.5H28.5C29.8264 0.499926 31.1027 1.0067 32.0677 1.91663C33.0309 2.82489 33.6114 4.06629 33.6909 5.38765L33.7 5.70708V13.965V14.7344L34.4031 14.4219L35.5317 13.9203L35.5317 13.9203ZM7.1 15.6541V15.979L7.39691 16.111L18.7969 21.1783L19 21.2686L19.2031 21.1783L30.6031 16.111L30.9 15.979V15.6541V5.7C30.9 5.06348 30.6471 4.45303 30.1971 4.00294C29.747 3.55286 29.1365 3.3 28.5 3.3H9.5C8.86348 3.3 8.25303 3.55286 7.80294 4.00294C7.35286 4.45303 7.1 5.06348 7.1 5.7V15.6541ZM18.9994 10C19.3563 10.0004 19.6995 10.137 19.959 10.382C20.2184 10.6269 20.3746 10.9617 20.3955 11.318C20.4164 11.6742 20.3005 12.0249 20.0715 12.2986C19.8453 12.5687 19.5258 12.7436 19.1767 12.7885L18.985 12.8H15.2006C14.8437 12.7996 14.5005 12.663 14.241 12.418C13.9816 12.1731 13.8254 11.8383 13.8045 11.482C13.7836 11.1258 13.8995 10.7751 14.1285 10.5014C14.3547 10.2313 14.6742 10.0564 15.0233 10.0115L15.215 10H18.9994Z" fill="#5164BF" stroke="#5164BF"/>
</svg>
