<svg width="30" height="38" viewBox="0 0 30 38" fill="none" xmlns="http://www.w3.org/2000/svg">
<path d="M1.875 37.5C1.37772 37.5 0.900806 37.3025 0.549175 36.9508C0.197544 36.5992 0 36.1223 0 35.625V1.875C0 1.37772 0.197544 0.900805 0.549175 0.549175C0.900806 0.197544 1.37772 0 1.875 0H28.125C28.6223 0 29.0992 0.197544 29.4508 0.549175C29.8025 0.900805 30 1.37772 30 1.875V35.625C30 36.1223 29.8025 36.5992 29.4508 36.9508C29.0992 37.3025 28.6223 37.5 28.125 37.5H1.875ZM20.625 26.25L30 18.75L20.625 11.25V16.875H9.375V20.625H20.625V26.25Z" fill="#5164BF"/>
</svg>
