<svg width="41" height="41" viewBox="0 0 41 41" fill="none" xmlns="http://www.w3.org/2000/svg">
<path fill-rule="evenodd" clip-rule="evenodd" d="M20.5005 37.0839C29.6594 37.0839 37.0842 29.6591 37.0842 20.5002C37.0842 11.3412 29.6594 3.91646 20.5005 3.91646C11.3415 3.91646 3.91676 11.3412 3.91676 20.5002C3.91676 29.6591 11.3415 37.0839 20.5005 37.0839ZM20.5005 38.4377C30.4071 38.4377 38.438 30.4068 38.438 20.5002C38.438 10.5936 30.4071 2.56268 20.5005 2.56268C10.5939 2.56268 2.56299 10.5936 2.56299 20.5002C2.56299 30.4068 10.5939 38.4377 20.5005 38.4377Z" fill="white"/>
<path fill-rule="evenodd" clip-rule="evenodd" d="M23.5449 30.0014C23.7181 30.3744 23.5561 30.8171 23.1831 30.9903C21.4595 31.7907 19.7518 31.9376 18.3526 31.2954C16.9334 30.6439 16.0081 29.2626 15.7042 27.3882L17.1742 27.1498C17.4197 28.6642 18.1134 29.547 18.9739 29.942C19.8544 30.3462 21.0871 30.3217 22.556 29.6397C22.9289 29.4665 23.3717 29.6284 23.5449 30.0014Z" fill="white"/>
<path fill-rule="evenodd" clip-rule="evenodd" d="M21.5161 22.5309V19.4849H22.8698V23.8847H19.147V22.5309H21.5161Z" fill="white"/>
<path d="M29.9763 16.1004C29.9763 16.8481 29.3702 17.4542 28.6226 17.4542C27.8749 17.4542 27.2688 16.8481 27.2688 16.1004C27.2688 15.3528 27.8749 14.7467 28.6226 14.7467C29.3702 14.7467 29.9763 15.3528 29.9763 16.1004Z" fill="white"/>
<path d="M13.731 16.1004C13.731 16.8481 13.1249 17.4542 12.3772 17.4542C11.6295 17.4542 11.0234 16.8481 11.0234 16.1004C11.0234 15.3528 11.6295 14.7467 12.3772 14.7467C13.1249 14.7467 13.731 15.3528 13.731 16.1004Z" fill="white"/>
</svg>
