<svg width="35" height="35" viewBox="0 0 35 35" fill="none" xmlns="http://www.w3.org/2000/svg">
<path d="M25.9722 6.51868C25.8555 6.51868 25.7388 6.48952 25.6367 6.43118C22.8367 4.98743 20.4159 4.37493 17.5138 4.37493C14.6263 4.37493 11.8847 5.06035 9.3909 6.43118C9.0409 6.62077 8.6034 6.48952 8.39924 6.13952C8.20965 5.78952 8.3409 5.33743 8.6909 5.14785C11.4034 3.67493 14.3784 2.9166 17.5138 2.9166C20.6201 2.9166 23.3326 3.60202 26.3076 5.13327C26.6722 5.32285 26.8034 5.76035 26.6138 6.11035C26.4826 6.37285 26.2347 6.51868 25.9722 6.51868ZM5.1034 14.1749C4.95757 14.1749 4.81174 14.1312 4.68049 14.0437C4.34507 13.8104 4.27215 13.3583 4.50549 13.0229C5.94924 10.9812 7.78674 9.37702 9.97424 8.2541C14.5534 5.8916 20.4159 5.87702 25.0097 8.23952C27.1972 9.36243 29.0347 10.952 30.4784 12.9791C30.7117 13.2999 30.6388 13.7666 30.3034 13.9999C29.968 14.2333 29.5159 14.1604 29.2826 13.8249C27.9701 11.9874 26.3076 10.5437 24.3388 9.53743C20.1534 7.39368 14.8013 7.39368 10.6305 9.55202C8.64715 10.5729 6.98465 12.0312 5.67215 13.8687C5.55549 14.0729 5.33674 14.1749 5.1034 14.1749ZM14.218 31.777C14.0284 31.777 13.8388 31.7041 13.7076 31.5583C12.4388 30.2895 11.7534 29.4729 10.7763 27.7083C9.77007 25.9145 9.24507 23.727 9.24507 21.3791C9.24507 17.0479 12.9492 13.5187 17.4992 13.5187C22.0492 13.5187 25.7534 17.0479 25.7534 21.3791C25.7534 21.7874 25.4326 22.1083 25.0242 22.1083C24.6159 22.1083 24.2951 21.7874 24.2951 21.3791C24.2951 17.8499 21.2472 14.977 17.4992 14.977C13.7513 14.977 10.7034 17.8499 10.7034 21.3791C10.7034 23.4791 11.1701 25.4187 12.0597 26.9937C12.993 28.6708 13.6347 29.3854 14.7576 30.5229C15.0347 30.8145 15.0347 31.2666 14.7576 31.5583C14.5972 31.7041 14.4076 31.777 14.218 31.777ZM24.6742 29.0791C22.9388 29.0791 21.4076 28.6416 20.1534 27.7812C17.9805 26.3083 16.6826 23.9166 16.6826 21.3791C16.6826 20.9708 17.0034 20.6499 17.4117 20.6499C17.8201 20.6499 18.1409 20.9708 18.1409 21.3791C18.1409 23.4354 19.1909 25.3749 20.9701 26.5708C22.0055 27.2708 23.2159 27.6062 24.6742 27.6062C25.0242 27.6062 25.6076 27.5624 26.1909 27.4604C26.5847 27.3874 26.9638 27.6499 27.0367 28.0583C27.1097 28.452 26.8472 28.8312 26.4388 28.9041C25.6076 29.0645 24.8784 29.0791 24.6742 29.0791ZM21.743 32.0833C21.6847 32.0833 21.6117 32.0687 21.5534 32.0541C19.2347 31.4124 17.718 30.552 16.1284 28.9916C14.0867 26.9645 12.9638 24.2666 12.9638 21.3791C12.9638 19.0166 14.9763 17.0916 17.4555 17.0916C19.9347 17.0916 21.9472 19.0166 21.9472 21.3791C21.9472 22.9395 23.3034 24.2083 24.9805 24.2083C26.6576 24.2083 28.0138 22.9395 28.0138 21.3791C28.0138 15.8812 23.2742 11.4187 17.4409 11.4187C13.2992 11.4187 9.50757 13.7229 7.80132 17.2958C7.23257 18.477 6.9409 19.8624 6.9409 21.3791C6.9409 22.5166 7.04299 24.3104 7.91799 26.6437C8.06382 27.0229 7.87424 27.4458 7.49507 27.577C7.1159 27.7229 6.69299 27.5187 6.56174 27.1541C5.84715 25.2437 5.49715 23.3479 5.49715 21.3791C5.49715 19.6291 5.83257 18.0395 6.48882 16.6541C8.4284 12.5854 12.7305 9.94577 17.4409 9.94577C24.0763 9.94577 29.4722 15.0645 29.4722 21.3645C29.4722 23.727 27.4597 25.652 24.9805 25.652C22.5013 25.652 20.4888 23.727 20.4888 21.3645C20.4888 19.8041 19.1326 18.5354 17.4555 18.5354C15.7784 18.5354 14.4222 19.8041 14.4222 21.3645C14.4222 23.8583 15.3847 26.1916 17.1492 27.9416C18.5347 29.3124 19.8617 30.0708 21.918 30.6395C22.3117 30.7416 22.5305 31.1499 22.4284 31.5291C22.3555 31.8645 22.0492 32.0833 21.743 32.0833Z" fill="white"/>
</svg>
