<svg width="38" height="38" viewBox="0 0 38 38" fill="none" xmlns="http://www.w3.org/2000/svg">
<ellipse cx="19.9503" cy="19.9496" rx="8.5497" ry="8.5499" fill="#CBD1EC"/>
<path d="M21.0482 3.46773e-06C21.6067 3.46773e-06 22.1064 0.347699 22.2945 0.868293L23.6359 4.58655C24.1166 4.70625 24.5288 4.82594 24.8784 4.95134C25.2603 5.08814 25.7524 5.29524 26.3604 5.57834L29.4839 3.92536C29.7388 3.79028 30.0307 3.74152 30.3157 3.7864C30.6007 3.83128 30.8635 3.96737 31.0646 4.17425L33.8119 7.01472C34.1767 7.39281 34.2793 7.94571 34.0741 8.4283L32.6093 11.8616C32.8525 12.3081 33.0463 12.6899 33.1945 13.0091C33.354 13.3568 33.5516 13.8356 33.7872 14.4531L37.2014 15.9161C37.7144 16.1346 38.0317 16.6476 37.9975 17.1967L37.7467 21.1391C37.7295 21.3953 37.6376 21.6407 37.4822 21.8451C37.3269 22.0494 37.1149 22.2036 36.8727 22.2886L33.639 23.4381C33.5459 23.8846 33.449 24.2665 33.3464 24.5895C33.181 25.0883 32.992 25.5791 32.7803 26.0601L34.4047 29.651C34.5194 29.9034 34.5502 30.1857 34.4928 30.4569C34.4354 30.728 34.2926 30.9736 34.0855 31.1577L30.9962 33.9165C30.7928 34.0974 30.5389 34.2118 30.2686 34.2444C29.9983 34.277 29.7245 34.2262 29.4839 34.0989L26.2996 32.4117C25.8014 32.6755 25.2874 32.9084 24.7606 33.109L23.3699 33.6296L22.1349 37.0496C22.0434 37.3 21.8783 37.5169 21.6613 37.6719C21.4443 37.8269 21.1856 37.9126 20.919 37.9178L17.3091 37.9995C17.0354 38.0067 16.7663 37.9289 16.5387 37.7768C16.311 37.6247 16.1361 37.4058 16.038 37.1503L14.5827 33.299C14.0861 33.1293 13.5945 32.9456 13.1083 32.748C12.7107 32.5759 12.3191 32.3902 11.9342 32.1913L8.32431 33.7341C8.08645 33.8356 7.82422 33.8657 7.56955 33.8209C7.31487 33.776 7.07872 33.658 6.88986 33.4814L4.21855 30.9753C4.01967 30.7896 3.88422 30.546 3.83138 30.279C3.77853 30.012 3.81095 29.7352 3.92406 29.4876L5.47631 26.1057C5.26987 25.7051 5.07847 25.297 4.90253 24.8821C4.69715 24.3743 4.50707 23.8604 4.33255 23.3412L0.931666 22.3057C0.655227 22.2222 0.414113 22.0497 0.24577 21.815C0.0774273 21.5804 -0.00872317 21.2967 0.000698167 21.008L0.133694 17.3582C0.14316 17.1201 0.21755 16.889 0.348819 16.6901C0.480088 16.4912 0.66324 16.332 0.878468 16.2296L4.44654 14.5158C4.61184 13.9097 4.75623 13.4385 4.88353 13.0946C5.06277 12.6353 5.26182 12.184 5.48011 11.7419L3.93356 8.4739C3.81619 8.22573 3.78055 7.94673 3.83176 7.67702C3.88297 7.40732 4.01839 7.1608 4.21855 6.97292L6.88606 4.45355C7.07305 4.27718 7.30703 4.1586 7.55983 4.11209C7.81263 4.06557 8.07349 4.0931 8.31101 4.19135L11.9171 5.68093C12.3161 5.41494 12.6771 5.20024 13.0038 5.02734C13.3933 4.82024 13.9139 4.60365 14.5694 4.36995L15.8233 0.872093C15.9161 0.616106 16.0855 0.394973 16.3086 0.23889C16.5316 0.0828061 16.7975 -0.000619869 17.0697 3.46773e-06H21.0482ZM19.0456 13.3359C15.8784 13.3359 13.3116 15.8724 13.3116 19.0036C13.3116 22.1347 15.8784 24.6731 19.0456 24.6731C22.2109 24.6731 24.7777 22.1347 24.7777 19.0036C24.7777 15.8724 22.2128 13.3359 19.0456 13.3359Z" fill="#5164BF"/>
</svg>
