<svg width="372" height="67" viewBox="0 0 372 67" fill="none" xmlns="http://www.w3.org/2000/svg">
<rect width="372" height="65.9817" rx="10" transform="matrix(-1 0 0 1 372 0.412842)" fill="white"/>
<circle cx="21.5" cy="21.5" r="21.5" transform="matrix(-1 0 0 1 353 11)" fill="#54698A"/>
<mask id="mask0_2_48" style="mask-type:luminance" maskUnits="userSpaceOnUse" x="310" y="11" width="43" height="43">
<circle cx="21.5" cy="21.5" r="21.5" transform="matrix(-1 0 0 1 353 11)" fill="white"/>
</mask>
<g mask="url(#mask0_2_48)">
</g>
<path d="M128.55 14.7849C124.91 9.72982 119.45 9.23197 117.174 9.61494V57.2936H179.743V33.6404C178.037 33.2574 174.283 29.5044 170.642 29.0448C166.092 28.4704 166.092 33.6404 162.679 32.4915C159.266 31.3426 161.541 32.0182 158.128 30.8693C154.716 29.7204 147.321 23.3004 143.908 19.8537C140.495 16.4071 138.789 30.1937 132.532 34.2148C126.22 38.2712 133.101 21.1038 128.55 14.7849Z" fill="url(#paint0_linear_2_48)"/>
<path d="M117.174 9.61494C119.45 9.23197 124.91 9.72982 128.55 14.7849C133.101 21.1038 127.671 39.3834 132.532 33.6404C138.453 26.6459 137.402 29.6925 138.789 25.0237C142.202 13.5349 147.053 21.8803 149.596 24.4493C152.44 27.3215 158.128 31.3426 161.541 32.4915C164.954 33.6404 166.092 28.4704 170.642 29.0448C174.283 29.5044 178.037 33.2574 179.743 33.6404" stroke="#66DC43" stroke-width="2" stroke-linecap="round"/>
<path d="M42.0149 29.9365C41.9581 30.0258 41.9013 30.1252 41.8444 30.2348C41.7917 30.3403 41.743 30.4559 41.6984 30.5817C41.6172 30.8009 41.5421 31.0687 41.4731 31.3852C41.4082 31.6977 41.3757 32.069 41.3757 32.4991C41.3757 32.767 41.4102 33.0084 41.4792 33.2235C41.5523 33.4426 41.6476 33.6354 41.7653 33.8017C41.887 33.9681 42.025 34.1122 42.1792 34.2339C42.3375 34.3557 42.4998 34.4551 42.6662 34.5322C42.8326 34.6133 42.9969 34.6742 43.1592 34.7148C43.3256 34.7594 43.4798 34.7858 43.6218 34.7939C43.6746 34.798 43.7253 34.8 43.774 34.8C43.9323 34.8 44.1088 34.7838 44.3036 34.7513C44.5024 34.7229 44.7114 34.6661 44.9305 34.5809C45.1497 34.4957 45.3586 34.382 45.5575 34.24C45.7563 34.098 45.9308 33.9235 46.081 33.7165C46.2352 33.5136 46.3569 33.2762 46.4462 33.0043C46.5395 32.7365 46.5862 32.4301 46.5862 32.0852C46.5862 31.7646 46.5801 31.3852 46.5679 30.947C46.5598 30.5087 46.5476 30.04 46.5314 29.5409C46.5192 29.0417 46.503 28.5284 46.4827 28.0009C46.4624 27.4693 46.4421 26.9519 46.4218 26.4487C46.4015 25.8562 46.3772 25.2536 46.3488 24.6409C46.3244 24.0241 46.296 23.391 46.2636 22.7417L47.4566 22.693C47.4891 23.3464 47.5175 23.9835 47.5418 24.6043C47.5702 25.2212 47.5946 25.8278 47.6149 26.4243C47.6352 26.9316 47.6555 27.451 47.6757 27.9826C47.696 28.5142 47.7123 29.0316 47.7244 29.5348C47.7407 30.0339 47.7528 30.5046 47.761 30.947C47.7731 31.3852 47.7792 31.7646 47.7792 32.0852C47.7792 32.5965 47.7143 33.049 47.5844 33.4426C47.4546 33.8403 47.2801 34.1852 47.061 34.4774C46.8459 34.7736 46.5963 35.0212 46.3123 35.22C46.0323 35.4188 45.7381 35.5771 45.4297 35.6948C45.1213 35.8165 44.8108 35.8997 44.4984 35.9443C44.2711 35.9768 44.052 35.993 43.841 35.993C43.7679 35.993 43.6949 35.991 43.6218 35.987C43.3743 35.9748 43.1166 35.9362 42.8488 35.8713C42.585 35.8064 42.3253 35.713 42.0697 35.5913C41.814 35.4696 41.5705 35.3154 41.3392 35.1287C41.112 34.9461 40.9111 34.727 40.7366 34.4713C40.5621 34.2157 40.4262 33.9235 40.3288 33.5948C40.2314 33.2823 40.1827 32.9333 40.1827 32.5478V32.4991C40.1868 31.9716 40.2273 31.5191 40.3044 31.1417C40.3815 30.7643 40.4668 30.4478 40.5601 30.1922C40.6656 29.8959 40.7873 29.6484 40.9253 29.4496L42.0149 29.9365ZM51.687 30.807H52.3931C52.6285 30.807 52.8456 30.8029 53.0444 30.7948C53.2433 30.7826 53.4239 30.7522 53.5862 30.7035C53.7485 30.6548 53.8905 30.5838 54.0123 30.4904C54.134 30.393 54.2355 30.2591 54.3166 30.0887C54.3572 30.0035 54.3876 29.8959 54.4079 29.7661C54.4201 29.6809 54.4262 29.5896 54.4262 29.4922C54.4262 29.4394 54.4221 29.3603 54.414 29.2548C54.4059 29.1452 54.3795 28.9971 54.3349 28.8104C54.2902 28.6197 54.2253 28.4209 54.1401 28.2139L53.6105 26.9113L54.694 26.3757C54.694 26.3797 54.7123 26.4223 54.7488 26.5035C54.7853 26.5806 54.832 26.6861 54.8888 26.82C54.9497 26.9539 55.0146 27.1101 55.0836 27.2887C55.1526 27.4632 55.2175 27.6499 55.2784 27.8487C55.461 28.4371 55.5665 28.9565 55.5949 29.407C55.5989 29.4719 55.601 29.5368 55.601 29.6017C55.601 29.971 55.5401 30.2957 55.4184 30.5757C55.2966 30.8516 55.1465 31.0809 54.9679 31.2635C54.7934 31.4461 54.5905 31.5922 54.3592 31.7017C54.1279 31.8113 53.8682 31.8884 53.5801 31.933C53.296 31.9777 52.9876 32 52.6549 32H51.687V30.807ZM58.6201 28.0435C58.6769 28.2342 58.7337 28.4229 58.7905 28.6096C58.8473 28.7922 58.8981 28.9768 58.9427 29.1635C58.9914 29.3583 59.0401 29.5551 59.0888 29.7539C59.1415 29.9487 59.1882 30.1435 59.2288 30.3383C59.2734 30.529 59.3099 30.7177 59.3384 30.9043C59.3668 31.091 59.381 31.2736 59.381 31.4522C59.381 31.8052 59.3282 32.1461 59.2227 32.4748C59.1213 32.8075 58.9772 33.1281 58.7905 33.4365C58.6079 33.7449 58.3888 34.0391 58.1331 34.3191C57.8815 34.5991 57.6056 34.8629 57.3053 35.1104C57.0091 35.358 56.6946 35.5852 56.3618 35.7922C56.0331 36.0032 55.6984 36.1919 55.3575 36.3583L54.8279 35.287C55.254 35.0759 55.6679 34.8304 56.0697 34.5504C56.4714 34.2745 56.8285 33.9722 57.141 33.6435C57.4575 33.3148 57.7111 32.9658 57.9018 32.5965C58.0926 32.2272 58.1879 31.8458 58.1879 31.4522C58.1879 31.302 58.1737 31.1438 58.1453 30.9774C58.121 30.811 58.0885 30.6406 58.0479 30.4661C58.0073 30.2916 57.9627 30.1171 57.914 29.9426C57.8653 29.7681 57.8186 29.5977 57.774 29.4313C57.6766 29.0904 57.5731 28.7496 57.4636 28.4087L58.6201 28.0435ZM51.681 32C51.2346 32 50.8531 31.9472 50.5366 31.8417C50.2241 31.7362 49.9584 31.5739 49.7392 31.3548C49.6053 31.2209 49.5018 31.0768 49.4288 30.9226C49.3598 30.7684 49.307 30.6162 49.2705 30.4661C49.2381 30.3159 49.2198 30.1739 49.2157 30.04C49.2117 29.902 49.2097 29.7843 49.2097 29.687C49.2097 29.6545 49.2097 29.5591 49.2097 29.4009C49.2137 29.2386 49.2178 29.0316 49.2218 28.78C49.2259 28.5284 49.2279 28.2403 49.2279 27.9157C49.2279 27.5951 49.2259 27.2562 49.2218 26.8991C49.2218 26.5501 49.2178 26.187 49.2097 25.8096C49.2015 25.4322 49.1873 25.067 49.167 24.7139C49.1508 24.3609 49.1285 24.0362 49.1001 23.74C49.0757 23.4397 49.0453 23.1942 49.0088 23.0035L50.2018 22.7843C50.2384 22.9913 50.2688 23.2449 50.2931 23.5452C50.3215 23.8455 50.3439 24.1722 50.3601 24.5252C50.3804 24.8783 50.3946 25.2475 50.4027 25.633C50.4149 26.0145 50.421 26.3878 50.421 26.753V29.8087C50.421 29.9467 50.427 30.0765 50.4392 30.1983C50.4555 30.3159 50.5102 30.4194 50.6036 30.5087C50.6969 30.602 50.8349 30.6751 51.0175 30.7278C51.2042 30.7806 51.4253 30.807 51.681 30.807H51.8027V32H51.681ZM51.961 33.9904L50.9749 34.9765L49.9766 33.9843L50.9627 32.9922L51.961 33.9904ZM54.4566 33.9965L53.4705 34.9887L52.4723 33.9904L53.4584 33.0043L54.4566 33.9965ZM70.0771 23.1009C70.0771 23.109 70.0832 23.1496 70.0954 23.2226C70.1076 23.2916 70.1198 23.3849 70.1319 23.5026C70.1441 23.6162 70.1542 23.7461 70.1624 23.8922C70.1664 23.9936 70.1685 24.0971 70.1685 24.2026V24.3609C70.1522 25.2983 69.9311 26.0165 69.505 26.5157V26.5096C69.0911 27.0087 68.529 27.2583 67.8189 27.2583C67.6241 27.2583 67.4476 27.2461 67.2893 27.2217C67.1351 27.1933 66.9809 27.1487 66.8267 27.0878L66.8754 27.4226C66.9241 27.8041 66.9627 28.1977 66.9911 28.6035C67.0235 29.0052 67.0479 29.409 67.0641 29.8148C67.0844 30.2165 67.0966 30.6142 67.1006 31.0078C67.1087 31.3974 67.1128 31.7687 67.1128 32.1217H65.9015C65.9015 31.4765 65.8954 30.8354 65.8832 30.1983C65.8711 29.5571 65.8386 28.9362 65.7858 28.3357C65.7331 27.731 65.654 27.1548 65.5485 26.607C65.447 26.0551 65.305 25.5478 65.1224 25.0852C65.0371 24.8661 64.9458 24.6571 64.8485 24.4583C64.7511 24.2594 64.6415 24.0545 64.5198 23.8435L65.5363 23.1983C65.6012 23.3038 65.66 23.4113 65.7128 23.5209C65.7696 23.6264 65.8244 23.738 65.8771 23.8557C65.934 23.9693 65.9908 24.091 66.0476 24.2209C66.1044 24.3507 66.1673 24.4907 66.2363 24.6409C66.3296 24.8559 66.4209 25.0507 66.5102 25.2252C66.6035 25.3957 66.709 25.5438 66.8267 25.6696C66.9485 25.7954 67.0864 25.8928 67.2406 25.9617C67.3989 26.0267 67.5916 26.0591 67.8189 26.0591C68.1557 26.0591 68.4093 25.9557 68.5798 25.7487C68.6569 25.6594 68.7198 25.5559 68.7685 25.4383C68.8171 25.3165 68.8557 25.1887 68.8841 25.0548C68.9166 24.9209 68.9389 24.7829 68.9511 24.6409C68.9632 24.4988 68.9693 24.3609 68.9693 24.227C68.9693 24.0525 68.9592 23.8841 68.9389 23.7217C68.9227 23.5594 68.9044 23.4255 68.8841 23.32L70.0771 23.1009ZM78.9429 23.0339C79.0079 23.387 79.0545 23.7116 79.0829 24.0078C79.1113 24.3 79.1316 24.5699 79.1438 24.8174C79.1479 24.8864 79.1499 24.9554 79.1499 25.0243C79.1499 25.2759 79.1215 25.5275 79.0647 25.7791C79.0119 26.0307 78.9145 26.262 78.7725 26.473C78.6305 26.6841 78.4438 26.8504 78.2125 26.9722C77.9853 27.0899 77.7113 27.1487 77.3908 27.1487C77.2893 27.1487 77.1818 27.1386 77.0682 27.1183C76.9545 27.0939 76.8389 27.0554 76.7212 27.0026C76.6035 26.9458 76.4879 26.8687 76.3742 26.7713C76.2606 26.6739 76.1531 26.5522 76.0516 26.4061C75.9664 26.5684 75.865 26.7043 75.7473 26.8139C75.6337 26.9235 75.5099 27.0107 75.376 27.0757C75.2421 27.1406 75.1 27.1872 74.9499 27.2157C74.7998 27.2441 74.6456 27.2583 74.4873 27.2583C74.3331 27.2583 74.1992 27.2501 74.0856 27.2339C73.9719 27.2136 73.8522 27.1812 73.7264 27.1365C73.8603 27.9643 73.9395 28.7942 73.9638 29.6261C73.9922 30.458 74.0064 31.2878 74.0064 32.1157H72.7951C72.8032 31.9452 72.8073 31.7707 72.8073 31.5922C72.8113 31.4136 72.8134 31.2432 72.8134 31.0809C72.8134 29.9 72.7342 28.782 72.576 27.727C72.4177 26.6719 72.1742 25.7223 71.8456 24.8783C71.7522 24.6551 71.665 24.4623 71.5838 24.3C71.5067 24.1377 71.4215 23.9835 71.3282 23.8374L72.4299 23.1861C72.4583 23.2348 72.4908 23.2957 72.5273 23.3687C72.5638 23.4377 72.6024 23.5128 72.6429 23.5939C72.6835 23.6751 72.7241 23.7583 72.7647 23.8435C72.8093 23.9287 72.8519 24.0119 72.8925 24.093L73.1786 24.7078C73.2882 24.9594 73.3835 25.1704 73.4647 25.3409C73.5458 25.5113 73.6311 25.6493 73.7203 25.7548C73.8137 25.8603 73.9192 25.9374 74.0369 25.9861C74.1545 26.0307 74.3047 26.053 74.4873 26.053C74.678 26.053 74.8302 25.9922 74.9438 25.8704C75.0615 25.7446 75.1528 25.5945 75.2177 25.42C75.2827 25.2414 75.3253 25.0588 75.3456 24.8722C75.3699 24.6814 75.3841 24.5191 75.3882 24.3852C75.3882 24.3406 75.3861 24.2635 75.3821 24.1539C75.378 24.0403 75.3719 23.9226 75.3638 23.8009C75.3598 23.6791 75.3537 23.5675 75.3456 23.4661C75.3374 23.3606 75.3313 23.2957 75.3273 23.2713L76.5325 23.1252C76.5366 23.251 76.5447 23.3707 76.5569 23.4843C76.5731 23.5939 76.5853 23.7014 76.5934 23.807C76.6015 23.8922 76.6116 24.0038 76.6238 24.1417C76.64 24.2797 76.6603 24.4278 76.6847 24.5861C76.7131 24.7443 76.7456 24.9046 76.7821 25.067C76.8227 25.2252 76.8713 25.3693 76.9282 25.4991C76.985 25.629 77.0499 25.7345 77.1229 25.8157C77.2 25.8968 77.2893 25.9374 77.3908 25.9374C77.5247 25.9374 77.6282 25.8968 77.7012 25.8157C77.7783 25.7304 77.8331 25.629 77.8656 25.5113C77.9021 25.3936 77.9244 25.2719 77.9325 25.1461C77.9406 25.0162 77.9447 24.9046 77.9447 24.8113C77.9447 24.6287 77.9366 24.4136 77.9203 24.1661C77.9082 23.9145 77.8696 23.6122 77.8047 23.2591L78.9429 23.0339ZM81.0901 32.0304C80.9602 32.0304 80.8385 32.0061 80.7249 31.9574C80.6153 31.9087 80.5179 31.8417 80.4327 31.7565C80.3475 31.6713 80.2805 31.5739 80.2318 31.4643C80.1831 31.3507 80.1588 31.229 80.1588 31.0991C80.1588 30.953 80.1852 30.8232 80.2379 30.7096C80.2947 30.5919 80.3698 30.4925 80.4631 30.4113C80.5605 30.3261 80.6701 30.2632 80.7918 30.2226C80.9176 30.178 81.0475 30.1557 81.1814 30.1557H81.2118C81.577 30.1557 81.8631 30.2896 82.0701 30.5574C82.2689 30.809 82.3704 31.1296 82.3744 31.5191V31.6165C82.3744 32.7162 81.6988 33.6049 80.3475 34.2826L79.9944 33.6435C81.0252 33.1484 81.5405 32.5823 81.5405 31.9452V31.9148C81.4026 31.9919 81.2524 32.0304 81.0901 32.0304ZM83.9395 28.7009C83.9395 28.4168 83.9922 28.151 84.0977 27.9035C84.2073 27.6519 84.3554 27.4328 84.5421 27.2461C84.7287 27.0554 84.9458 26.9052 85.1934 26.7957C85.445 26.6861 85.7148 26.6313 86.0029 26.6313C86.287 26.6313 86.5528 26.6861 86.8003 26.7957C87.0519 26.9052 87.271 27.0554 87.4577 27.2461C87.6484 27.4328 87.7986 27.6519 87.9081 27.9035C88.0177 28.151 88.0725 28.4168 88.0725 28.7009C88.0725 28.989 88.0177 29.2588 87.9081 29.5104C87.7986 29.758 87.6484 29.9751 87.4577 30.1617C87.271 30.3484 87.0519 30.4965 86.8003 30.6061C86.5528 30.7116 86.287 30.7643 86.0029 30.7643C85.7148 30.7643 85.445 30.7116 85.1934 30.6061C84.9458 30.4965 84.7287 30.3484 84.5421 30.1617C84.3554 29.9751 84.2073 29.758 84.0977 29.5104C83.9922 29.2588 83.9395 28.989 83.9395 28.7009ZM84.9316 28.7009C84.9316 28.847 84.96 28.9849 85.0168 29.1148C85.0737 29.2446 85.1508 29.3583 85.2481 29.4557C85.3455 29.553 85.4592 29.6301 85.589 29.687C85.7189 29.7438 85.8568 29.7722 86.0029 29.7722C86.149 29.7722 86.287 29.7438 86.4168 29.687C86.5508 29.6301 86.6664 29.553 86.7638 29.4557C86.8612 29.3583 86.9383 29.2446 86.9951 29.1148C87.0519 28.9849 87.0803 28.847 87.0803 28.7009C87.0803 28.5548 87.0519 28.4168 86.9951 28.287C86.9383 28.153 86.8612 28.0374 86.7638 27.94C86.6664 27.8426 86.5508 27.7655 86.4168 27.7087C86.287 27.6519 86.149 27.6235 86.0029 27.6235C85.8568 27.6235 85.7189 27.6519 85.589 27.7087C85.4592 27.7655 85.3455 27.8426 85.2481 27.94C85.1508 28.0374 85.0737 28.153 85.0168 28.287C84.96 28.4168 84.9316 28.5548 84.9316 28.7009ZM94.5583 32.1887C94.2621 32.1887 93.9902 32.1177 93.7427 31.9757C93.4992 31.8296 93.2922 31.6206 93.1218 31.3487L93.1035 31.3243C92.929 31.5881 92.7099 31.7971 92.4461 31.9513C92.1864 32.1055 91.8983 32.1826 91.5818 32.1826C91.2288 32.1826 90.9305 32.1177 90.687 31.9878C90.4476 31.858 90.2528 31.6875 90.1027 31.4765C89.9525 31.2614 89.8409 31.0159 89.7679 30.74C89.6948 30.4641 89.6502 30.18 89.634 29.8878C89.6259 29.7661 89.6218 29.6464 89.6218 29.5287C89.6218 29.3623 89.6319 29.1675 89.6522 28.9443C89.6766 28.7171 89.7131 28.4899 89.7618 28.2626C89.8348 27.9339 89.9282 27.6012 90.0418 27.2643C90.1595 26.9275 90.3015 26.5765 90.4679 26.2113C90.6383 25.842 90.8372 25.4525 91.0644 25.0426C91.2957 24.6328 91.5595 24.1925 91.8557 23.7217L91.6305 23.4965L92.4827 22.6443C92.8925 23.0177 93.2943 23.3991 93.6879 23.7887C94.0856 24.1742 94.4569 24.5841 94.8018 25.0183C95.5972 26.0328 96.1734 27.1041 96.5305 28.2322C96.6482 28.6217 96.707 29.0275 96.707 29.4496C96.707 29.7864 96.6624 30.1171 96.5731 30.4417C96.4838 30.7664 96.3499 31.0586 96.1714 31.3183C95.9969 31.5739 95.7737 31.7829 95.5018 31.9452C95.234 32.1035 94.9215 32.1846 94.5644 32.1887H94.5583ZM93.6635 28.7557C93.6635 28.8652 93.6676 28.9951 93.6757 29.1452C93.6838 29.2954 93.698 29.4516 93.7183 29.6139C93.7427 29.7722 93.7751 29.9304 93.8157 30.0887C93.8603 30.247 93.9151 30.391 93.9801 30.5209C94.049 30.6467 94.1302 30.7522 94.2235 30.8374C94.3209 30.9226 94.4345 30.9733 94.5644 30.9896C94.7551 30.9774 94.9114 30.9186 95.0331 30.813C95.1548 30.7075 95.2502 30.5797 95.3192 30.4296C95.3882 30.2754 95.4348 30.111 95.4592 29.9365C95.4876 29.758 95.5018 29.5936 95.5018 29.4435C95.5018 29.3055 95.4916 29.1635 95.4714 29.0174C95.4511 28.8713 95.4186 28.7293 95.374 28.5913C95.2279 28.1409 95.0514 27.7188 94.8444 27.3252C94.6374 26.9316 94.4163 26.5664 94.1809 26.2296C93.9456 25.8887 93.7041 25.5783 93.4566 25.2983C93.209 25.0183 92.9716 24.7687 92.7444 24.5496C92.4888 24.9635 92.2635 25.349 92.0688 25.7061C91.874 26.0632 91.7035 26.402 91.5574 26.7226C91.4114 27.0432 91.2876 27.3516 91.1861 27.6478C91.0888 27.94 91.0076 28.2281 90.9427 28.5122C90.9183 28.6136 90.894 28.7435 90.8696 28.9017C90.8453 29.06 90.829 29.2304 90.8209 29.413C90.8169 29.4739 90.8148 29.5348 90.8148 29.5957C90.8148 29.7174 90.8209 29.8554 90.8331 30.0096C90.8493 30.1638 90.8838 30.3159 90.9366 30.4661C90.9934 30.6162 91.0725 30.738 91.174 30.8313C91.2795 30.9246 91.4154 30.9713 91.5818 30.9713C91.7279 30.9672 91.8537 30.9226 91.9592 30.8374C92.0647 30.7522 92.154 30.6446 92.227 30.5148C92.3041 30.3809 92.367 30.2328 92.4157 30.0704C92.4685 29.9041 92.5111 29.7397 92.5435 29.5774C92.576 29.4151 92.6024 29.2609 92.6227 29.1148C92.647 28.9646 92.6673 28.8409 92.6835 28.7435L93.6635 28.7557ZM98.3633 28.7009C98.3633 28.4168 98.416 28.151 98.5215 27.9035C98.6311 27.6519 98.7792 27.4328 98.9659 27.2461C99.1526 27.0554 99.3697 26.9052 99.6172 26.7957C99.8688 26.6861 100.139 26.6313 100.427 26.6313C100.711 26.6313 100.977 26.6861 101.224 26.7957C101.476 26.9052 101.695 27.0554 101.882 27.2461C102.072 27.4328 102.222 27.6519 102.332 27.9035C102.442 28.151 102.496 28.4168 102.496 28.7009C102.496 28.989 102.442 29.2588 102.332 29.5104C102.222 29.758 102.072 29.9751 101.882 30.1617C101.695 30.3484 101.476 30.4965 101.224 30.6061C100.977 30.7116 100.711 30.7643 100.427 30.7643C100.139 30.7643 99.8688 30.7116 99.6172 30.6061C99.3697 30.4965 99.1526 30.3484 98.9659 30.1617C98.7792 29.9751 98.6311 29.758 98.5215 29.5104C98.416 29.2588 98.3633 28.989 98.3633 28.7009ZM99.3555 28.7009C99.3555 28.847 99.3839 28.9849 99.4407 29.1148C99.4975 29.2446 99.5746 29.3583 99.672 29.4557C99.7694 29.553 99.883 29.6301 100.013 29.687C100.143 29.7438 100.281 29.7722 100.427 29.7722C100.573 29.7722 100.711 29.7438 100.841 29.687C100.975 29.6301 101.09 29.553 101.188 29.4557C101.285 29.3583 101.362 29.2446 101.419 29.1148C101.476 28.9849 101.504 28.847 101.504 28.7009C101.504 28.5548 101.476 28.4168 101.419 28.287C101.362 28.153 101.285 28.0374 101.188 27.94C101.09 27.8426 100.975 27.7655 100.841 27.7087C100.711 27.6519 100.573 27.6235 100.427 27.6235C100.281 27.6235 100.143 27.6519 100.013 27.7087C99.883 27.7655 99.7694 27.8426 99.672 27.94C99.5746 28.0374 99.4975 28.153 99.4407 28.287C99.3839 28.4168 99.3555 28.5548 99.3555 28.7009Z" fill="#1C3169"/>
<path d="M54.5338 45.2409H56.9129V46.2635H54.5338V48.9609H53.4486V46.2635H51.0694V45.2409H53.4486V42.7522H54.5338V45.2409ZM59.2293 49.9522C59.2293 49.2739 59.2172 48.6009 59.1928 47.9331C59.1685 47.2617 59.1146 46.6183 59.0311 46.0026C58.9476 45.387 58.8276 44.8113 58.6711 44.2757C58.518 43.74 58.3111 43.267 58.0502 42.8565L58.9163 42.3035C59.2015 42.7591 59.438 43.2861 59.6259 43.8844C59.8172 44.4791 59.9632 45.1591 60.0641 45.9244C60.1059 46.2513 60.1389 46.5887 60.1632 46.9365C60.1911 47.2844 60.2119 47.6322 60.2259 47.98C60.2432 48.3244 60.2537 48.6635 60.2572 48.9974C60.2641 49.3313 60.2676 49.6496 60.2676 49.9522H59.2293ZM61.7629 46.9887C61.7629 46.7452 61.8081 46.5174 61.8985 46.3052C61.9925 46.0896 62.1194 45.9017 62.2794 45.7417C62.4394 45.5783 62.6255 45.4496 62.8377 45.3557C63.0533 45.2617 63.2846 45.2148 63.5316 45.2148C63.7751 45.2148 64.0029 45.2617 64.2151 45.3557C64.4307 45.4496 64.6185 45.5783 64.7785 45.7417C64.942 45.9017 65.0707 46.0896 65.1646 46.3052C65.2585 46.5174 65.3055 46.7452 65.3055 46.9887C65.3055 47.2357 65.2585 47.467 65.1646 47.6826C65.0707 47.8948 64.942 48.0809 64.7785 48.2409C64.6185 48.4009 64.4307 48.5278 64.2151 48.6217C64.0029 48.7122 63.7751 48.7574 63.5316 48.7574C63.2846 48.7574 63.0533 48.7122 62.8377 48.6217C62.6255 48.5278 62.4394 48.4009 62.2794 48.2409C62.1194 48.0809 61.9925 47.8948 61.8985 47.6826C61.8081 47.467 61.7629 47.2357 61.7629 46.9887ZM62.6133 46.9887C62.6133 47.1139 62.6377 47.2322 62.6864 47.3435C62.7351 47.4548 62.8011 47.5522 62.8846 47.6357C62.9681 47.7191 63.0655 47.7852 63.1768 47.8339C63.2881 47.8826 63.4064 47.907 63.5316 47.907C63.6568 47.907 63.7751 47.8826 63.8864 47.8339C64.0011 47.7852 64.1003 47.7191 64.1838 47.6357C64.2672 47.5522 64.3333 47.4548 64.382 47.3435C64.4307 47.2322 64.4551 47.1139 64.4551 46.9887C64.4551 46.8635 64.4307 46.7452 64.382 46.6339C64.3333 46.5191 64.2672 46.42 64.1838 46.3365C64.1003 46.253 64.0011 46.187 63.8864 46.1383C63.7751 46.0896 63.6568 46.0652 63.5316 46.0652C63.4064 46.0652 63.2881 46.0896 63.1768 46.1383C63.0655 46.187 62.9681 46.253 62.8846 46.3365C62.8011 46.42 62.7351 46.5191 62.6864 46.6339C62.6377 46.7452 62.6133 46.8635 62.6133 46.9887ZM66.983 49.1696C66.983 48.9678 67.0404 48.8061 67.1552 48.6844C67.2769 48.5557 67.4491 48.4913 67.6717 48.4913C67.8978 48.4913 68.0735 48.5557 68.1987 48.6844C68.3169 48.8061 68.3761 48.9678 68.3761 49.1696C68.3761 49.3574 68.3169 49.5104 68.1987 49.6287C68.07 49.7539 67.8943 49.8165 67.6717 49.8165C67.4491 49.8165 67.2769 49.7539 67.1552 49.6287C67.0404 49.5139 66.983 49.3609 66.983 49.1696ZM72.3641 42.3139C72.4649 42.4148 72.5867 42.5383 72.7293 42.6844C72.8754 42.8304 73.0302 42.9939 73.1936 43.1748C73.3571 43.3557 73.5258 43.5522 73.6997 43.7644C73.8736 43.973 74.0423 44.1922 74.2058 44.4217C74.9676 45.493 75.3484 46.427 75.3484 47.2235C75.3484 47.5191 75.2997 47.8113 75.2023 48.1C75.1049 48.3852 74.971 48.6426 74.8006 48.8722C74.7171 48.9835 74.6145 49.0965 74.4928 49.2113C74.371 49.3226 74.2267 49.4252 74.0597 49.5191C73.8963 49.6096 73.7067 49.6844 73.491 49.7435C73.2754 49.7991 73.0319 49.827 72.7606 49.827C72.3363 49.827 71.9571 49.7539 71.6232 49.6078C71.2997 49.4652 71.0319 49.2722 70.8197 49.0287C70.6702 48.8583 70.5484 48.6757 70.4545 48.4809C70.3606 48.2826 70.2893 48.0844 70.2406 47.8861C70.1919 47.6878 70.1641 47.4948 70.1571 47.307C70.1536 47.2444 70.1519 47.1835 70.1519 47.1244C70.1519 47.0061 70.1589 46.8965 70.1728 46.7957C70.211 46.4722 70.298 46.1296 70.4336 45.7678C70.5693 45.4061 70.7467 45.0409 70.9658 44.6722C71.1119 44.4287 71.2667 44.1974 71.4302 43.9783C71.5936 43.7557 71.7641 43.5539 71.9415 43.373C71.8267 43.2513 71.7241 43.1487 71.6336 43.0652L72.3641 42.3139ZM72.7606 48.7783C73.2963 48.7783 73.6963 48.5991 73.9606 48.2409C74.0858 48.0739 74.1728 47.8983 74.2215 47.7139C74.2736 47.5261 74.2997 47.3626 74.2997 47.2235C74.2997 46.9417 74.2197 46.6165 74.0597 46.2478C73.9032 45.8757 73.6667 45.4687 73.3502 45.027C73.1276 44.7174 72.8963 44.4235 72.6562 44.1452C72.4893 44.3226 72.3258 44.5244 72.1658 44.7504C72.0058 44.973 71.8597 45.2078 71.7276 45.4548C71.5954 45.6983 71.4823 45.947 71.3884 46.2009C71.298 46.4513 71.2389 46.693 71.211 46.9261C71.2041 46.9817 71.2006 47.0478 71.2006 47.1244C71.2006 47.1522 71.2006 47.2026 71.2006 47.2757C71.2041 47.3452 71.218 47.4461 71.2423 47.5783C71.2702 47.707 71.3119 47.8391 71.3676 47.9748C71.4267 48.107 71.5067 48.227 71.6076 48.3348C71.7397 48.4913 71.8997 48.6044 72.0876 48.6739C72.2754 48.7435 72.4997 48.7783 72.7606 48.7783ZM80.0485 42.2513C80.0485 43.013 80.1215 43.7296 80.2676 44.4009C80.4172 45.0722 80.6102 45.7052 80.8467 46.3C81.0867 46.8948 81.3546 47.4531 81.6502 47.9748C81.9493 48.4965 82.2485 48.9887 82.5476 49.4513L81.6867 49.9835C81.2554 49.3296 80.8902 48.7122 80.5911 48.1313C80.292 47.547 80.038 46.9748 79.8293 46.4148C79.7946 46.3174 79.7615 46.2287 79.7302 46.1487C79.7024 46.0687 79.6763 45.9904 79.652 45.9139C79.6276 45.8374 79.6033 45.7591 79.5789 45.6791C79.5546 45.5991 79.5302 45.5087 79.5059 45.4078C79.3633 45.86 79.205 46.3122 79.0311 46.7644C78.8607 47.2165 78.685 47.6461 78.5041 48.0531C78.3267 48.4565 78.1511 48.8252 77.9772 49.1591C77.8067 49.4931 77.652 49.7678 77.5128 49.9835L76.652 49.4513C76.812 49.1417 76.9807 48.8183 77.158 48.4809C77.3354 48.14 77.5093 47.7852 77.6798 47.4165C77.8502 47.0444 78.0137 46.66 78.1702 46.2635C78.3267 45.8635 78.4659 45.4478 78.5876 45.0165C78.7093 44.5852 78.8085 44.14 78.885 43.6809C78.9615 43.2217 79.005 42.7452 79.0154 42.2513H80.0485ZM83.5697 42.9244C83.5697 42.413 83.7314 41.9922 84.0549 41.6617C84.3819 41.3278 84.8028 41.1609 85.3175 41.1609C85.8358 41.1609 86.2549 41.3278 86.5749 41.6617C86.8984 41.9957 87.0601 42.4287 87.0601 42.9609V43.3783C87.0601 43.893 86.8967 44.3139 86.5697 44.6409C86.2462 44.9678 85.8323 45.1313 85.328 45.1313C84.8201 45.1313 84.3993 44.9678 84.0654 44.6409C83.7349 44.3139 83.5697 43.8791 83.5697 43.3365V42.9244ZM84.3784 43.3783C84.3784 43.6809 84.4636 43.9313 84.6341 44.1296C84.808 44.3278 85.0393 44.427 85.328 44.427C85.6062 44.427 85.8288 44.3313 85.9958 44.14C86.1662 43.9487 86.2514 43.6861 86.2514 43.3522V42.9244C86.2514 42.6217 86.168 42.3713 86.001 42.1731C85.8341 41.9713 85.6062 41.8704 85.3175 41.8704C85.0254 41.8704 84.7958 41.9713 84.6288 42.1731C84.4619 42.3713 84.3784 42.6304 84.3784 42.9504V43.3783ZM87.7228 47.7244C87.7228 47.213 87.8862 46.7922 88.2132 46.4617C88.5401 46.1313 88.9593 45.9661 89.4706 45.9661C89.9819 45.9661 90.401 46.1313 90.728 46.4617C91.0584 46.7887 91.2236 47.2235 91.2236 47.7661V48.1835C91.2236 48.6948 91.0601 49.1157 90.7332 49.4461C90.4062 49.7765 89.9888 49.9417 89.481 49.9417C88.9732 49.9417 88.5523 49.7783 88.2184 49.4513C87.888 49.1244 87.7228 48.6896 87.7228 48.147V47.7244ZM88.5314 48.1835C88.5314 48.4896 88.6167 48.7417 88.7871 48.94C88.961 49.1383 89.1923 49.2374 89.481 49.2374C89.7628 49.2374 89.9871 49.1417 90.1541 48.9504C90.3245 48.7557 90.4097 48.4913 90.4097 48.1574V47.7244C90.4097 47.4148 90.3245 47.1626 90.1541 46.9678C89.9836 46.7731 89.7558 46.6757 89.4706 46.6757C89.1923 46.6757 88.9662 46.7731 88.7923 46.9678C88.6184 47.1591 88.5314 47.42 88.5314 47.7504V48.1835ZM85.5732 49.1696L84.9575 48.7835L89.1262 42.1157L89.7367 42.5017L85.5732 49.1696Z" fill="#66DC43"/>
<path d="M254.78 35.55C254.78 36.1196 254.658 36.663 254.415 37.1804C254.171 37.6978 253.848 38.1783 253.443 38.6217C253.043 39.0696 252.585 39.4783 252.067 39.8478C251.55 40.2174 251.017 40.5391 250.469 40.813L249.908 39.6587C250.221 39.4978 250.532 39.3196 250.841 39.1239C251.15 38.9326 251.441 38.7261 251.715 38.5043C251.989 38.2826 252.241 38.0478 252.471 37.8C252.702 37.5565 252.895 37.3 253.052 37.0304C253.213 36.7609 253.332 36.4804 253.411 36.1891C253.467 35.9804 253.495 35.7674 253.495 35.55C253.495 35.463 253.491 35.3826 253.482 35.3087C253.452 35.0609 253.404 34.7957 253.339 34.513C253.278 34.2261 253.211 33.9457 253.137 33.6717C253.063 33.3978 252.989 33.1413 252.915 32.9022C252.841 32.6587 252.778 32.4565 252.726 32.2957L253.952 31.9174C254.117 32.4217 254.278 32.8522 254.435 33.2087C254.591 33.5609 254.752 33.85 254.917 34.0761C255.082 34.2978 255.254 34.4609 255.432 34.5652C255.615 34.6696 255.815 34.7217 256.032 34.7217H256.137V36H256.026C255.965 36 255.887 35.9978 255.791 35.9935C255.695 35.9891 255.589 35.9717 255.471 35.9413C255.358 35.9109 255.241 35.863 255.119 35.7978C255.002 35.7326 254.889 35.6413 254.78 35.5239V35.55ZM261.708 34.7217V36H261.578C261.139 36 260.774 35.9261 260.482 35.7783C260.191 35.6261 259.952 35.4304 259.765 35.1913C259.626 35.3261 259.474 35.4457 259.308 35.55C259.143 35.65 258.948 35.7348 258.721 35.8043C258.495 35.8696 258.23 35.9196 257.926 35.9543C257.626 35.9848 257.271 36 256.863 36H255.891V34.7217H256.863C257.276 34.7217 257.628 34.6891 257.919 34.6239C258.215 34.5587 258.454 34.4609 258.637 34.3304C258.824 34.2 258.961 34.037 259.048 33.8413C259.135 33.6457 259.178 33.4174 259.178 33.1565C259.178 32.9087 259.158 32.6565 259.119 32.4C259.085 32.1435 259.019 31.85 258.924 31.5196L260.15 31.1739C260.193 31.3261 260.23 31.4739 260.261 31.6174C260.291 31.7565 260.317 31.9043 260.339 32.0609C260.361 32.2174 260.38 32.387 260.398 32.5696C260.419 32.7522 260.439 32.9587 260.456 33.1891C260.469 33.35 260.493 33.5196 260.528 33.6978C260.563 33.8761 260.619 34.0413 260.698 34.1935C260.78 34.3457 260.891 34.4717 261.03 34.5717C261.174 34.6717 261.356 34.7217 261.578 34.7217H261.708ZM258.161 38.1326L257.104 39.1891L256.035 38.1261L257.091 37.063L258.161 38.1326ZM260.835 38.1391L259.778 39.2022L258.708 38.1326L259.765 37.0761L260.835 38.1391ZM261.443 34.7217H261.58C261.762 34.7217 261.938 34.6804 262.108 34.5978C262.282 34.5152 262.443 34.4065 262.591 34.2717C262.743 34.1326 262.882 33.9783 263.008 33.8087C263.134 33.6348 263.245 33.4587 263.341 33.2804C263.441 33.0804 263.525 32.8848 263.595 32.6935C263.665 32.4978 263.723 32.3152 263.771 32.1457C263.823 31.9717 263.865 31.813 263.895 31.6696C263.925 31.5261 263.954 31.4022 263.98 31.2978L265.232 31.6435C265.206 31.7522 265.171 31.9043 265.128 32.1C265.088 32.2957 265.049 32.5087 265.01 32.7391C264.975 32.9652 264.952 33.1957 264.938 33.4304C264.934 33.5174 264.932 33.6 264.932 33.6783C264.932 33.8174 264.943 33.9674 264.965 34.1283C264.991 34.2848 265.049 34.4239 265.141 34.5457C265.236 34.6674 265.373 34.7283 265.552 34.7283C265.773 34.7283 265.971 34.6696 266.145 34.5522C266.323 34.4348 266.48 34.2804 266.615 34.0891C266.749 33.8978 266.865 33.6783 266.96 33.4304C267.056 33.1826 267.138 32.9304 267.208 32.6739C267.278 32.4174 267.332 32.1652 267.371 31.9174C267.415 31.6652 267.447 31.4391 267.469 31.2391L268.741 31.4804C268.719 31.6326 268.691 31.8174 268.656 32.0348C268.621 32.2522 268.595 32.4804 268.578 32.7196C268.56 32.8891 268.552 33.0587 268.552 33.2283C268.552 33.2978 268.554 33.4087 268.558 33.5609C268.567 33.713 268.599 33.8826 268.656 34.0696C268.717 34.2565 268.81 34.4087 268.936 34.5261C269.062 34.6435 269.234 34.7022 269.452 34.7022C269.66 34.7022 269.832 34.6413 269.967 34.5196C270.102 34.3935 270.208 34.2304 270.286 34.0304C270.369 33.8261 270.428 33.6 270.462 33.3522C270.497 33.1 270.519 32.8478 270.528 32.5957C270.532 32.4696 270.534 32.3457 270.534 32.2239C270.534 32.1022 270.53 31.9565 270.521 31.787C270.517 31.6174 270.51 31.4543 270.502 31.2978L271.78 31.1935C271.793 31.337 271.806 31.4826 271.819 31.6304C271.836 31.7739 271.856 31.9239 271.878 32.0804C271.904 32.237 271.934 32.4022 271.969 32.5761C272.008 32.75 272.06 32.9348 272.125 33.1304C272.299 33.6652 272.512 34.0652 272.765 34.3304C273.021 34.5913 273.306 34.7217 273.619 34.7217H273.775V36H273.619C273.393 36 273.171 35.9696 272.954 35.9087C272.736 35.8435 272.53 35.7522 272.334 35.6348C272.143 35.5174 271.967 35.3761 271.806 35.2109C271.645 35.0457 271.508 34.8587 271.395 34.65C271.308 34.8543 271.199 35.0391 271.069 35.2043C270.938 35.3696 270.788 35.5109 270.619 35.6283C270.454 35.7457 270.273 35.837 270.078 35.9022C269.882 35.9674 269.673 36 269.452 36C269.017 36 268.636 35.8891 268.31 35.6674C267.984 35.4413 267.741 35.1348 267.58 34.7478C267.462 34.9304 267.33 35.1 267.182 35.2565C267.038 35.4087 266.88 35.5435 266.706 35.6609C266.536 35.7739 266.354 35.863 266.158 35.9283C265.967 35.9891 265.765 36.0196 265.552 36.0196C265.347 36.0196 265.149 35.9891 264.958 35.9283C264.771 35.8674 264.602 35.7804 264.449 35.6674C264.297 35.5543 264.165 35.4174 264.052 35.2565C263.938 35.0957 263.854 34.9174 263.797 34.7217C263.662 34.913 263.519 35.087 263.367 35.2435C263.215 35.4 263.047 35.5348 262.865 35.6478C262.682 35.7565 262.484 35.8435 262.271 35.9087C262.062 35.9696 261.832 36 261.58 36H261.443V34.7217ZM273.513 34.7217H274.928C275.507 34.7217 276.085 34.6674 276.663 34.5587C277.241 34.4457 277.811 34.2978 278.372 34.1152C278.933 33.9326 279.481 33.7239 280.015 33.4891C280.55 33.2543 281.065 33.013 281.561 32.7652C281.261 32.6609 280.974 32.5478 280.7 32.4261C280.426 32.3043 280.157 32.1804 279.891 32.0543C279.687 31.9587 279.487 31.8674 279.291 31.7804C279.1 31.6891 278.913 31.6087 278.731 31.5391C278.552 31.4696 278.383 31.4152 278.222 31.3761C278.061 31.3326 277.913 31.3109 277.778 31.3109C277.6 31.3109 277.431 31.35 277.27 31.4283C277.109 31.5065 276.959 31.6065 276.82 31.7283C276.685 31.8457 276.563 31.9739 276.454 32.113C276.346 32.2478 276.252 32.3761 276.174 32.4978C276.096 32.6152 276.035 32.7152 275.991 32.7978C275.952 32.8761 275.933 32.9174 275.933 32.9217L274.759 32.3935C274.763 32.3848 274.781 32.3478 274.811 32.2826C274.846 32.213 274.894 32.1261 274.954 32.0217C275.02 31.9174 275.096 31.7978 275.183 31.663C275.274 31.5283 275.378 31.3913 275.496 31.2522C275.835 30.8435 276.194 30.537 276.572 30.3326C276.954 30.1283 277.357 30.0261 277.778 30.0261C277.987 30.0261 278.198 30.05 278.411 30.0978C278.628 30.1457 278.848 30.2109 279.07 30.2935C279.291 30.3717 279.517 30.463 279.748 30.5674C279.978 30.6717 280.211 30.7783 280.446 30.887C280.702 31.0087 280.961 31.1283 281.222 31.2457C281.487 31.363 281.752 31.4696 282.017 31.5652C282.283 31.6565 282.548 31.7304 282.813 31.787C283.078 31.8435 283.346 31.8717 283.615 31.8717L283.863 33.1109C283.559 33.237 283.257 33.3739 282.957 33.5217C282.657 33.6652 282.344 33.8174 282.017 33.9783C281.539 34.2174 281.024 34.4565 280.472 34.6957C279.924 34.9348 279.348 35.1522 278.744 35.3478C278.144 35.5391 277.522 35.6957 276.878 35.8174C276.235 35.9391 275.585 36 274.928 36H273.513V34.7217Z" fill="black" fill-opacity="0.6"/>
<defs>
<linearGradient id="paint0_linear_2_48" x1="163.248" y1="14.1093" x2="130.932" y2="67.2509" gradientUnits="userSpaceOnUse">
<stop stop-color="#66DC43" stop-opacity="0.3"/>
<stop offset="1" stop-color="#66DC43" stop-opacity="0"/>
</linearGradient>
</defs>
</svg>
