<svg width="38" height="38" viewBox="0 0 38 38" fill="none" xmlns="http://www.w3.org/2000/svg">
<circle cx="19" cy="19" r="18" fill="#CBD1EC"/>
<path d="M17.1 13.3H20.9V9.5H17.1M19 34.2C10.621 34.2 3.8 27.379 3.8 19C3.8 10.621 10.621 3.8 19 3.8C27.379 3.8 34.2 10.621 34.2 19C34.2 27.379 27.379 34.2 19 34.2ZM19 0C16.5049 0 14.0342 0.49145 11.729 1.44629C9.42383 2.40113 7.32928 3.80066 5.56497 5.56497C2.00178 9.12816 0 13.9609 0 19C0 24.0391 2.00178 28.8718 5.56497 32.435C7.32928 34.1993 9.42383 35.5989 11.729 36.5537C14.0342 37.5085 16.5049 38 19 38C24.0391 38 28.8718 35.9982 32.435 32.435C35.9982 28.8718 38 24.0391 38 19C38 16.5049 37.5085 14.0342 36.5537 11.729C35.5989 9.42383 34.1993 7.32928 32.435 5.56497C30.6707 3.80066 28.5762 2.40113 26.271 1.44629C23.9658 0.49145 21.4951 0 19 0ZM17.1 28.5H20.9V17.1H17.1V28.5Z" fill="#5164BF"/>
</svg>
