<svg width="40" height="40" viewBox="0 0 40 40" fill="none" xmlns="http://www.w3.org/2000/svg">
<path fill-rule="evenodd" clip-rule="evenodd" d="M18 17.5L5 31V35H9L11.5 32.5L10 30.5L12 28.5L13.5 30.5L15.5 28.5L13.5 26.5L15.5 25L17.5 27L22 22L26 22.5L29.5 21.5L32.5 19.5L34 17.5L34.5 15.5V11.5L33.5 8.5L31 6.5L28 5H25L21.5 6.5L19 9.5L17.5 13L18 17.5ZM29 10.5L30 12L29.5 14L28 15L26 14.5L25 13L25.5 11L27 10L29 10.5Z" fill="#CBD1EC" stroke="#CBD1EC"/>
<path d="M26.25 2.5C24.4932 2.4996 22.7608 2.91071 21.1916 3.70039C19.6223 4.49007 18.2598 5.63635 17.2133 7.0474C16.1668 8.45844 15.4654 10.095 15.1653 11.8259C14.8652 13.5568 14.9746 15.334 15.485 17.015L2.5 30V37.5H10L22.985 24.515C24.5324 24.9847 26.1628 25.1153 27.7652 24.8978C29.3676 24.6804 30.9044 24.1201 32.2706 23.2551C33.6369 22.39 34.8006 21.2406 35.6825 19.8851C36.5644 18.5297 37.1437 17 37.3809 15.4004C37.6181 13.8008 37.5077 12.1689 37.0572 10.6158C36.6067 9.06273 35.8267 7.62504 34.7703 6.4007C33.7139 5.17636 32.4059 4.19415 30.9356 3.52101C29.4653 2.84787 27.8671 2.49963 26.25 2.5ZM26.25 22.5C25.3894 22.4995 24.5335 22.3723 23.71 22.1225L22.2763 21.6875L21.2175 22.7463L17.2413 26.7225L15.5175 25L13.75 26.7675L15.4738 28.4912L13.4913 30.4737L11.7675 28.75L10 30.5175L11.7238 32.2412L8.965 35H5V31.035L17.2525 18.7825L18.3125 17.7237L17.8775 16.29C17.3432 14.5287 17.3779 12.6439 17.9767 10.9035C18.5754 9.16306 19.7078 7.65578 21.2125 6.59603C22.7173 5.53628 24.518 4.97802 26.3584 5.00066C28.1987 5.0233 29.9851 5.6257 31.4634 6.72215C32.9417 7.8186 34.0365 9.35328 34.5923 11.1079C35.148 12.8625 35.1364 14.7476 34.5589 16.4952C33.9815 18.2428 32.8677 19.7638 31.3759 20.8419C29.8842 21.9199 28.0905 22.5002 26.25 22.5Z" fill="#6778C7"/>
<path d="M27.5 15C28.8807 15 30 13.8807 30 12.5C30 11.1193 28.8807 10 27.5 10C26.1193 10 25 11.1193 25 12.5C25 13.8807 26.1193 15 27.5 15Z" fill="#5164BF"/>
</svg>
