<svg width="39" height="39" viewBox="0 0 39 39" fill="none" xmlns="http://www.w3.org/2000/svg">
<path d="M19.4812 0.75C9.13125 0.75 0.75 9.15 0.75 19.5C0.75 29.85 9.13125 38.25 19.4812 38.25C29.85 38.25 38.25 29.85 38.25 19.5C38.25 9.15 29.85 0.75 19.4812 0.75ZM32.475 12H26.9438C26.3569 9.67773 25.488 7.43605 24.3563 5.325C27.7765 6.5025 30.6584 8.87198 32.475 12ZM19.5 4.575C21.0562 6.825 22.275 9.31875 23.0812 12H15.9188C16.725 9.31875 17.9438 6.825 19.5 4.575ZM4.9875 23.25C4.6875 22.05 4.5 20.7938 4.5 19.5C4.5 18.2062 4.6875 16.95 4.9875 15.75H11.325C11.175 16.9875 11.0625 18.225 11.0625 19.5C11.0625 20.775 11.175 22.0125 11.325 23.25H4.9875ZM6.525 27H12.0562C12.6562 29.3438 13.5187 31.5937 14.6437 33.675C11.2199 32.5039 8.33594 30.1328 6.525 27ZM12.0562 12H6.525C8.33594 8.86721 11.2199 6.49607 14.6437 5.325C13.512 7.43605 12.6431 9.67773 12.0562 12ZM19.5 34.425C17.9438 32.175 16.725 29.6812 15.9188 27H23.0812C22.275 29.6812 21.0562 32.175 19.5 34.425ZM23.8875 23.25H15.1125C14.9437 22.0125 14.8125 20.775 14.8125 19.5C14.8125 18.225 14.9437 16.9688 15.1125 15.75H23.8875C24.0562 16.9688 24.1875 18.225 24.1875 19.5C24.1875 20.775 24.0562 22.0125 23.8875 23.25ZM24.3563 33.675C25.4813 31.5937 26.3438 29.3438 26.9438 27H32.475C30.6584 30.128 27.7765 32.4975 24.3563 33.675ZM27.675 23.25C27.825 22.0125 27.9375 20.775 27.9375 19.5C27.9375 18.225 27.825 16.9875 27.675 15.75H34.0125C34.3125 16.95 34.5 18.2062 34.5 19.5C34.5 20.7938 34.3125 22.05 34.0125 23.25H27.675Z" fill="#5164BF"/>
</svg>
