<svg width="58" height="56" viewBox="0 0 58 56" fill="none" xmlns="http://www.w3.org/2000/svg">
<ellipse cx="28.7821" cy="27.8214" rx="28.2857" ry="27.8214" fill="#DBE3F8"/>
<path d="M19.5394 30.1399C20.1903 30.1399 20.718 29.6209 20.718 28.9806C20.718 28.3404 20.1903 27.8214 19.5394 27.8214C18.8885 27.8214 18.3608 28.3404 18.3608 28.9806C18.3608 29.6209 18.8885 30.1399 19.5394 30.1399Z" stroke="#031952" stroke-width="4"/>
<path d="M28.9681 30.1399C29.619 30.1399 30.1467 29.6209 30.1467 28.9806C30.1467 28.3404 29.619 27.8214 28.9681 27.8214C28.3172 27.8214 27.7896 28.3404 27.7896 28.9806C27.7896 29.6209 28.3172 30.1399 28.9681 30.1399Z" stroke="#031952" stroke-width="4"/>
<path d="M38.3966 30.1399C39.0475 30.1399 39.5752 29.6209 39.5752 28.9806C39.5752 28.3404 39.0475 27.8214 38.3966 27.8214C37.7457 27.8214 37.218 28.3404 37.218 28.9806C37.218 29.6209 37.7457 30.1399 38.3966 30.1399Z" stroke="#031952" stroke-width="4"/>
</svg>
