<svg width="58" height="56" viewBox="0 0 58 56" fill="none" xmlns="http://www.w3.org/2000/svg">
<ellipse cx="29.1654" cy="27.8214" rx="28.2857" ry="27.8214" fill="#DBE3F8"/>
<path d="M36.4385 15.375C37.1104 15.3749 37.7574 15.6257 38.2485 16.0768C38.7397 16.5278 39.0384 17.1454 39.0844 17.8047L39.0903 17.9821V35.9478C39.0904 36.6087 38.8354 37.245 38.3768 37.7281C37.9183 38.2112 37.2904 38.505 36.62 38.5503L36.4385 38.556H22.8849C22.213 38.5561 21.5661 38.3053 21.0749 37.8543C20.5838 37.4033 20.285 36.7857 20.239 36.1263L20.2332 35.9501V17.9833C20.2331 17.3224 20.4881 16.6861 20.9466 16.203C21.4052 15.7199 22.0331 15.426 22.7034 15.3808L22.8849 15.375H36.4385ZM36.4385 17.1138H22.8849C22.6713 17.1138 22.465 17.1899 22.304 17.328C22.143 17.4661 22.0383 17.6569 22.0093 17.865L22.001 17.9833V35.9489C22.001 36.3895 22.3334 36.7535 22.7647 36.8103L22.8849 36.8184H36.4385C36.6521 36.8184 36.8585 36.7423 37.0195 36.6042C37.1804 36.4661 37.2851 36.2753 37.3142 36.0672L37.3224 35.9489V17.9833C37.3224 17.7732 37.2451 17.5702 37.1047 17.4118C36.9643 17.2535 36.7703 17.1505 36.5587 17.122L36.4385 17.1127V17.1138ZM29.954 28.1219C30.1796 28.1196 30.3975 28.2022 30.5631 28.3529C30.7287 28.5035 30.8295 28.7107 30.8449 28.932C30.8602 29.1534 30.789 29.3721 30.6457 29.5435C30.5024 29.7148 30.298 29.8258 30.0742 29.8537L29.954 29.8607H24.6528C24.4288 29.8606 24.2133 29.7769 24.0496 29.6266C23.886 29.4762 23.7865 29.2703 23.7712 29.0505C23.7559 28.8308 23.826 28.6135 23.9674 28.4426C24.1087 28.2717 24.3107 28.16 24.5326 28.13L24.6528 28.1219H29.954ZM34.6707 24.6477C34.8946 24.6477 35.1102 24.7314 35.2738 24.8818C35.4375 25.0322 35.537 25.238 35.5523 25.4578C35.5675 25.6776 35.4974 25.8949 35.3561 26.0657C35.2147 26.2366 35.0127 26.3483 34.7909 26.3784L34.6707 26.3865H24.6528C24.4272 26.3887 24.2094 26.3061 24.0437 26.1555C23.8781 26.0049 23.7773 25.7977 23.7619 25.5763C23.7466 25.355 23.8178 25.1362 23.9611 24.9649C24.1044 24.7935 24.3088 24.6825 24.5326 24.6546L24.6528 24.6477H34.6707ZM34.6707 21.1711C34.8946 21.1712 35.1102 21.2549 35.2738 21.4053C35.4375 21.5556 35.537 21.7615 35.5523 21.9813C35.5675 22.2011 35.4974 22.4183 35.3561 22.5892C35.2147 22.7601 35.0127 22.8718 34.7909 22.9019L34.6707 22.91H24.6528C24.4288 22.9099 24.2133 22.8262 24.0496 22.6758C23.886 22.5255 23.7865 22.3196 23.7712 22.0998C23.7559 21.88 23.826 21.6628 23.9674 21.4919C24.1087 21.321 24.3107 21.2093 24.5326 21.1792L24.6528 21.17H34.6707V21.1711Z" fill="#031952" fill-opacity="0.86"/>
</svg>
