<svg width="58" height="56" viewBox="0 0 58 56" fill="none" xmlns="http://www.w3.org/2000/svg">
<ellipse cx="29.0902" cy="27.8214" rx="28.2857" ry="27.8214" fill="#DBE3F8"/>
<path d="M29.43 34.3167V26.59M29.43 26.59L25.3886 29.1656M29.43 26.59L33.4714 29.1656M38.86 22.7267L32.1243 22.7267C31.3803 22.7267 30.7771 22.1501 30.7771 21.4389V15M21.3471 38.18H37.5129C38.2569 38.18 38.86 37.6034 38.86 36.8922L38.86 22.4586C38.86 22.1342 38.7319 21.8218 38.5013 21.5837L32.5242 15.4129C32.2692 15.1496 31.911 15 31.5357 15L21.3471 15C20.6031 15 20 15.5766 20 16.2878L20 36.8922C20 37.6034 20.6031 38.18 21.3471 38.18Z" stroke="#213569" stroke-width="2" stroke-linecap="round" stroke-linejoin="round"/>
</svg>
