<svg width="32" height="36" viewBox="0 0 32 36" fill="none" xmlns="http://www.w3.org/2000/svg">
<path d="M16.0001 16.8C17.7041 16.8 19.3698 16.3074 20.7866 15.3843C22.2034 14.4613 23.3076 13.1494 23.9597 11.6145C24.6118 10.0796 24.7824 8.39069 24.45 6.76124C24.1175 5.1318 23.297 3.63507 22.0921 2.46031C20.8872 1.28555 19.3521 0.485523 17.6809 0.161407C16.0097 -0.162708 14.2774 0.00363958 12.7032 0.639416C11.1289 1.27519 9.78339 2.35184 8.83672 3.73321C7.89005 5.11459 7.38477 6.73864 7.38477 8.4C7.38477 10.6278 8.29245 12.7644 9.90815 14.3397C11.5238 15.915 13.7152 16.8 16.0001 16.8ZM16.0001 2.4C17.2172 2.4 18.407 2.7519 19.419 3.41119C20.431 4.07047 21.2198 5.00755 21.6855 6.1039C22.1513 7.20026 22.2732 8.40666 22.0357 9.57054C21.7983 10.7344 21.2122 11.8035 20.3516 12.6426C19.4909 13.4818 18.3944 14.0532 17.2007 14.2847C16.007 14.5162 14.7696 14.3974 13.6452 13.9433C12.5207 13.4892 11.5596 12.7201 10.8834 11.7334C10.2072 10.7467 9.8463 9.58669 9.8463 8.4C9.8463 6.8087 10.4946 5.28258 11.6487 4.15736C12.8028 3.03214 14.368 2.4 16.0001 2.4Z" fill="#5164BF"/>
<path d="M31.3476 25.644C29.3739 23.61 26.9954 21.9899 24.3575 20.8827C21.7197 19.7754 18.878 19.2043 16.0061 19.2043C13.1342 19.2043 10.2925 19.7754 7.65471 20.8827C5.01689 21.9899 2.63839 23.61 0.664617 25.644C0.236695 26.0896 -0.000968506 26.6775 2.96652e-06 27.288V33.6C2.96652e-06 34.2365 0.259342 34.847 0.720969 35.2971C1.1826 35.7472 1.8087 36 2.46154 36H29.5384C30.1912 36 30.8173 35.7472 31.279 35.2971C31.7406 34.847 31.9999 34.2365 31.9999 33.6V27.288C32.0043 26.6792 31.7711 26.0915 31.3476 25.644ZM29.5384 33.6H2.46154V27.276C4.20581 25.4852 6.30558 24.0592 8.63304 23.0848C10.9605 22.1103 13.467 21.6078 16 21.6078C18.5329 21.6078 21.0394 22.1103 23.3669 23.0848C25.6944 24.0592 27.7941 25.4852 29.5384 27.276V33.6Z" fill="#5164BF"/>
</svg>
