<svg width="372" height="67" viewBox="0 0 372 67" fill="none" xmlns="http://www.w3.org/2000/svg">
<rect width="372" height="65.9817" rx="10" transform="matrix(-1 0 0 1 372 0.0458984)" fill="white"/>
<path d="M169.505 14.418C173.145 9.36288 178.606 8.86503 180.881 9.24799V56.9267H118.312V44.8634C120.018 44.4804 124.341 43.5996 127.982 43.1401C132.532 42.5656 130.826 36.2468 134.239 35.0979C137.652 33.949 136.514 31.6512 139.927 30.5023C143.34 29.3535 150.165 33.949 153.578 30.5023C156.991 27.0557 156.991 28.2046 164.385 29.3535C171.78 30.5023 164.954 20.7368 169.505 14.418Z" fill="url(#paint0_linear_2_48)"/>
<path d="M180.881 9.24799C178.606 8.86503 173.145 9.36288 169.505 14.418C164.954 20.7368 171.78 30.5023 164.385 29.3535C156.991 28.2046 156.991 27.0557 153.578 30.5023C150.165 33.949 143.34 29.3535 139.927 30.5023C136.514 31.6512 137.652 33.949 134.239 35.0979C130.826 36.2468 132.532 42.5656 127.982 43.1401C124.341 43.5996 120.018 44.4804 118.312 44.8634" stroke="#E62E2E" stroke-width="2" stroke-linecap="round"/>
<path d="M55.7123 46.267H52.8532V45.3852H55.7123V46.267ZM57.7609 49.5852C57.7609 48.907 57.7487 48.2339 57.7244 47.5661C57.7 46.8948 57.6461 46.2513 57.5626 45.6357C57.4792 45.02 57.3592 44.4444 57.2026 43.9087C57.0496 43.3731 56.8426 42.9 56.5818 42.4896L57.4479 41.9365C57.7331 42.3922 57.9696 42.9192 58.1574 43.5174C58.3487 44.1122 58.4948 44.7922 58.5957 45.5574C58.6374 45.8844 58.6705 46.2218 58.6948 46.5696C58.7226 46.9174 58.7435 47.2652 58.7574 47.6131C58.7748 47.9574 58.7853 48.2965 58.7887 48.6305C58.7957 48.9644 58.7992 49.2826 58.7992 49.5852H57.7609ZM64.5258 41.8218C64.5258 41.8287 64.531 41.8635 64.5414 41.9261C64.5519 41.9852 64.5623 42.0652 64.5727 42.1661C64.5832 42.2635 64.5919 42.3748 64.5988 42.5C64.6023 42.587 64.604 42.6757 64.604 42.7661V42.9018C64.5901 43.7052 64.4005 44.3209 64.0353 44.7487V44.7435C63.6805 45.1713 63.1988 45.3852 62.5901 45.3852C62.4232 45.3852 62.2719 45.3748 62.1362 45.3539C62.004 45.3296 61.8719 45.2913 61.7397 45.2392L61.7814 45.5261C61.8232 45.8531 61.8562 46.1905 61.8805 46.5383C61.9084 46.8826 61.9292 47.2287 61.9432 47.5765C61.9605 47.9209 61.971 48.2618 61.9745 48.5992C61.9814 48.9331 61.9849 49.2513 61.9849 49.5539H60.9466C60.9466 49.0009 60.9414 48.4513 60.931 47.9052C60.9205 47.3557 60.8927 46.8235 60.8475 46.3087C60.8023 45.7905 60.7345 45.2965 60.644 44.827C60.5571 44.3539 60.4353 43.9192 60.2788 43.5226C60.2058 43.3348 60.1275 43.1557 60.044 42.9852C59.9605 42.8148 59.8666 42.6392 59.7623 42.4583L60.6336 41.9052C60.6892 41.9957 60.7397 42.0878 60.7849 42.1818C60.8336 42.2722 60.8805 42.3678 60.9258 42.4687C60.9745 42.5661 61.0232 42.6705 61.0719 42.7818C61.1205 42.8931 61.1745 43.0131 61.2336 43.1418C61.3136 43.3261 61.3919 43.4931 61.4684 43.6426C61.5484 43.7887 61.6388 43.9157 61.7397 44.0235C61.844 44.1313 61.9623 44.2148 62.0945 44.2739C62.2301 44.3296 62.3953 44.3574 62.5901 44.3574C62.8788 44.3574 63.0962 44.2687 63.2423 44.0913C63.3084 44.0148 63.3623 43.9261 63.404 43.8252C63.4458 43.7209 63.4788 43.6113 63.5032 43.4965C63.531 43.3818 63.5501 43.2635 63.5605 43.1418C63.571 43.02 63.5762 42.9018 63.5762 42.787C63.5762 42.6374 63.5675 42.4931 63.5501 42.3539C63.5362 42.2148 63.5205 42.1 63.5032 42.0096L64.5258 41.8218ZM66.2763 48.8026C66.2763 48.6009 66.3337 48.4392 66.4485 48.3174C66.5702 48.1887 66.7424 48.1244 66.965 48.1244C67.1911 48.1244 67.3668 48.1887 67.492 48.3174C67.6102 48.4392 67.6694 48.6009 67.6694 48.8026C67.6694 48.9905 67.6102 49.1435 67.492 49.2618C67.3633 49.387 67.1876 49.4496 66.965 49.4496C66.7424 49.4496 66.5702 49.387 66.4485 49.2618C66.3337 49.147 66.2763 48.9939 66.2763 48.8026ZM71.6991 49.5696C71.6991 48.7974 71.6243 48.0722 71.4748 47.3939C71.3287 46.7157 71.1356 46.0774 70.8956 45.4791C70.6591 44.8774 70.3913 44.3139 70.0922 43.7887C69.7965 43.26 69.4991 42.7609 69.2 42.2913L70.0608 41.7539C70.2765 42.0878 70.4748 42.4096 70.6556 42.7192C70.8365 43.0287 71.0035 43.3331 71.1565 43.6322C71.3095 43.9278 71.4487 44.2183 71.5739 44.5035C71.6991 44.7887 71.8139 45.0739 71.9182 45.3592C71.953 45.46 71.9843 45.5505 72.0122 45.6305C72.0435 45.7105 72.0713 45.7887 72.0956 45.8652C72.12 45.9418 72.1443 46.0218 72.1687 46.1052C72.193 46.1852 72.2174 46.2757 72.2417 46.3765C72.3843 45.9209 72.5426 45.4652 72.7165 45.0096C72.8904 44.5505 73.0661 44.1174 73.2435 43.7105C73.4208 43.3 73.5948 42.9261 73.7652 42.5887C73.9391 42.2513 74.0956 41.9731 74.2348 41.7539L75.0956 42.2913C74.9356 42.6044 74.7669 42.9331 74.5895 43.2774C74.4122 43.6218 74.2382 43.98 74.0678 44.3522C73.8974 44.7244 73.7339 45.1122 73.5774 45.5157C73.4208 45.9192 73.2817 46.3383 73.16 46.7731C73.0382 47.2078 72.9391 47.6583 72.8626 48.1244C72.7861 48.5905 72.7426 49.0722 72.7322 49.5696H71.6991ZM80.5922 41.8218C80.5922 41.8287 80.5974 41.8635 80.6078 41.9261C80.6183 41.9852 80.6287 42.0652 80.6391 42.1661C80.6496 42.2635 80.6583 42.3748 80.6652 42.5C80.6687 42.587 80.6704 42.6757 80.6704 42.7661V42.9018C80.6565 43.7052 80.467 44.3209 80.1017 44.7487V44.7435C79.747 45.1713 79.2652 45.3852 78.6565 45.3852C78.4896 45.3852 78.3383 45.3748 78.2026 45.3539C78.0704 45.3296 77.9383 45.2913 77.8061 45.2392L77.8478 45.5261C77.8896 45.8531 77.9226 46.1905 77.947 46.5383C77.9748 46.8826 77.9957 47.2287 78.0096 47.5765C78.027 47.9209 78.0374 48.2618 78.0409 48.5992C78.0478 48.9331 78.0513 49.2513 78.0513 49.5539H77.013C77.013 49.0009 77.0078 48.4513 76.9974 47.9052C76.987 47.3557 76.9591 46.8235 76.9139 46.3087C76.8687 45.7905 76.8009 45.2965 76.7104 44.827C76.6235 44.3539 76.5017 43.9192 76.3452 43.5226C76.2722 43.3348 76.1939 43.1557 76.1104 42.9852C76.027 42.8148 75.933 42.6392 75.8287 42.4583L76.7 41.9052C76.7557 41.9957 76.8061 42.0878 76.8513 42.1818C76.9 42.2722 76.947 42.3678 76.9922 42.4687C77.0409 42.5661 77.0896 42.6705 77.1383 42.7818C77.187 42.8931 77.2409 43.0131 77.3 43.1418C77.38 43.3261 77.4583 43.4931 77.5348 43.6426C77.6148 43.7887 77.7052 43.9157 77.8061 44.0235C77.9104 44.1313 78.0287 44.2148 78.1609 44.2739C78.2965 44.3296 78.4617 44.3574 78.6565 44.3574C78.9452 44.3574 79.1626 44.2687 79.3087 44.0913C79.3748 44.0148 79.4287 43.9261 79.4704 43.8252C79.5122 43.7209 79.5452 43.6113 79.5696 43.4965C79.5974 43.3818 79.6165 43.2635 79.627 43.1418C79.6374 43.02 79.6426 42.9018 79.6426 42.787C79.6426 42.6374 79.6339 42.4931 79.6165 42.3539C79.6026 42.2148 79.587 42.1 79.5696 42.0096L80.5922 41.8218ZM82.0193 42.5574C82.0193 42.0461 82.181 41.6252 82.5045 41.2948C82.8314 40.9609 83.2523 40.7939 83.7671 40.7939C84.2853 40.7939 84.7045 40.9609 85.0245 41.2948C85.3479 41.6287 85.5097 42.0618 85.5097 42.5939V43.0113C85.5097 43.5261 85.3462 43.947 85.0193 44.2739C84.6958 44.6009 84.2819 44.7644 83.7775 44.7644C83.2697 44.7644 82.8488 44.6009 82.5149 44.2739C82.1845 43.947 82.0193 43.5122 82.0193 42.9696V42.5574ZM82.8279 43.0113C82.8279 43.3139 82.9132 43.5644 83.0836 43.7626C83.2575 43.9609 83.4888 44.06 83.7775 44.06C84.0558 44.06 84.2784 43.9644 84.4453 43.7731C84.6158 43.5818 84.701 43.3191 84.701 42.9852V42.5574C84.701 42.2548 84.6175 42.0044 84.4506 41.8061C84.2836 41.6044 84.0558 41.5035 83.7671 41.5035C83.4749 41.5035 83.2453 41.6044 83.0784 41.8061C82.9114 42.0044 82.8279 42.2635 82.8279 42.5835V43.0113ZM86.1723 47.3574C86.1723 46.8461 86.3358 46.4252 86.6627 46.0948C86.9897 45.7644 87.4088 45.5992 87.9201 45.5992C88.4314 45.5992 88.8506 45.7644 89.1775 46.0948C89.5079 46.4218 89.6732 46.8565 89.6732 47.3992V47.8165C89.6732 48.3278 89.5097 48.7487 89.1827 49.0792C88.8558 49.4096 88.4384 49.5748 87.9306 49.5748C87.4227 49.5748 87.0019 49.4113 86.6679 49.0844C86.3375 48.7574 86.1723 48.3226 86.1723 47.78V47.3574ZM86.981 47.8165C86.981 48.1226 87.0662 48.3748 87.2366 48.5731C87.4106 48.7713 87.6419 48.8705 87.9306 48.8705C88.2123 48.8705 88.4366 48.7748 88.6036 48.5835C88.774 48.3887 88.8593 48.1244 88.8593 47.7905V47.3574C88.8593 47.0478 88.774 46.7957 88.6036 46.6009C88.4332 46.4061 88.2053 46.3087 87.9201 46.3087C87.6419 46.3087 87.4158 46.4061 87.2419 46.6009C87.0679 46.7922 86.981 47.0531 86.981 47.3835V47.8165ZM84.0227 48.8026L83.4071 48.4165L87.5758 41.7487L88.1862 42.1348L84.0227 48.8026Z" fill="#E62E2E"/>
<path d="M31.2192 30.9365C31.1624 31.0258 31.1056 31.1252 31.0488 31.2348C30.9961 31.3403 30.9474 31.4559 30.9027 31.5817C30.8216 31.8009 30.7465 32.0687 30.6775 32.3852C30.6126 32.6977 30.5801 33.069 30.5801 33.4991C30.5801 33.767 30.6146 34.0084 30.6836 34.2235C30.7566 34.4426 30.852 34.6354 30.9697 34.8017C31.0914 34.9681 31.2294 35.1122 31.3836 35.2339C31.5418 35.3557 31.7042 35.4551 31.8705 35.5322C32.0369 35.6133 32.2013 35.6742 32.3636 35.7148C32.53 35.7594 32.6842 35.7858 32.8262 35.7939C32.8789 35.798 32.9297 35.8 32.9784 35.8C33.1366 35.8 33.3132 35.7838 33.5079 35.7513C33.7068 35.7229 33.9158 35.6661 34.1349 35.5809C34.354 35.4957 34.563 35.382 34.7618 35.24C34.9607 35.098 35.1352 34.9235 35.2853 34.7165C35.4395 34.5136 35.5613 34.2762 35.6505 34.0043C35.7439 33.7365 35.7905 33.4301 35.7905 33.0852C35.7905 32.7646 35.7845 32.3852 35.7723 31.947C35.7642 31.5087 35.752 31.04 35.7358 30.5409C35.7236 30.0417 35.7074 29.5284 35.6871 29.0009C35.6668 28.4693 35.6465 27.9519 35.6262 27.4487C35.6059 26.8562 35.5816 26.2536 35.5532 25.6409C35.5288 25.0241 35.5004 24.391 35.4679 23.7417L36.661 23.693C36.6934 24.3464 36.7218 24.9835 36.7462 25.6043C36.7746 26.2212 36.7989 26.8278 36.8192 27.4243C36.8395 27.9316 36.8598 28.451 36.8801 28.9826C36.9004 29.5142 36.9166 30.0316 36.9288 30.5348C36.945 31.0339 36.9572 31.5046 36.9653 31.947C36.9775 32.3852 36.9836 32.7646 36.9836 33.0852C36.9836 33.5965 36.9187 34.049 36.7888 34.4426C36.6589 34.8403 36.4845 35.1852 36.2653 35.4774C36.0503 35.7736 35.8007 36.0212 35.5166 36.22C35.2366 36.4188 34.9424 36.5771 34.634 36.6948C34.3256 36.8165 34.0152 36.8997 33.7027 36.9443C33.4755 36.9768 33.2563 36.993 33.0453 36.993C32.9723 36.993 32.8992 36.991 32.8262 36.987C32.5787 36.9748 32.321 36.9362 32.0532 36.8713C31.7894 36.8064 31.5297 36.713 31.274 36.5913C31.0184 36.4696 30.7749 36.3154 30.5436 36.1287C30.3163 35.9461 30.1155 35.727 29.941 35.4713C29.7665 35.2157 29.6305 34.9235 29.5332 34.5948C29.4358 34.2823 29.3871 33.9333 29.3871 33.5478V33.4991C29.3911 32.9716 29.4317 32.5191 29.5088 32.1417C29.5859 31.7643 29.6711 31.4478 29.7645 31.1922C29.87 30.8959 29.9917 30.6484 30.1297 30.4496L31.2192 30.9365ZM40.8914 31.807H41.5975C41.8329 31.807 42.05 31.8029 42.2488 31.7948C42.4476 31.7826 42.6282 31.7522 42.7905 31.7035C42.9529 31.6548 43.0949 31.5838 43.2166 31.4904C43.3384 31.393 43.4398 31.2591 43.521 31.0887C43.5616 31.0035 43.592 30.8959 43.6123 30.7661C43.6245 30.6809 43.6305 30.5896 43.6305 30.4922C43.6305 30.4394 43.6265 30.3603 43.6184 30.2548C43.6103 30.1452 43.5839 29.9971 43.5392 29.8104C43.4946 29.6197 43.4297 29.4209 43.3445 29.2139L42.8149 27.9113L43.8984 27.3757C43.8984 27.3797 43.9166 27.4223 43.9532 27.5035C43.9897 27.5806 44.0363 27.6861 44.0932 27.82C44.154 27.9539 44.219 28.1101 44.2879 28.2887C44.3569 28.4632 44.4218 28.6499 44.4827 28.8487C44.6653 29.4371 44.7708 29.9565 44.7992 30.407C44.8033 30.4719 44.8053 30.5368 44.8053 30.6017C44.8053 30.971 44.7445 31.2957 44.6227 31.5757C44.501 31.8516 44.3508 32.0809 44.1723 32.2635C43.9978 32.4461 43.7949 32.5922 43.5636 32.7017C43.3323 32.8113 43.0726 32.8884 42.7845 32.933C42.5004 32.9777 42.192 33 41.8592 33H40.8914V31.807ZM47.8245 29.0435C47.8813 29.2342 47.9381 29.4229 47.9949 29.6096C48.0517 29.7922 48.1024 29.9768 48.1471 30.1635C48.1958 30.3583 48.2445 30.5551 48.2932 30.7539C48.3459 30.9487 48.3926 31.1435 48.4332 31.3383C48.4778 31.529 48.5143 31.7177 48.5427 31.9043C48.5711 32.091 48.5853 32.2736 48.5853 32.4522C48.5853 32.8052 48.5326 33.1461 48.4271 33.4748C48.3256 33.8075 48.1816 34.1281 47.9949 34.4365C47.8123 34.7449 47.5932 35.0391 47.3375 35.3191C47.0859 35.5991 46.81 35.8629 46.5097 36.1104C46.2134 36.358 45.899 36.5852 45.5662 36.7922C45.2375 37.0032 44.9027 37.1919 44.5618 37.3583L44.0323 36.287C44.4584 36.0759 44.8723 35.8304 45.274 35.5504C45.6758 35.2745 46.0329 34.9722 46.3453 34.6435C46.6618 34.3148 46.9155 33.9658 47.1062 33.5965C47.2969 33.2272 47.3923 32.8458 47.3923 32.4522C47.3923 32.302 47.3781 32.1438 47.3497 31.9774C47.3253 31.811 47.2929 31.6406 47.2523 31.4661C47.2117 31.2916 47.1671 31.1171 47.1184 30.9426C47.0697 30.7681 47.023 30.5977 46.9784 30.4313C46.881 30.0904 46.7775 29.7496 46.6679 29.4087L47.8245 29.0435ZM40.8853 33C40.4389 33 40.0575 32.9472 39.741 32.8417C39.4285 32.7362 39.1627 32.5739 38.9436 32.3548C38.8097 32.2209 38.7062 32.0768 38.6332 31.9226C38.5642 31.7684 38.5114 31.6162 38.4749 31.4661C38.4424 31.3159 38.4242 31.1739 38.4201 31.04C38.4161 30.902 38.414 30.7843 38.414 30.687C38.414 30.6545 38.414 30.5591 38.414 30.4009C38.4181 30.2386 38.4221 30.0316 38.4262 29.78C38.4303 29.5284 38.4323 29.2403 38.4323 28.9157C38.4323 28.5951 38.4303 28.2562 38.4262 27.8991C38.4262 27.5501 38.4221 27.187 38.414 26.8096C38.4059 26.4322 38.3917 26.067 38.3714 25.7139C38.3552 25.3609 38.3329 25.0362 38.3045 24.74C38.2801 24.4397 38.2497 24.1942 38.2132 24.0035L39.4062 23.7843C39.4427 23.9913 39.4732 24.2449 39.4975 24.5452C39.5259 24.8455 39.5482 25.1722 39.5645 25.5252C39.5847 25.8783 39.5989 26.2475 39.6071 26.633C39.6192 27.0145 39.6253 27.3878 39.6253 27.753V30.8087C39.6253 30.9467 39.6314 31.0765 39.6436 31.1983C39.6598 31.3159 39.7146 31.4194 39.8079 31.5087C39.9013 31.602 40.0392 31.6751 40.2218 31.7278C40.4085 31.7806 40.6297 31.807 40.8853 31.807H41.0071V33H40.8853ZM41.1653 34.9904L40.1792 35.9765L39.181 34.9843L40.1671 33.9922L41.1653 34.9904ZM43.661 34.9965L42.6749 35.9887L41.6766 34.9904L42.6627 34.0043L43.661 34.9965ZM55.4224 33.1583C55.4224 32.367 55.4082 31.5817 55.3798 30.8026C55.3514 30.0194 55.2885 29.2687 55.1911 28.5504C55.0937 27.8322 54.9537 27.1606 54.7711 26.5357C54.5925 25.9107 54.3511 25.3588 54.0467 24.88L55.0572 24.2348C55.3899 24.7664 55.6659 25.3812 55.885 26.0791C56.1082 26.773 56.2786 27.5664 56.3963 28.4591C56.445 28.8406 56.4835 29.2342 56.5119 29.64C56.5444 30.0458 56.5688 30.4516 56.585 30.8574C56.6053 31.2591 56.6175 31.6548 56.6215 32.0443C56.6296 32.4339 56.6337 32.8052 56.6337 33.1583H55.4224ZM58.646 33.0304C58.5162 33.0304 58.3944 33.0061 58.2808 32.9574C58.1712 32.9087 58.0738 32.8417 57.9886 32.7565C57.9034 32.6713 57.8365 32.5739 57.7878 32.4643C57.7391 32.3507 57.7147 32.229 57.7147 32.0991C57.7147 31.953 57.7411 31.8232 57.7938 31.7096C57.8507 31.5919 57.9257 31.4925 58.0191 31.4113C58.1165 31.3261 58.226 31.2632 58.3478 31.2226C58.4736 31.178 58.6034 31.1557 58.7373 31.1557H58.7678C59.133 31.1557 59.4191 31.2896 59.626 31.5574C59.8249 31.809 59.9263 32.1296 59.9304 32.5191V32.6165C59.9304 33.7162 59.2547 34.6049 57.9034 35.2826L57.5504 34.6435C58.5811 34.1484 59.0965 33.5823 59.0965 32.9452V32.9148C58.9585 32.9919 58.8083 33.0304 58.646 33.0304ZM61.4954 29.7009C61.4954 29.4168 61.5481 29.151 61.6536 28.9035C61.7632 28.6519 61.9113 28.4328 62.098 28.2461C62.2847 28.0554 62.5018 27.9052 62.7493 27.7957C63.0009 27.6861 63.2707 27.6313 63.5589 27.6313C63.8429 27.6313 64.1087 27.6861 64.3563 27.7957C64.6078 27.9052 64.827 28.0554 65.0136 28.2461C65.2044 28.4328 65.3545 28.6519 65.4641 28.9035C65.5736 29.151 65.6284 29.4168 65.6284 29.7009C65.6284 29.989 65.5736 30.2588 65.4641 30.5104C65.3545 30.758 65.2044 30.9751 65.0136 31.1617C64.827 31.3484 64.6078 31.4965 64.3563 31.6061C64.1087 31.7116 63.8429 31.7643 63.5589 31.7643C63.2707 31.7643 63.0009 31.7116 62.7493 31.6061C62.5018 31.4965 62.2847 31.3484 62.098 31.1617C61.9113 30.9751 61.7632 30.758 61.6536 30.5104C61.5481 30.2588 61.4954 29.989 61.4954 29.7009ZM62.4876 29.7009C62.4876 29.847 62.516 29.9849 62.5728 30.1148C62.6296 30.2446 62.7067 30.3583 62.8041 30.4557C62.9015 30.553 63.0151 30.6301 63.1449 30.687C63.2748 30.7438 63.4128 30.7722 63.5589 30.7722C63.7049 30.7722 63.8429 30.7438 63.9728 30.687C64.1067 30.6301 64.2223 30.553 64.3197 30.4557C64.4171 30.3583 64.4942 30.2446 64.551 30.1148C64.6078 29.9849 64.6363 29.847 64.6363 29.7009C64.6363 29.5548 64.6078 29.4168 64.551 29.287C64.4942 29.153 64.4171 29.0374 64.3197 28.94C64.2223 28.8426 64.1067 28.7655 63.9728 28.7087C63.8429 28.6519 63.7049 28.6235 63.5589 28.6235C63.4128 28.6235 63.2748 28.6519 63.1449 28.7087C63.0151 28.7655 62.9015 28.8426 62.8041 28.94C62.7067 29.0374 62.6296 29.153 62.5728 29.287C62.516 29.4168 62.4876 29.5548 62.4876 29.7009ZM67.5247 29.7009C67.5247 29.4168 67.5774 29.151 67.6829 28.9035C67.7925 28.6519 67.9406 28.4328 68.1273 28.2461C68.314 28.0554 68.5311 27.9052 68.7786 27.7957C69.0302 27.6861 69.3 27.6313 69.5882 27.6313C69.8722 27.6313 70.138 27.6861 70.3855 27.7957C70.6371 27.9052 70.8563 28.0554 71.0429 28.2461C71.2337 28.4328 71.3838 28.6519 71.4934 28.9035C71.6029 29.151 71.6577 29.4168 71.6577 29.7009C71.6577 29.989 71.6029 30.2588 71.4934 30.5104C71.3838 30.758 71.2337 30.9751 71.0429 31.1617C70.8563 31.3484 70.6371 31.4965 70.3855 31.6061C70.138 31.7116 69.8722 31.7643 69.5882 31.7643C69.3 31.7643 69.0302 31.7116 68.7786 31.6061C68.5311 31.4965 68.314 31.3484 68.1273 31.1617C67.9406 30.9751 67.7925 30.758 67.6829 30.5104C67.5774 30.2588 67.5247 29.989 67.5247 29.7009ZM68.5169 29.7009C68.5169 29.847 68.5453 29.9849 68.6021 30.1148C68.6589 30.2446 68.736 30.3583 68.8334 30.4557C68.9308 30.553 69.0444 30.6301 69.1742 30.687C69.3041 30.7438 69.4421 30.7722 69.5882 30.7722C69.7342 30.7722 69.8722 30.7438 70.0021 30.687C70.136 30.6301 70.2516 30.553 70.349 30.4557C70.4464 30.3583 70.5235 30.2446 70.5803 30.1148C70.6371 29.9849 70.6655 29.847 70.6655 29.7009C70.6655 29.5548 70.6371 29.4168 70.5803 29.287C70.5235 29.153 70.4464 29.0374 70.349 28.94C70.2516 28.8426 70.136 28.7655 70.0021 28.7087C69.8722 28.6519 69.7342 28.6235 69.5882 28.6235C69.4421 28.6235 69.3041 28.6519 69.1742 28.7087C69.0444 28.7655 68.9308 28.8426 68.8334 28.94C68.736 29.0374 68.6589 29.153 68.6021 29.287C68.5453 29.4168 68.5169 29.5548 68.5169 29.7009ZM73.554 29.7009C73.554 29.4168 73.6067 29.151 73.7122 28.9035C73.8218 28.6519 73.9699 28.4328 74.1566 28.2461C74.3432 28.0554 74.5604 27.9052 74.8079 27.7957C75.0595 27.6861 75.3293 27.6313 75.6175 27.6313C75.9015 27.6313 76.1673 27.6861 76.4148 27.7957C76.6664 27.9052 76.8856 28.0554 77.0722 28.2461C77.263 28.4328 77.4131 28.6519 77.5227 28.9035C77.6322 29.151 77.687 29.4168 77.687 29.7009C77.687 29.989 77.6322 30.2588 77.5227 30.5104C77.4131 30.758 77.263 30.9751 77.0722 31.1617C76.8856 31.3484 76.6664 31.4965 76.4148 31.6061C76.1673 31.7116 75.9015 31.7643 75.6175 31.7643C75.3293 31.7643 75.0595 31.7116 74.8079 31.6061C74.5604 31.4965 74.3432 31.3484 74.1566 31.1617C73.9699 30.9751 73.8218 30.758 73.7122 30.5104C73.6067 30.2588 73.554 29.989 73.554 29.7009ZM74.5461 29.7009C74.5461 29.847 74.5746 29.9849 74.6314 30.1148C74.6882 30.2446 74.7653 30.3583 74.8627 30.4557C74.9601 30.553 75.0737 30.6301 75.2035 30.687C75.3334 30.7438 75.4714 30.7722 75.6175 30.7722C75.7635 30.7722 75.9015 30.7438 76.0314 30.687C76.1653 30.6301 76.2809 30.553 76.3783 30.4557C76.4757 30.3583 76.5528 30.2446 76.6096 30.1148C76.6664 29.9849 76.6948 29.847 76.6948 29.7009C76.6948 29.5548 76.6664 29.4168 76.6096 29.287C76.5528 29.153 76.4757 29.0374 76.3783 28.94C76.2809 28.8426 76.1653 28.7655 76.0314 28.7087C75.9015 28.6519 75.7635 28.6235 75.6175 28.6235C75.4714 28.6235 75.3334 28.6519 75.2035 28.7087C75.0737 28.7655 74.9601 28.8426 74.8627 28.94C74.7653 29.0374 74.6882 29.153 74.6314 29.287C74.5746 29.4168 74.5461 29.5548 74.5461 29.7009ZM79.8511 33.0304C79.7212 33.0304 79.5995 33.0061 79.4859 32.9574C79.3763 32.9087 79.2789 32.8417 79.1937 32.7565C79.1085 32.6713 79.0415 32.5739 78.9928 32.4643C78.9441 32.3507 78.9198 32.229 78.9198 32.0991C78.9198 31.953 78.9462 31.8232 78.9989 31.7096C79.0557 31.5919 79.1308 31.4925 79.2241 31.4113C79.3215 31.3261 79.4311 31.2632 79.5528 31.2226C79.6786 31.178 79.8085 31.1557 79.9424 31.1557H79.9728C80.3381 31.1557 80.6241 31.2896 80.8311 31.5574C81.0299 31.809 81.1314 32.1296 81.1354 32.5191V32.6165C81.1354 33.7162 80.4598 34.6049 79.1085 35.2826L78.7554 34.6435C79.7862 34.1484 80.3015 33.5823 80.3015 32.9452V32.9148C80.1636 32.9919 80.0134 33.0304 79.8511 33.0304ZM82.7005 29.7009C82.7005 29.4168 82.7532 29.151 82.8587 28.9035C82.9683 28.6519 83.1164 28.4328 83.3031 28.2461C83.4897 28.0554 83.7068 27.9052 83.9544 27.7957C84.206 27.6861 84.4758 27.6313 84.7639 27.6313C85.048 27.6313 85.3138 27.6861 85.5613 27.7957C85.8129 27.9052 86.0321 28.0554 86.2187 28.2461C86.4094 28.4328 86.5596 28.6519 86.6692 28.9035C86.7787 29.151 86.8335 29.4168 86.8335 29.7009C86.8335 29.989 86.7787 30.2588 86.6692 30.5104C86.5596 30.758 86.4094 30.9751 86.2187 31.1617C86.0321 31.3484 85.8129 31.4965 85.5613 31.6061C85.3138 31.7116 85.048 31.7643 84.7639 31.7643C84.4758 31.7643 84.206 31.7116 83.9544 31.6061C83.7068 31.4965 83.4897 31.3484 83.3031 31.1617C83.1164 30.9751 82.9683 30.758 82.8587 30.5104C82.7532 30.2588 82.7005 29.989 82.7005 29.7009ZM83.6926 29.7009C83.6926 29.847 83.721 29.9849 83.7779 30.1148C83.8347 30.2446 83.9118 30.3583 84.0092 30.4557C84.1065 30.553 84.2202 30.6301 84.35 30.687C84.4799 30.7438 84.6179 30.7722 84.7639 30.7722C84.91 30.7722 85.048 30.7438 85.1779 30.687C85.3118 30.6301 85.4274 30.553 85.5248 30.4557C85.6222 30.3583 85.6993 30.2446 85.7561 30.1148C85.8129 29.9849 85.8413 29.847 85.8413 29.7009C85.8413 29.5548 85.8129 29.4168 85.7561 29.287C85.6993 29.153 85.6222 29.0374 85.5248 28.94C85.4274 28.8426 85.3118 28.7655 85.1779 28.7087C85.048 28.6519 84.91 28.6235 84.7639 28.6235C84.6179 28.6235 84.4799 28.6519 84.35 28.7087C84.2202 28.7655 84.1065 28.8426 84.0092 28.94C83.9118 29.0374 83.8347 29.153 83.7779 29.287C83.721 29.4168 83.6926 29.5548 83.6926 29.7009ZM88.7298 29.7009C88.7298 29.4168 88.7825 29.151 88.888 28.9035C88.9976 28.6519 89.1457 28.4328 89.3324 28.2461C89.519 28.0554 89.7361 27.9052 89.9837 27.7957C90.2353 27.6861 90.5051 27.6313 90.7932 27.6313C91.0773 27.6313 91.3431 27.6861 91.5906 27.7957C91.8422 27.9052 92.0613 28.0554 92.248 28.2461C92.4387 28.4328 92.5889 28.6519 92.6985 28.9035C92.808 29.151 92.8628 29.4168 92.8628 29.7009C92.8628 29.989 92.808 30.2588 92.6985 30.5104C92.5889 30.758 92.4387 30.9751 92.248 31.1617C92.0613 31.3484 91.8422 31.4965 91.5906 31.6061C91.3431 31.7116 91.0773 31.7643 90.7932 31.7643C90.5051 31.7643 90.2353 31.7116 89.9837 31.6061C89.7361 31.4965 89.519 31.3484 89.3324 31.1617C89.1457 30.9751 88.9976 30.758 88.888 30.5104C88.7825 30.2588 88.7298 29.989 88.7298 29.7009ZM89.7219 29.7009C89.7219 29.847 89.7503 29.9849 89.8071 30.1148C89.864 30.2446 89.9411 30.3583 90.0385 30.4557C90.1358 30.553 90.2495 30.6301 90.3793 30.687C90.5092 30.7438 90.6471 30.7722 90.7932 30.7722C90.9393 30.7722 91.0773 30.7438 91.2071 30.687C91.3411 30.6301 91.4567 30.553 91.5541 30.4557C91.6515 30.3583 91.7286 30.2446 91.7854 30.1148C91.8422 29.9849 91.8706 29.847 91.8706 29.7009C91.8706 29.5548 91.8422 29.4168 91.7854 29.287C91.7286 29.153 91.6515 29.0374 91.5541 28.94C91.4567 28.8426 91.3411 28.7655 91.2071 28.7087C91.0773 28.6519 90.9393 28.6235 90.7932 28.6235C90.6471 28.6235 90.5092 28.6519 90.3793 28.7087C90.2495 28.7655 90.1358 28.8426 90.0385 28.94C89.9411 29.0374 89.864 29.153 89.8071 29.287C89.7503 29.4168 89.7219 29.5548 89.7219 29.7009ZM94.7591 29.7009C94.7591 29.4168 94.8118 29.151 94.9173 28.9035C95.0269 28.6519 95.175 28.4328 95.3617 28.2461C95.5483 28.0554 95.7654 27.9052 96.013 27.7957C96.2646 27.6861 96.5344 27.6313 96.8225 27.6313C97.1066 27.6313 97.3724 27.6861 97.6199 27.7957C97.8715 27.9052 98.0907 28.0554 98.2773 28.2461C98.468 28.4328 98.6182 28.6519 98.7278 28.9035C98.8373 29.151 98.8921 29.4168 98.8921 29.7009C98.8921 29.989 98.8373 30.2588 98.7278 30.5104C98.6182 30.758 98.468 30.9751 98.2773 31.1617C98.0907 31.3484 97.8715 31.4965 97.6199 31.6061C97.3724 31.7116 97.1066 31.7643 96.8225 31.7643C96.5344 31.7643 96.2646 31.7116 96.013 31.6061C95.7654 31.4965 95.5483 31.3484 95.3617 31.1617C95.175 30.9751 95.0269 30.758 94.9173 30.5104C94.8118 30.2588 94.7591 29.989 94.7591 29.7009ZM95.7512 29.7009C95.7512 29.847 95.7796 29.9849 95.8364 30.1148C95.8933 30.2446 95.9704 30.3583 96.0678 30.4557C96.1651 30.553 96.2788 30.6301 96.4086 30.687C96.5385 30.7438 96.6764 30.7722 96.8225 30.7722C96.9686 30.7722 97.1066 30.7438 97.2364 30.687C97.3704 30.6301 97.486 30.553 97.5834 30.4557C97.6808 30.3583 97.7579 30.2446 97.8147 30.1148C97.8715 29.9849 97.8999 29.847 97.8999 29.7009C97.8999 29.5548 97.8715 29.4168 97.8147 29.287C97.7579 29.153 97.6808 29.0374 97.5834 28.94C97.486 28.8426 97.3704 28.7655 97.2364 28.7087C97.1066 28.6519 96.9686 28.6235 96.8225 28.6235C96.6764 28.6235 96.5385 28.6519 96.4086 28.7087C96.2788 28.7655 96.1651 28.8426 96.0678 28.94C95.9704 29.0374 95.8933 29.153 95.8364 29.287C95.7796 29.4168 95.7512 29.5548 95.7512 29.7009Z" fill="#1C3169"/>
<circle cx="21.5" cy="21.5" r="21.5" transform="matrix(-1 0 0 1 351 12)" fill="#0042AD"/>
<mask id="mask0_2_48" style="mask-type:luminance" maskUnits="userSpaceOnUse" x="308" y="12" width="43" height="43">
<circle cx="21.5" cy="21.5" r="21.5" transform="matrix(-1 0 0 1 351 12)" fill="white"/>
</mask>
<g mask="url(#mask0_2_48)">
</g>
<path d="M255.565 37C255.086 37 254.678 36.9435 254.339 36.8304C254.004 36.7174 253.719 36.5435 253.484 36.3087C253.341 36.1652 253.23 36.0109 253.152 35.8457C253.078 35.6804 253.021 35.5174 252.982 35.3565C252.947 35.1957 252.928 35.0435 252.923 34.9C252.919 34.7522 252.917 34.6261 252.917 34.5217C252.917 34.487 252.917 34.3848 252.917 34.2152C252.921 34.0413 252.926 33.8196 252.93 33.55C252.934 33.2804 252.936 32.9717 252.936 32.6239C252.936 32.2804 252.934 31.9174 252.93 31.5348C252.93 31.1609 252.926 30.7717 252.917 30.3674C252.908 29.963 252.893 29.5717 252.871 29.1935C252.854 28.8152 252.83 28.4674 252.799 28.15C252.773 27.8283 252.741 27.5652 252.702 27.3609L253.98 27.1261C254.019 27.3478 254.052 27.6196 254.078 27.9413C254.108 28.263 254.132 28.613 254.149 28.9913C254.171 29.3696 254.186 29.7652 254.195 30.1783C254.208 30.587 254.215 30.987 254.215 31.3783V34.6522C254.215 34.8 254.221 34.9391 254.234 35.0696C254.252 35.1957 254.31 35.3065 254.41 35.4022C254.51 35.5022 254.658 35.5804 254.854 35.637C255.054 35.6935 255.291 35.7217 255.565 35.7217H255.695V37H255.565ZM261.254 35.7217V37H261.124C260.685 37 260.32 36.9261 260.028 36.7783C259.737 36.6261 259.498 36.4304 259.311 36.1913C259.172 36.3261 259.02 36.4457 258.854 36.55C258.689 36.65 258.493 36.7348 258.267 36.8043C258.041 36.8696 257.776 36.9196 257.472 36.9543C257.172 36.9848 256.817 37 256.409 37H255.437V35.7217H256.409C256.822 35.7217 257.174 35.6891 257.465 35.6239C257.761 35.5587 258 35.4609 258.183 35.3304C258.37 35.2 258.507 35.037 258.593 34.8413C258.68 34.6457 258.724 34.4174 258.724 34.1565C258.724 33.9087 258.704 33.6565 258.665 33.4C258.63 33.1435 258.565 32.85 258.47 32.5196L259.696 32.1739C259.739 32.3261 259.776 32.4739 259.807 32.6174C259.837 32.7565 259.863 32.9043 259.885 33.0609C259.907 33.2174 259.926 33.387 259.943 33.5696C259.965 33.7522 259.985 33.9587 260.002 34.1891C260.015 34.35 260.039 34.5196 260.074 34.6978C260.109 34.8761 260.165 35.0413 260.243 35.1935C260.326 35.3457 260.437 35.4717 260.576 35.5717C260.72 35.6717 260.902 35.7217 261.124 35.7217H261.254ZM258.202 29.7674L257.146 30.8239L256.076 29.7609L257.133 28.6978L258.202 29.7674ZM260.876 29.7739L259.82 30.837L258.75 29.7674L259.807 28.7109L260.876 29.7739ZM260.989 35.7217H261.126C261.308 35.7217 261.484 35.6804 261.654 35.5978C261.828 35.5152 261.989 35.4065 262.137 35.2717C262.289 35.1326 262.428 34.9783 262.554 34.8087C262.68 34.6348 262.791 34.4587 262.887 34.2804C262.987 34.0804 263.071 33.8848 263.141 33.6935C263.21 33.4978 263.269 33.3152 263.317 33.1457C263.369 32.9717 263.41 32.813 263.441 32.6696C263.471 32.5261 263.5 32.4022 263.526 32.2978L264.778 32.6435C264.752 32.7522 264.717 32.9043 264.673 33.1C264.634 33.2957 264.595 33.5087 264.556 33.7391C264.521 33.9652 264.497 34.1957 264.484 34.4304C264.48 34.5174 264.478 34.6 264.478 34.6783C264.478 34.8174 264.489 34.9674 264.51 35.1283C264.537 35.2848 264.595 35.4239 264.687 35.5457C264.782 35.6674 264.919 35.7283 265.097 35.7283C265.319 35.7283 265.517 35.6696 265.691 35.5522C265.869 35.4348 266.026 35.2804 266.16 35.0891C266.295 34.8978 266.41 34.6783 266.506 34.4304C266.602 34.1826 266.684 33.9304 266.754 33.6739C266.823 33.4174 266.878 33.1652 266.917 32.9174C266.96 32.6652 266.993 32.4391 267.015 32.2391L268.287 32.4804C268.265 32.6326 268.237 32.8174 268.202 33.0348C268.167 33.2522 268.141 33.4804 268.123 33.7196C268.106 33.8891 268.097 34.0587 268.097 34.2283C268.097 34.2978 268.1 34.4087 268.104 34.5609C268.113 34.713 268.145 34.8826 268.202 35.0696C268.263 35.2565 268.356 35.4087 268.482 35.5261C268.608 35.6435 268.78 35.7022 268.997 35.7022C269.206 35.7022 269.378 35.6413 269.513 35.5196C269.647 35.3935 269.754 35.2304 269.832 35.0304C269.915 34.8261 269.973 34.6 270.008 34.3522C270.043 34.1 270.065 33.8478 270.073 33.5957C270.078 33.4696 270.08 33.3457 270.08 33.2239C270.08 33.1022 270.076 32.9565 270.067 32.787C270.063 32.6174 270.056 32.4543 270.047 32.2978L271.326 32.1935C271.339 32.337 271.352 32.4826 271.365 32.6304C271.382 32.7739 271.402 32.9239 271.423 33.0804C271.45 33.237 271.48 33.4022 271.515 33.5761C271.554 33.75 271.606 33.9348 271.671 34.1304C271.845 34.6652 272.058 35.0652 272.31 35.3304C272.567 35.5913 272.852 35.7217 273.165 35.7217H273.321V37H273.165C272.939 37 272.717 36.9696 272.5 36.9087C272.282 36.8435 272.076 36.7522 271.88 36.6348C271.689 36.5174 271.513 36.3761 271.352 36.2109C271.191 36.0457 271.054 35.8587 270.941 35.65C270.854 35.8543 270.745 36.0391 270.615 36.2043C270.484 36.3696 270.334 36.5109 270.165 36.6283C270 36.7457 269.819 36.837 269.623 36.9022C269.428 36.9674 269.219 37 268.997 37C268.563 37 268.182 36.8891 267.856 36.6674C267.53 36.4413 267.287 36.1348 267.126 35.7478C267.008 35.9304 266.876 36.1 266.728 36.2565C266.584 36.4087 266.426 36.5435 266.252 36.6609C266.082 36.7739 265.9 36.863 265.704 36.9283C265.513 36.9891 265.31 37.0196 265.097 37.0196C264.893 37.0196 264.695 36.9891 264.504 36.9283C264.317 36.8674 264.147 36.7804 263.995 36.6674C263.843 36.5543 263.71 36.4174 263.597 36.2565C263.484 36.0957 263.4 35.9174 263.343 35.7217C263.208 35.913 263.065 36.087 262.913 36.2435C262.76 36.4 262.593 36.5348 262.41 36.6478C262.228 36.7565 262.03 36.8435 261.817 36.9087C261.608 36.9696 261.378 37 261.126 37H260.989V35.7217ZM273.059 35.7217H273.202C273.459 35.7217 273.689 35.6717 273.894 35.5717C274.098 35.4674 274.279 35.3326 274.435 35.1674C274.596 34.9978 274.735 34.8043 274.852 34.587C274.97 34.3696 275.072 34.1435 275.159 33.9087C275.246 33.6696 275.32 33.4304 275.381 33.1913C275.442 32.9522 275.494 32.7261 275.537 32.513L276.829 32.787C276.794 32.8913 276.75 33.0261 276.698 33.1913C276.65 33.3565 276.602 33.5348 276.555 33.7261C276.507 33.913 276.466 34.1065 276.431 34.3065C276.396 34.5022 276.379 34.6848 276.379 34.8543C276.379 34.9717 276.389 35.087 276.411 35.2C276.433 35.3087 276.47 35.4065 276.522 35.4935C276.574 35.5804 276.646 35.65 276.737 35.7022C276.829 35.7543 276.944 35.7804 277.083 35.7804C277.305 35.7804 277.502 35.7196 277.676 35.5978C277.855 35.4761 278.011 35.3174 278.146 35.1217C278.285 34.9261 278.405 34.7043 278.505 34.4565C278.609 34.2087 278.696 33.9565 278.766 33.7C278.839 33.4435 278.898 33.1957 278.942 32.9565C278.989 32.713 279.026 32.5022 279.052 32.3239L280.305 32.5522L280.272 32.7609C280.246 32.9043 280.216 33.0783 280.181 33.2826C280.15 33.4826 280.122 33.6978 280.096 33.9283C280.07 34.1543 280.057 34.3565 280.057 34.5348C280.057 34.6957 280.068 34.85 280.089 34.9978C280.116 35.1413 280.155 35.2696 280.207 35.3826C280.263 35.4913 280.335 35.5826 280.422 35.6565C280.513 35.7261 280.624 35.7674 280.755 35.7804C280.837 35.7891 280.916 35.7935 280.989 35.7935C281.116 35.7935 281.239 35.7783 281.361 35.7478C281.487 35.713 281.598 35.6457 281.694 35.5457C281.794 35.4457 281.866 35.3196 281.909 35.1674C281.952 35.0152 281.974 34.8435 281.974 34.6522C281.974 34.4043 281.939 34.137 281.87 33.85C281.805 33.563 281.724 33.2826 281.629 33.0087C281.537 32.7304 281.439 32.4739 281.335 32.2391C281.235 32 281.15 31.8109 281.081 31.6717L282.222 31.0717C282.244 31.1152 282.285 31.2 282.346 31.3261C282.407 31.4478 282.476 31.6 282.555 31.7826C282.633 31.9609 282.713 32.1652 282.796 32.3957C282.879 32.6217 282.955 32.8587 283.024 33.1065C283.098 33.3543 283.157 33.6087 283.2 33.8696C283.248 34.1304 283.272 34.3848 283.272 34.6326C283.272 35.0065 283.22 35.3457 283.116 35.65C283.011 35.95 282.855 36.2065 282.646 36.4196C282.437 36.6326 282.176 36.7957 281.863 36.9087C281.559 37.0217 281.205 37.0783 280.8 37.0783H280.755C280.589 37.0783 280.422 37.0522 280.252 37C280.087 36.9478 279.929 36.8783 279.776 36.7913C279.624 36.7 279.483 36.5957 279.352 36.4783C279.222 36.3565 279.111 36.2261 279.02 36.087C278.759 36.3913 278.463 36.6326 278.133 36.8109C277.802 36.9891 277.452 37.0783 277.083 37.0783C276.922 37.0783 276.755 37.0565 276.581 37.013C276.411 36.9739 276.248 36.913 276.092 36.8304C275.935 36.7478 275.792 36.6457 275.661 36.5239C275.535 36.4022 275.437 36.2609 275.368 36.1C275.237 36.2391 275.098 36.3652 274.95 36.4783C274.802 36.587 274.642 36.6804 274.468 36.7587C274.294 36.837 274.1 36.8978 273.887 36.9413C273.679 36.9804 273.448 37 273.196 37H273.059V35.7217ZM279.509 29.3239L280.566 28.2674L281.635 29.337L280.579 30.3935L279.509 29.3239ZM276.646 29.3174L277.702 28.2543L278.772 29.3239L277.716 30.387L276.646 29.3174ZM278.218 27.3543L279.183 26.3891L280.155 27.3609L279.189 28.3261L278.218 27.3543Z" fill="black" fill-opacity="0.6"/>
<defs>
<linearGradient id="paint0_linear_2_48" x1="134.807" y1="13.7424" x2="167.124" y2="66.8839" gradientUnits="userSpaceOnUse">
<stop stop-color="#E62E2E" stop-opacity="0.3"/>
<stop offset="1" stop-color="#E62E2E" stop-opacity="0"/>
</linearGradient>
</defs>
</svg>
