<svg width="52" height="52" viewBox="0 0 52 52" fill="none" xmlns="http://www.w3.org/2000/svg">
<circle cx="26" cy="26" r="26" fill="#FFDEE2"/>
<path d="M20.5 35C19.125 35 18.0125 36.125 18.0125 37.5C18.0125 38.875 19.125 40 20.5 40C21.875 40 23 38.875 23 37.5C23 36.125 21.875 35 20.5 35ZM33 35C31.625 35 30.5125 36.125 30.5125 37.5C30.5125 38.875 31.625 40 33 40C34.375 40 35.5 38.875 35.5 37.5C35.5 36.125 34.375 35 33 35ZM31.1875 28.75C32.125 28.75 32.95 28.2375 33.375 27.4625L37.85 19.35C37.9553 19.1605 38.0094 18.9468 38.0068 18.7301C38.0042 18.5133 37.945 18.301 37.8352 18.1141C37.7253 17.9272 37.5686 17.7722 37.3804 17.6645C37.1923 17.5568 36.9793 17.5001 36.7625 17.5H18.2625L17.0875 15H13V17.5H15.5L20 26.9875L18.3125 30.0375C17.4 31.7125 18.6 33.75 20.5 33.75H35.5V31.25H20.5L21.875 28.75H31.1875ZM19.45 20H34.6375L31.1875 26.25H22.4125L19.45 20Z" fill="#A32E2E"/>
</svg>
