<svg width="37" height="38" viewBox="0 0 37 38" fill="none" xmlns="http://www.w3.org/2000/svg">
<path d="M30.1729 5.72303C30.1729 14.3044 30.1729 22.8858 30.1729 31.4671C30.1729 31.9722 30.1729 32.4772 30.1729 32.9823C30.1729 33.4676 30.1729 32.0115 30.1729 31.5262C30.1729 27.6039 30.1729 23.6816 30.1729 19.7593C30.1729 14.5383 30.1729 9.31737 30.1729 4.0964C30.1729 2.32984 30.1729 7.62952 30.1729 9.39608C30.1729 9.95797 30.1729 10.5199 30.1729 11.0817C30.1729 11.3882 30.1729 11.758 30.1729 11.1736C30.1729 9.11076 30.1729 7.04795 30.1729 4.98515C30.1729 4.05158 30.1729 3.11801 30.1729 2.18445C30.1729 2.03273 30.1729 1.9886 30.1729 2.16149C30.1729 3.01088 30.1729 3.86028 30.1729 4.70967C30.1729 7.9695 30.1729 11.2293 30.1729 14.4892C30.1729 18.8203 30.1729 23.1514 30.1729 27.4825C30.1729 28.0838 30.1729 29.8875 30.1729 29.2863C30.1729 24.9464 30.1729 20.6065 30.1729 16.2666C30.1729 12.7455 30.1729 9.22445 30.1729 5.70336C30.1729 4.23414 30.1729 -0.173515 30.1729 1.2957C30.1729 12.5018 30.1729 23.7078 30.1729 34.9139C30.1729 44.9 30.1729 14.9417 30.1729 4.95563" stroke="#5164BF" stroke-width="1.5" stroke-linecap="round" stroke-linejoin="round"/>
<path d="M35.9556 5.75892C35.9556 14.3403 35.9556 22.9217 35.9556 31.503C35.9556 32.0081 35.9556 32.5131 35.9556 33.0182C35.9556 33.5035 35.9556 32.0474 35.9556 31.5621C35.9556 27.6398 35.9556 23.7175 35.9556 19.7952C35.9556 14.5742 35.9556 9.35326 35.9556 4.13229C35.9556 2.36573 35.9556 7.66541 35.9556 9.43197C35.9556 9.99386 35.9556 10.5557 35.9556 11.1176C35.9556 11.4241 35.9556 11.7939 35.9556 11.2095C35.9556 9.14665 35.9556 7.08384 35.9556 5.02103C35.9556 4.08747 35.9556 3.1539 35.9556 2.22034C35.9556 2.06862 35.9556 2.02449 35.9556 2.19738C35.9556 3.04677 35.9556 3.89616 35.9556 4.74556C35.9556 8.00538 35.9556 11.2652 35.9556 14.525C35.9556 18.8562 35.9556 23.1873 35.9556 27.5184C35.9556 28.1197 35.9556 29.9234 35.9556 29.3222C35.9556 24.9823 35.9556 20.6424 35.9556 16.3025C35.9556 12.7814 35.9556 9.26034 35.9556 5.73925C35.9556 4.27003 35.9556 -0.137627 35.9556 1.33159C35.9556 12.5377 35.9556 23.7437 35.9556 34.9498C35.9556 44.9359 35.9556 14.9776 35.9556 4.99152" stroke="#5164BF" stroke-width="1.5" stroke-linecap="round" stroke-linejoin="round"/>
<path d="M18.6982 17.8104C18.6982 23.0316 18.6982 28.2529 18.6982 33.4742C18.6982 33.7815 18.6982 34.0888 18.6982 34.3961C18.6982 34.6914 18.6982 33.8055 18.6982 33.5102C18.6982 31.1237 18.6982 28.7372 18.6982 26.3507C18.6982 23.174 18.6982 19.9973 18.6982 16.8206C18.6982 15.7458 18.6982 18.9703 18.6982 20.0452C18.6982 20.3871 18.6982 20.729 18.6982 21.0708C18.6982 21.2573 18.6982 21.4823 18.6982 21.1267C18.6982 19.8716 18.6982 18.6165 18.6982 17.3614C18.6982 16.7934 18.6982 16.2253 18.6982 15.6573C18.6982 15.565 18.6982 15.5382 18.6982 15.6433C18.6982 16.1602 18.6982 16.677 18.6982 17.1938C18.6982 19.1772 18.6982 21.1606 18.6982 23.1441C18.6982 25.7793 18.6982 28.4146 18.6982 31.0498C18.6982 31.4157 18.6982 32.5131 18.6982 32.1473C18.6982 29.5067 18.6982 26.8661 18.6982 24.2256C18.6982 22.0832 18.6982 19.9408 18.6982 17.7984C18.6982 16.9044 18.6982 14.2226 18.6982 15.1166C18.6982 21.9348 18.6982 28.7531 18.6982 35.5714C18.6982 41.6474 18.6982 23.4194 18.6982 17.3434" stroke="#5164BF" stroke-width="1.5" stroke-linecap="round" stroke-linejoin="round"/>
<path d="M12.708 23.721C12.708 27.2845 12.708 30.8481 12.708 34.4117C12.708 34.6214 12.708 34.8311 12.708 35.0408C12.708 35.2424 12.708 34.6377 12.708 34.4362C12.708 32.8074 12.708 31.1786 12.708 29.5498C12.708 27.3817 12.708 25.2136 12.708 23.0455C12.708 22.3119 12.708 24.5127 12.708 25.2463C12.708 25.4796 12.708 25.7129 12.708 25.9463C12.708 26.0735 12.708 26.2271 12.708 25.9844C12.708 25.1278 12.708 24.2712 12.708 23.4145C12.708 23.0269 12.708 22.6392 12.708 22.2515C12.708 22.1885 12.708 22.1702 12.708 22.242C12.708 22.5947 12.708 22.9474 12.708 23.3001C12.708 24.6538 12.708 26.0075 12.708 27.3612C12.708 29.1598 12.708 30.9584 12.708 32.757C12.708 33.0067 12.708 33.7557 12.708 33.506C12.708 31.7038 12.708 29.9016 12.708 28.0994C12.708 26.6372 12.708 25.175 12.708 23.7128C12.708 23.1027 12.708 21.2723 12.708 21.8824C12.708 26.536 12.708 31.1895 12.708 35.843C12.708 39.9899 12.708 27.5492 12.708 23.4023" stroke="#5164BF" stroke-width="1.5" stroke-linecap="round" stroke-linejoin="round"/>
<path d="M6.85132 29.6341C6.85132 31.5737 6.85132 33.5134 6.85132 35.4531C6.85132 35.5672 6.85132 35.6814 6.85132 35.7955C6.85132 35.9052 6.85132 35.5761 6.85132 35.4664C6.85132 34.5798 6.85132 33.6933 6.85132 32.8067C6.85132 31.6266 6.85132 30.4465 6.85132 29.2664C6.85132 28.8671 6.85132 30.065 6.85132 30.4643C6.85132 30.5913 6.85132 30.7183 6.85132 30.8453C6.85132 30.9146 6.85132 30.9982 6.85132 30.8661C6.85132 30.3998 6.85132 29.9336 6.85132 29.4673C6.85132 29.2563 6.85132 29.0453 6.85132 28.8343C6.85132 28.8 6.85132 28.79 6.85132 28.8291C6.85132 29.0211 6.85132 29.213 6.85132 29.405C6.85132 30.1419 6.85132 30.8787 6.85132 31.6155C6.85132 32.5945 6.85132 33.5734 6.85132 34.5524C6.85132 34.6883 6.85132 35.096 6.85132 34.9601C6.85132 33.9792 6.85132 32.9982 6.85132 32.0173C6.85132 31.2214 6.85132 30.4255 6.85132 29.6296C6.85132 29.2975 6.85132 28.3013 6.85132 28.6334C6.85132 31.1663 6.85132 33.6992 6.85132 36.2321C6.85132 38.4893 6.85132 31.7178 6.85132 29.4606" stroke="#5164BF" stroke-width="1.5" stroke-linecap="round" stroke-linejoin="round"/>
<path d="M6.00992 34.0045C4.63199 34.0045 3.25406 34.0045 1.87613 34.0045C1.79503 34.0045 1.71394 34.0045 1.63284 34.0045C1.5549 34.0045 1.78871 34.0045 1.86665 34.0045C2.49646 34.0045 3.12627 34.0045 3.75608 34.0045C4.59443 34.0045 5.43277 34.0045 6.27111 34.0045C6.55478 34.0045 5.70379 34.0045 5.42013 34.0045C5.32991 34.0045 5.23968 34.0045 5.14946 34.0045C5.10025 34.0045 5.04087 34.0045 5.13472 34.0045C5.46595 34.0045 5.79718 34.0045 6.12841 34.0045C6.27831 34.0045 6.42822 34.0045 6.57812 34.0045C6.60248 34.0045 6.60957 34.0045 6.58181 34.0045C6.44542 34.0045 6.30903 34.0045 6.17264 34.0045C5.6492 34.0045 5.12576 34.0045 4.60233 34.0045C3.90687 34.0045 3.21141 34.0045 2.51594 34.0045C2.4194 34.0045 2.12977 34.0045 2.22632 34.0045C2.92318 34.0045 3.62005 34.0045 4.31691 34.0045C4.8823 34.0045 5.44769 34.0045 6.01308 34.0045C6.249 34.0045 6.95674 34.0045 6.72083 34.0045C4.92144 34.0045 3.12206 34.0045 1.32267 34.0045C-0.280816 34.0045 4.52966 34.0045 6.13315 34.0045" stroke="#5164BF" stroke-width="1.5" stroke-linecap="round" stroke-linejoin="round"/>
<path d="M11.8134 28.7551C10.4355 28.7551 9.05753 28.7551 7.6796 28.7551C7.5985 28.7551 7.5174 28.7551 7.43631 28.7551C7.35837 28.7551 7.59218 28.7551 7.67012 28.7551C8.29993 28.7551 8.92974 28.7551 9.55955 28.7551C10.3979 28.7551 11.2362 28.7551 12.0746 28.7551C12.3582 28.7551 11.5073 28.7551 11.2236 28.7551C11.1334 28.7551 11.0432 28.7551 10.9529 28.7551C10.9037 28.7551 10.8443 28.7551 10.9382 28.7551C11.2694 28.7551 11.6006 28.7551 11.9319 28.7551C12.0818 28.7551 12.2317 28.7551 12.3816 28.7551C12.4059 28.7551 12.413 28.7551 12.3853 28.7551C12.2489 28.7551 12.1125 28.7551 11.9761 28.7551C11.4527 28.7551 10.9292 28.7551 10.4058 28.7551C9.71033 28.7551 9.01487 28.7551 8.31941 28.7551C8.22287 28.7551 7.93324 28.7551 8.02978 28.7551C8.72665 28.7551 9.42351 28.7551 10.1204 28.7551C10.6858 28.7551 11.2512 28.7551 11.8165 28.7551C12.0525 28.7551 12.7602 28.7551 12.5243 28.7551C10.7249 28.7551 8.92553 28.7551 7.12614 28.7551C5.52265 28.7551 10.3331 28.7551 11.9366 28.7551" stroke="#5164BF" stroke-width="1.5" stroke-linecap="round" stroke-linejoin="round"/>
<path d="M17.8175 21.9447C16.3992 21.9447 14.9808 21.9447 13.5624 21.9447C13.479 21.9447 13.3955 21.9447 13.312 21.9447C13.2318 21.9447 13.4725 21.9447 13.5527 21.9447C14.201 21.9447 14.8493 21.9447 15.4975 21.9447C16.3605 21.9447 17.2234 21.9447 18.0864 21.9447C18.3783 21.9447 17.5024 21.9447 17.2104 21.9447C17.1175 21.9447 17.0247 21.9447 16.9318 21.9447C16.8811 21.9447 16.82 21.9447 16.9166 21.9447C17.2576 21.9447 17.5985 21.9447 17.9395 21.9447C18.0938 21.9447 18.2481 21.9447 18.4024 21.9447C18.4275 21.9447 18.4347 21.9447 18.4062 21.9447C18.2658 21.9447 18.1254 21.9447 17.985 21.9447C17.4462 21.9447 16.9074 21.9447 16.3686 21.9447C15.6528 21.9447 14.9369 21.9447 14.221 21.9447C14.1217 21.9447 13.8235 21.9447 13.9229 21.9447C14.6402 21.9447 15.3575 21.9447 16.0748 21.9447C16.6568 21.9447 17.2388 21.9447 17.8208 21.9447C18.0636 21.9447 18.7921 21.9447 18.5493 21.9447C16.6971 21.9447 14.8449 21.9447 12.9927 21.9447C11.3422 21.9447 16.2938 21.9447 17.9443 21.9447" stroke="#5164BF" stroke-width="1.5" stroke-linecap="round" stroke-linejoin="round"/>
<path d="M23.5104 15.1288C22.2091 15.1288 20.9078 15.1288 19.6066 15.1288C19.53 15.1288 19.4534 15.1288 19.3768 15.1288C19.3032 15.1288 19.524 15.1288 19.5976 15.1288C20.1924 15.1288 20.7872 15.1288 21.3819 15.1288C22.1736 15.1288 22.9653 15.1288 23.757 15.1288C24.0249 15.1288 23.2213 15.1288 22.9534 15.1288C22.8682 15.1288 22.783 15.1288 22.6978 15.1288C22.6513 15.1288 22.5952 15.1288 22.6839 15.1288C22.9967 15.1288 23.3095 15.1288 23.6223 15.1288C23.7638 15.1288 23.9054 15.1288 24.047 15.1288C24.07 15.1288 24.0767 15.1288 24.0504 15.1288C23.9216 15.1288 23.7928 15.1288 23.664 15.1288C23.1697 15.1288 22.6754 15.1288 22.1811 15.1288C21.5243 15.1288 20.8676 15.1288 20.2108 15.1288C20.1196 15.1288 19.8461 15.1288 19.9373 15.1288C20.5954 15.1288 21.2535 15.1288 21.9116 15.1288C22.4455 15.1288 22.9794 15.1288 23.5134 15.1288C23.7361 15.1288 24.4045 15.1288 24.1817 15.1288C22.4825 15.1288 20.7832 15.1288 19.0839 15.1288C17.5696 15.1288 22.1125 15.1288 23.6267 15.1288" stroke="#5164BF" stroke-width="1.5" stroke-linecap="round" stroke-linejoin="round"/>
<path d="M29.2974 8.33411C27.9256 8.33411 26.5537 8.33411 25.1819 8.33411C25.1012 8.33411 25.0204 8.33411 24.9397 8.33411C24.8621 8.33411 25.0949 8.33411 25.1725 8.33411C25.7995 8.33411 26.4265 8.33411 27.0536 8.33411C27.8882 8.33411 28.7228 8.33411 29.5575 8.33411C29.8399 8.33411 28.9927 8.33411 28.7103 8.33411C28.6204 8.33411 28.5306 8.33411 28.4408 8.33411C28.3918 8.33411 28.3327 8.33411 28.4261 8.33411C28.7559 8.33411 29.0856 8.33411 29.4154 8.33411C29.5647 8.33411 29.7139 8.33411 29.8631 8.33411C29.8874 8.33411 29.8944 8.33411 29.8668 8.33411C29.731 8.33411 29.5952 8.33411 29.4594 8.33411C28.9383 8.33411 28.4172 8.33411 27.8961 8.33411C27.2037 8.33411 26.5113 8.33411 25.8189 8.33411C25.7228 8.33411 25.4344 8.33411 25.5305 8.33411C26.2243 8.33411 26.9181 8.33411 27.6119 8.33411C28.1748 8.33411 28.7377 8.33411 29.3006 8.33411C29.5355 8.33411 30.2401 8.33411 30.0052 8.33411C28.2138 8.33411 26.4223 8.33411 24.6309 8.33411C23.0345 8.33411 27.8237 8.33411 29.4201 8.33411" stroke="#5164BF" stroke-width="1.5" stroke-linecap="round" stroke-linejoin="round"/>
<path d="M35.227 1.18176C33.8226 1.18176 32.4182 1.18176 31.0138 1.18176C30.9311 1.18176 30.8485 1.18176 30.7658 1.18176C30.6864 1.18176 30.9247 1.18176 31.0041 1.18176C31.646 1.18176 32.288 1.18176 32.9299 1.18176C33.7843 1.18176 34.6388 1.18176 35.4932 1.18176C35.7824 1.18176 34.915 1.18176 34.6259 1.18176C34.534 1.18176 34.442 1.18176 34.35 1.18176C34.2999 1.18176 34.2394 1.18176 34.335 1.18176C34.6726 1.18176 35.0102 1.18176 35.3478 1.18176C35.5006 1.18176 35.6534 1.18176 35.8062 1.18176C35.831 1.18176 35.8382 1.18176 35.8099 1.18176C35.6709 1.18176 35.5319 1.18176 35.3929 1.18176C34.8594 1.18176 34.3259 1.18176 33.7924 1.18176C33.0836 1.18176 32.3747 1.18176 31.6659 1.18176C31.5675 1.18176 31.2723 1.18176 31.3707 1.18176C32.081 1.18176 32.7912 1.18176 33.5015 1.18176C34.0777 1.18176 34.654 1.18176 35.2303 1.18176C35.4707 1.18176 36.1921 1.18176 35.9516 1.18176C34.1176 1.18176 32.2837 1.18176 30.4497 1.18176C28.8154 1.18176 33.7183 1.18176 35.3526 1.18176" stroke="#5164BF" stroke-width="1.5" stroke-linecap="round" stroke-linejoin="round"/>
<path d="M1.06274 34.2207C1.06274 34.9537 1.06274 35.6867 1.06274 36.4197C1.06274 36.4629 1.06274 36.506 1.06274 36.5492C1.06274 36.5906 1.06274 36.4662 1.06274 36.4248C1.06274 36.0897 1.06274 35.7547 1.06274 35.4197C1.06274 34.9737 1.06274 34.5277 1.06274 34.0818C1.06274 33.9309 1.06274 34.3835 1.06274 34.5344C1.06274 34.5824 1.06274 34.6304 1.06274 34.6784C1.06274 34.7046 1.06274 34.7362 1.06274 34.6863C1.06274 34.5101 1.06274 34.3339 1.06274 34.1577C1.06274 34.0779 1.06274 33.9982 1.06274 33.9184C1.06274 33.9055 1.06274 33.9017 1.06274 33.9165C1.06274 33.989 1.06274 34.0616 1.06274 34.1341C1.06274 34.4126 1.06274 34.691 1.06274 34.9695C1.06274 35.3394 1.06274 35.7094 1.06274 36.0794C1.06274 36.1307 1.06274 36.2848 1.06274 36.2334C1.06274 35.8627 1.06274 35.492 1.06274 35.1213C1.06274 34.8206 1.06274 34.5198 1.06274 34.219C1.06274 34.0935 1.06274 33.717 1.06274 33.8425C1.06274 34.7997 1.06274 35.7569 1.06274 36.7141C1.06274 37.5671 1.06274 35.0081 1.06274 34.1551" stroke="#5164BF" stroke-width="1.5" stroke-linecap="round" stroke-linejoin="round"/>
<path d="M24.3313 11.9092C24.3313 18.7544 24.3313 25.5996 24.3313 32.4448C24.3313 32.8477 24.3313 33.2505 24.3313 33.6534C24.3313 34.0405 24.3313 32.879 24.3313 32.4919C24.3313 29.3631 24.3313 26.2344 24.3313 23.1057C24.3313 18.941 24.3313 14.7763 24.3313 10.6117C24.3313 9.20251 24.3313 13.43 24.3313 14.8391C24.3313 15.2873 24.3313 15.7355 24.3313 16.1837C24.3313 16.4282 24.3313 16.7232 24.3313 16.257C24.3313 14.6115 24.3313 12.9661 24.3313 11.3206C24.3313 10.5759 24.3313 9.83122 24.3313 9.08654C24.3313 8.96551 24.3313 8.93031 24.3313 9.06822C24.3313 9.74577 24.3313 10.4233 24.3313 11.1009C24.3313 13.7012 24.3313 16.3015 24.3313 18.9018C24.3313 22.3566 24.3313 25.8115 24.3313 29.2664C24.3313 29.746 24.3313 31.1848 24.3313 30.7052C24.3313 27.2433 24.3313 23.7815 24.3313 20.3196C24.3313 17.5109 24.3313 14.7022 24.3313 11.8935C24.3313 10.7215 24.3313 7.20563 24.3313 8.3776C24.3313 17.3165 24.3313 26.2553 24.3313 35.1942C24.3313 43.1599 24.3313 19.2628 24.3313 11.2971" stroke="#5164BF" stroke-width="1.5" stroke-linecap="round" stroke-linejoin="round"/>
</svg>
