<svg width="372" height="71" viewBox="0 0 372 71" fill="none" xmlns="http://www.w3.org/2000/svg">
<rect width="372" height="70.9023" rx="10" transform="matrix(-1 0 0 1 372 0)" fill="white"/>
<path d="M256.162 38.6456C255.988 38.4369 255.853 38.2 255.757 37.9348C254.61 39.1348 252.799 39.7348 250.325 39.7348C249.003 39.7261 247.907 39.5696 247.038 39.2652C246.173 38.9565 245.544 38.4717 245.153 37.8109C245.027 37.5978 244.929 37.3783 244.86 37.1522C244.794 36.9261 244.753 36.7 244.736 36.4739C244.727 36.3609 244.723 36.25 244.723 36.1413C244.723 36.0326 244.729 35.8978 244.742 35.7369C244.755 35.5717 244.788 35.3913 244.84 35.1956C244.949 34.7826 245.053 34.4565 245.153 34.2174C245.257 33.9739 245.32 33.8369 245.342 33.8065L246.47 34.4261C246.47 34.4304 246.451 34.4739 246.412 34.5565C246.373 34.6391 246.329 34.7478 246.281 34.8826C246.233 35.0174 246.186 35.1739 246.138 35.3522C246.094 35.5304 246.068 35.7174 246.06 35.913C246.055 35.9652 246.053 36.0196 246.053 36.0761C246.053 36.2196 246.068 36.3804 246.099 36.5587C246.129 36.7326 246.199 36.9109 246.307 37.0935C246.568 37.5413 247.033 37.8761 247.703 38.0978C248.377 38.3196 249.251 38.4326 250.325 38.4369C251.286 38.4369 252.103 38.3543 252.777 38.1891C253.451 38.0196 254.012 37.7522 254.46 37.3869C254.66 37.2304 254.831 37.0587 254.975 36.8717C255.118 36.6848 255.24 36.4913 255.34 36.2913C255.444 36.0913 255.531 35.8891 255.601 35.6848C255.675 35.4804 255.74 35.2804 255.797 35.0848L257.036 35.4239C257.014 35.5022 256.988 35.6 256.957 35.7174C256.931 35.8304 256.907 35.9478 256.886 36.0696C256.864 36.1869 256.847 36.3022 256.833 36.4152C256.82 36.5109 256.814 36.5935 256.814 36.663V36.7152C256.823 36.9022 256.851 37.0978 256.899 37.3022C256.947 37.5065 257.038 37.6891 257.173 37.85C257.477 38.2369 257.983 38.4326 258.692 38.4369H258.855V39.7152H258.673C257.542 39.7022 256.705 39.3456 256.162 38.6456ZM250.592 33.3043L249.536 34.3609L248.466 33.2978L249.523 32.2348L250.592 33.3043ZM253.266 33.3109L252.21 34.3739L251.14 33.3043L252.197 32.2478L253.266 33.3109ZM258.599 38.4369H260.014C260.593 38.4369 261.171 38.3826 261.749 38.2739C262.327 38.1609 262.897 38.013 263.458 37.8304C264.019 37.6478 264.566 37.4391 265.101 37.2043C265.636 36.9696 266.151 36.7283 266.647 36.4804C266.347 36.3761 266.06 36.263 265.786 36.1413C265.512 36.0196 265.243 35.8956 264.977 35.7696C264.773 35.6739 264.573 35.5826 264.377 35.4956C264.186 35.4043 263.999 35.3239 263.816 35.2543C263.638 35.1848 263.469 35.1304 263.308 35.0913C263.147 35.0478 262.999 35.0261 262.864 35.0261C262.686 35.0261 262.516 35.0652 262.356 35.1435C262.195 35.2217 262.045 35.3217 261.906 35.4435C261.771 35.5609 261.649 35.6891 261.54 35.8283C261.432 35.963 261.338 36.0913 261.26 36.213C261.182 36.3304 261.121 36.4304 261.077 36.513C261.038 36.5913 261.019 36.6326 261.019 36.6369L259.845 36.1087C259.849 36.1 259.866 36.063 259.897 35.9978C259.932 35.9283 259.979 35.8413 260.04 35.7369C260.106 35.6326 260.182 35.513 260.269 35.3783C260.36 35.2435 260.464 35.1065 260.582 34.9674C260.921 34.5587 261.279 34.2522 261.658 34.0478C262.04 33.8435 262.443 33.7413 262.864 33.7413C263.073 33.7413 263.284 33.7652 263.497 33.813C263.714 33.8609 263.934 33.9261 264.156 34.0087C264.377 34.0869 264.603 34.1783 264.834 34.2826C265.064 34.3869 265.297 34.4935 265.532 34.6022C265.788 34.7239 266.047 34.8435 266.308 34.9609C266.573 35.0783 266.838 35.1848 267.103 35.2804C267.369 35.3717 267.634 35.4456 267.899 35.5022C268.164 35.5587 268.432 35.5869 268.701 35.5869L268.949 36.8261C268.645 36.9522 268.343 37.0891 268.043 37.2369C267.743 37.3804 267.429 37.5326 267.103 37.6935C266.625 37.9326 266.11 38.1717 265.558 38.4109C265.01 38.65 264.434 38.8674 263.829 39.063C263.229 39.2543 262.608 39.4109 261.964 39.5326C261.321 39.6543 260.671 39.7152 260.014 39.7152H258.599V38.4369ZM263.882 31.4717L262.819 32.5348L261.749 31.4652L262.812 30.4022L263.882 31.4717ZM273.156 39.7152C272.677 39.7152 272.269 39.6587 271.929 39.5456C271.595 39.4326 271.31 39.2587 271.075 39.0239C270.932 38.8804 270.821 38.7261 270.742 38.5609C270.669 38.3956 270.612 38.2326 270.573 38.0717C270.538 37.9109 270.519 37.7587 270.514 37.6152C270.51 37.4674 270.508 37.3413 270.508 37.2369C270.508 37.2022 270.508 37.1 270.508 36.9304C270.512 36.7565 270.516 36.5348 270.521 36.2652C270.525 35.9956 270.527 35.6869 270.527 35.3391C270.527 34.9956 270.525 34.6326 270.521 34.25C270.521 33.8761 270.516 33.4869 270.508 33.0826C270.499 32.6783 270.484 32.2869 270.462 31.9087C270.445 31.5304 270.421 31.1826 270.39 30.8652C270.364 30.5435 270.332 30.2804 270.292 30.0761L271.571 29.8413C271.61 30.063 271.642 30.3348 271.669 30.6565C271.699 30.9783 271.723 31.3283 271.74 31.7065C271.762 32.0848 271.777 32.4804 271.786 32.8935C271.799 33.3022 271.806 33.7022 271.806 34.0935V37.3674C271.806 37.5152 271.812 37.6543 271.825 37.7848C271.842 37.9109 271.901 38.0217 272.001 38.1174C272.101 38.2174 272.249 38.2956 272.445 38.3522C272.645 38.4087 272.882 38.4369 273.156 38.4369H273.286V39.7152H273.156ZM273.028 38.4369H273.171C273.428 38.4369 273.658 38.3869 273.863 38.2869C274.067 38.1826 274.247 38.0478 274.404 37.8826C274.565 37.713 274.704 37.5196 274.821 37.3022C274.939 37.0848 275.041 36.8587 275.128 36.6239C275.215 36.3848 275.289 36.1456 275.35 35.9065C275.41 35.6674 275.463 35.4413 275.506 35.2283L276.797 35.5022C276.763 35.6065 276.719 35.7413 276.667 35.9065C276.619 36.0717 276.571 36.25 276.523 36.4413C276.476 36.6283 276.434 36.8217 276.4 37.0217C276.365 37.2174 276.347 37.4 276.347 37.5696C276.347 37.6869 276.358 37.8022 276.38 37.9152C276.402 38.0239 276.439 38.1217 276.491 38.2087C276.543 38.2956 276.615 38.3652 276.706 38.4174C276.797 38.4696 276.913 38.4956 277.052 38.4956C277.273 38.4956 277.471 38.4348 277.645 38.313C277.823 38.1913 277.98 38.0326 278.115 37.8369C278.254 37.6413 278.373 37.4196 278.473 37.1717C278.578 36.9239 278.665 36.6717 278.734 36.4152C278.808 36.1587 278.867 35.9109 278.91 35.6717C278.958 35.4283 278.995 35.2174 279.021 35.0391L280.273 35.2674L280.241 35.4761C280.215 35.6196 280.184 35.7935 280.15 35.9978C280.119 36.1978 280.091 36.413 280.065 36.6435C280.039 36.8696 280.026 37.0717 280.026 37.25C280.026 37.4109 280.036 37.5652 280.058 37.713C280.084 37.8565 280.123 37.9848 280.176 38.0978C280.232 38.2065 280.304 38.2978 280.391 38.3717C280.482 38.4413 280.593 38.4826 280.723 38.4956C280.806 38.5043 280.884 38.5087 280.958 38.5087C281.084 38.5087 281.208 38.4935 281.33 38.463C281.456 38.4283 281.567 38.3609 281.663 38.2609C281.763 38.1609 281.834 38.0348 281.878 37.8826C281.921 37.7304 281.943 37.5587 281.943 37.3674C281.943 37.1196 281.908 36.8522 281.839 36.5652C281.773 36.2783 281.693 35.9978 281.597 35.7239C281.506 35.4456 281.408 35.1891 281.304 34.9543C281.204 34.7152 281.119 34.5261 281.05 34.3869L282.191 33.7869C282.213 33.8304 282.254 33.9152 282.315 34.0413C282.376 34.163 282.445 34.3152 282.523 34.4978C282.602 34.6761 282.682 34.8804 282.765 35.1109C282.847 35.3369 282.923 35.5739 282.993 35.8217C283.067 36.0696 283.126 36.3239 283.169 36.5848C283.217 36.8456 283.241 37.1 283.241 37.3478C283.241 37.7217 283.189 38.0609 283.084 38.3652C282.98 38.6652 282.823 38.9217 282.615 39.1348C282.406 39.3478 282.145 39.5109 281.832 39.6239C281.528 39.7369 281.173 39.7935 280.769 39.7935H280.723C280.558 39.7935 280.391 39.7674 280.221 39.7152C280.056 39.663 279.897 39.5935 279.745 39.5065C279.593 39.4152 279.452 39.3109 279.321 39.1935C279.191 39.0717 279.08 38.9413 278.989 38.8022C278.728 39.1065 278.432 39.3478 278.102 39.5261C277.771 39.7043 277.421 39.7935 277.052 39.7935C276.891 39.7935 276.723 39.7717 276.55 39.7283C276.38 39.6891 276.217 39.6283 276.06 39.5456C275.904 39.463 275.76 39.3609 275.63 39.2391C275.504 39.1174 275.406 38.9761 275.336 38.8152C275.206 38.9543 275.067 39.0804 274.919 39.1935C274.771 39.3022 274.61 39.3956 274.436 39.4739C274.263 39.5522 274.069 39.613 273.856 39.6565C273.647 39.6956 273.417 39.7152 273.165 39.7152H273.028V38.4369ZM287.347 35.4761C287.221 35.4761 287.101 35.5261 286.988 35.6261C286.875 35.7217 286.773 35.8456 286.682 35.9978C286.595 36.15 286.521 36.3217 286.46 36.513C286.399 36.7 286.358 36.8848 286.336 37.0674C286.323 37.1674 286.317 37.2652 286.317 37.3609C286.317 37.4391 286.323 37.5369 286.336 37.6543C286.354 37.7674 286.399 37.8696 286.473 37.9609C286.538 38.0478 286.619 38.1196 286.714 38.1761C286.814 38.2283 286.919 38.2717 287.027 38.3065C287.14 38.3369 287.249 38.3609 287.354 38.3783C287.462 38.3913 287.556 38.4 287.634 38.4043C287.851 38.4174 288.056 38.4239 288.247 38.4239C288.295 38.4239 288.386 38.4239 288.521 38.4239C288.66 38.4196 288.814 38.4109 288.984 38.3978C288.971 38.1196 288.938 37.8565 288.886 37.6087C288.834 37.3609 288.767 37.1304 288.684 36.9174C288.601 36.7043 288.508 36.513 288.404 36.3435C288.304 36.1696 288.199 36.0196 288.09 35.8935C288.047 35.85 287.997 35.8043 287.94 35.7565C287.888 35.7043 287.83 35.6587 287.764 35.6196C287.704 35.5761 287.638 35.5413 287.569 35.5152C287.499 35.4891 287.425 35.4761 287.347 35.4761ZM284.471 43.0348C285.14 42.9 285.74 42.713 286.271 42.4739C286.801 42.2348 287.256 41.9652 287.634 41.6652C288.012 41.3652 288.31 41.0456 288.527 40.7065C288.749 40.3717 288.884 40.0413 288.932 39.7152H288.632C288.527 39.7152 288.38 39.7152 288.188 39.7152C288.001 39.7152 287.788 39.7043 287.549 39.6826C286.606 39.6261 285.908 39.3174 285.456 38.7565C285.256 38.5043 285.13 38.213 285.077 37.8826C285.047 37.7087 285.032 37.5348 285.032 37.3609C285.032 37.1956 285.049 36.9869 285.084 36.7348C285.123 36.4783 285.21 36.1891 285.345 35.8674C285.48 35.5413 285.638 35.2609 285.821 35.0261C286.043 34.7522 286.282 34.5456 286.538 34.4065C286.799 34.263 287.069 34.1913 287.347 34.1913C287.964 34.1913 288.532 34.4696 289.049 35.0261C289.271 35.2696 289.464 35.5522 289.63 35.8739C289.799 36.1913 289.936 36.5326 290.04 36.8978C290.145 37.263 290.217 37.6435 290.256 38.0391C290.273 38.2261 290.282 38.413 290.282 38.6C290.282 38.8087 290.271 39.0174 290.249 39.2261C290.201 39.7043 290.095 40.15 289.93 40.563C289.764 40.9804 289.554 41.3652 289.297 41.7174C289.04 42.0696 288.743 42.3891 288.404 42.6761C288.069 42.963 287.706 43.213 287.314 43.4261C286.927 43.6435 286.519 43.8239 286.088 43.9674C285.658 44.1152 285.219 44.2239 284.771 44.2935L284.471 43.0348Z" fill="black" fill-opacity="0.6"/>
<ellipse cx="21.5" cy="23.1034" rx="21.5" ry="23.1034" transform="matrix(-1 0 0 1 352 13.9695)" fill="#4379E2"/>
<mask id="mask0_2_48" style="mask-type:luminance" maskUnits="userSpaceOnUse" x="309" y="13" width="43" height="48">
<ellipse cx="21.5" cy="23.1034" rx="21.5" ry="23.1034" transform="matrix(-1 0 0 1 352 13.9695)" fill="white"/>
</mask>
<g mask="url(#mask0_2_48)">
</g>
<path d="M174.055 31.4594C176.899 34.0859 178.606 39.5576 180.881 39.9954V61.1226H118.312V9.79115C120.018 9.3534 124.341 22.1355 127.982 21.6102C132.532 20.9536 130.826 37.4845 134.239 36.1713C137.652 34.8581 141.633 41.9652 145.046 40.652C148.459 39.3388 150.4 29.0863 153.578 24.8933C157.56 19.6404 158.129 26.8631 165.523 28.1763C172.918 29.4896 171.353 28.9644 174.055 31.4594Z" fill="url(#paint0_linear_2_48)" fill-opacity="0.3"/>
<path d="M180.881 39.9955C178.606 39.5577 175.632 30.5 169.505 29.4896C161.541 28.1764 160.404 24.8933 158.129 24.2367C150.623 22.0706 151.552 28.7494 150.165 34.0859C148.459 40.6521 143.908 41.3087 143.34 41.3087C139.742 41.3087 138.22 35.3992 134.239 36.1714C129.781 37.0359 132.532 20.2971 127.982 20.9537C124.341 21.479 120.587 9.35346 118.881 9.79121" stroke="#66DC43" stroke-width="2" stroke-linecap="round"/>
<path d="M52.8919 47.1089H55.2711V48.1315H52.8919V50.8289H51.8067V48.1315H49.4276V47.1089H51.8067V44.6202H52.8919V47.1089ZM62.5649 43.9994C62.6205 44.302 62.6605 44.5802 62.6849 44.8341C62.7092 45.0846 62.7266 45.3159 62.7371 45.528C62.7405 45.5872 62.7423 45.6463 62.7423 45.7054C62.7423 45.9211 62.7179 46.1367 62.6692 46.3524C62.624 46.568 62.5405 46.7663 62.4188 46.9472C62.2971 47.128 62.1371 47.2707 61.9388 47.375C61.744 47.4759 61.5092 47.5263 61.2344 47.5263C61.1475 47.5263 61.0553 47.5176 60.9579 47.5002C60.8605 47.4794 60.7614 47.4463 60.6605 47.4011C60.5597 47.3524 60.4605 47.2863 60.3631 47.2028C60.2658 47.1194 60.1736 47.015 60.0866 46.8898C60.0136 47.0289 59.9266 47.1454 59.8258 47.2394C59.7284 47.3333 59.6223 47.408 59.5075 47.4637C59.3927 47.5194 59.271 47.5594 59.1423 47.5837C59.0136 47.608 58.8814 47.6202 58.7458 47.6202C58.6136 47.6202 58.4988 47.6133 58.4014 47.5994C58.304 47.582 58.2014 47.5541 58.0936 47.5159C58.2084 48.2254 58.2762 48.9367 58.2971 49.6498C58.3214 50.3628 58.3336 51.0741 58.3336 51.7837H57.2953C57.3023 51.6376 57.3058 51.488 57.3058 51.335C57.3092 51.182 57.311 51.0359 57.311 50.8967C57.311 49.8846 57.2431 48.9263 57.1075 48.022C56.9718 47.1176 56.7631 46.3037 56.4814 45.5802C56.4014 45.3889 56.3266 45.2237 56.2571 45.0846C56.191 44.9454 56.1179 44.8133 56.0379 44.688L56.9823 44.1298C57.0066 44.1715 57.0344 44.2237 57.0658 44.2863C57.0971 44.3454 57.1301 44.4098 57.1649 44.4794C57.1997 44.5489 57.2344 44.6202 57.2692 44.6933C57.3075 44.7663 57.344 44.8376 57.3788 44.9072L57.624 45.4341C57.7179 45.6498 57.7997 45.8307 57.8692 45.9767C57.9388 46.1228 58.0118 46.2411 58.0884 46.3315C58.1684 46.422 58.2588 46.488 58.3597 46.5298C58.4605 46.568 58.5892 46.5872 58.7458 46.5872C58.9092 46.5872 59.0397 46.535 59.1371 46.4307C59.2379 46.3228 59.3162 46.1941 59.3718 46.0446C59.4275 45.8915 59.464 45.735 59.4814 45.575C59.5023 45.4115 59.5144 45.2724 59.5179 45.1576C59.5179 45.1194 59.5162 45.0533 59.5127 44.9594C59.5092 44.862 59.504 44.7611 59.4971 44.6567C59.4936 44.5524 59.4884 44.4567 59.4814 44.3698C59.4744 44.2794 59.4692 44.2237 59.4658 44.2028L60.4988 44.0776C60.5023 44.1854 60.5092 44.288 60.5197 44.3854C60.5336 44.4794 60.544 44.5715 60.551 44.662C60.5579 44.735 60.5666 44.8307 60.5771 44.9489C60.591 45.0672 60.6084 45.1941 60.6292 45.3298C60.6536 45.4654 60.6814 45.6028 60.7127 45.742C60.7475 45.8776 60.7892 46.0011 60.8379 46.1124C60.8866 46.2237 60.9423 46.3141 61.0049 46.3837C61.071 46.4533 61.1475 46.488 61.2344 46.488C61.3492 46.488 61.4379 46.4533 61.5005 46.3837C61.5666 46.3107 61.6136 46.2237 61.6414 46.1228C61.6727 46.022 61.6918 45.9176 61.6988 45.8098C61.7058 45.6985 61.7092 45.6028 61.7092 45.5228C61.7092 45.3663 61.7023 45.182 61.6884 44.9698C61.6779 44.7541 61.6449 44.495 61.5892 44.1924L62.5649 43.9994ZM64.1757 48.8567C64.1757 48.6133 64.221 48.3854 64.3114 48.1733C64.4053 47.9576 64.5323 47.7698 64.6923 47.6098C64.8523 47.4463 65.0383 47.3176 65.2505 47.2237C65.4662 47.1298 65.6975 47.0828 65.9444 47.0828C66.1879 47.0828 66.4157 47.1298 66.6279 47.2237C66.8436 47.3176 67.0314 47.4463 67.1914 47.6098C67.3549 47.7698 67.4836 47.9576 67.5775 48.1733C67.6714 48.3854 67.7183 48.6133 67.7183 48.8567C67.7183 49.1037 67.6714 49.335 67.5775 49.5507C67.4836 49.7628 67.3549 49.9489 67.1914 50.1089C67.0314 50.2689 66.8436 50.3959 66.6279 50.4898C66.4157 50.5802 66.1879 50.6254 65.9444 50.6254C65.6975 50.6254 65.4662 50.5802 65.2505 50.4898C65.0383 50.3959 64.8523 50.2689 64.6923 50.1089C64.5323 49.9489 64.4053 49.7628 64.3114 49.5507C64.221 49.335 64.1757 49.1037 64.1757 48.8567ZM65.0262 48.8567C65.0262 48.982 65.0505 49.1002 65.0992 49.2115C65.1479 49.3228 65.214 49.4202 65.2975 49.5037C65.381 49.5872 65.4783 49.6533 65.5896 49.702C65.701 49.7507 65.8192 49.775 65.9444 49.775C66.0696 49.775 66.1879 49.7507 66.2992 49.702C66.414 49.6533 66.5131 49.5872 66.5966 49.5037C66.6801 49.4202 66.7462 49.3228 66.7949 49.2115C66.8436 49.1002 66.8679 48.982 66.8679 48.8567C66.8679 48.7315 66.8436 48.6133 66.7949 48.502C66.7462 48.3872 66.6801 48.288 66.5966 48.2046C66.5131 48.1211 66.414 48.055 66.2992 48.0063C66.1879 47.9576 66.0696 47.9333 65.9444 47.9333C65.8192 47.9333 65.701 47.9576 65.5896 48.0063C65.4783 48.055 65.381 48.1211 65.2975 48.2046C65.214 48.288 65.1479 48.3872 65.0992 48.502C65.0505 48.6133 65.0262 48.7315 65.0262 48.8567ZM69.3959 51.0376C69.3959 50.8359 69.4533 50.6741 69.568 50.5524C69.6898 50.4237 69.862 50.3594 70.0846 50.3594C70.3107 50.3594 70.4863 50.4237 70.6115 50.5524C70.7298 50.6741 70.7889 50.8359 70.7889 51.0376C70.7889 51.2254 70.7298 51.3785 70.6115 51.4967C70.4828 51.622 70.3072 51.6846 70.0846 51.6846C69.862 51.6846 69.6898 51.622 69.568 51.4967C69.4533 51.382 69.3959 51.2289 69.3959 51.0376ZM74.7769 44.182C74.8778 44.2828 74.9995 44.4063 75.1421 44.5524C75.2882 44.6985 75.443 44.862 75.6065 45.0428C75.77 45.2237 75.9387 45.4202 76.1126 45.6324C76.2865 45.8411 76.4552 46.0602 76.6187 46.2898C77.3804 47.3611 77.7613 48.295 77.7613 49.0915C77.7613 49.3872 77.7126 49.6794 77.6152 49.968C77.5178 50.2533 77.3839 50.5107 77.2134 50.7402C77.13 50.8515 77.0274 50.9646 76.9056 51.0794C76.7839 51.1907 76.6395 51.2933 76.4726 51.3872C76.3091 51.4776 76.1195 51.5524 75.9039 51.6115C75.6882 51.6672 75.4447 51.695 75.1734 51.695C74.7491 51.695 74.37 51.622 74.0361 51.4759C73.7126 51.3333 73.4447 51.1402 73.2326 50.8967C73.083 50.7263 72.9613 50.5437 72.8674 50.3489C72.7734 50.1507 72.7021 49.9524 72.6534 49.7541C72.6047 49.5559 72.5769 49.3628 72.57 49.175C72.5665 49.1124 72.5647 49.0515 72.5647 48.9924C72.5647 48.8741 72.5717 48.7646 72.5856 48.6637C72.6239 48.3402 72.7108 47.9976 72.8465 47.6359C72.9821 47.2741 73.1595 46.9089 73.3787 46.5402C73.5247 46.2967 73.6795 46.0654 73.843 45.8463C74.0065 45.6237 74.1769 45.422 74.3543 45.2411C74.2395 45.1194 74.1369 45.0167 74.0465 44.9333L74.7769 44.182ZM75.1734 50.6463C75.7091 50.6463 76.1091 50.4672 76.3734 50.1089C76.4987 49.942 76.5856 49.7663 76.6343 49.582C76.6865 49.3941 76.7126 49.2307 76.7126 49.0915C76.7126 48.8098 76.6326 48.4846 76.4726 48.1159C76.3161 47.7437 76.0795 47.3367 75.763 46.895C75.5404 46.5854 75.3091 46.2915 75.0691 46.0133C74.9021 46.1907 74.7387 46.3924 74.5787 46.6185C74.4187 46.8411 74.2726 47.0759 74.1404 47.3228C74.0082 47.5663 73.8952 47.815 73.8013 48.0689C73.7108 48.3194 73.6517 48.5611 73.6239 48.7941C73.6169 48.8498 73.6134 48.9159 73.6134 48.9924C73.6134 49.0202 73.6134 49.0707 73.6134 49.1437C73.6169 49.2133 73.6308 49.3141 73.6552 49.4463C73.683 49.575 73.7247 49.7072 73.7804 49.8428C73.8395 49.975 73.9195 50.095 74.0204 50.2028C74.1526 50.3594 74.3126 50.4724 74.5004 50.542C74.6882 50.6115 74.9126 50.6463 75.1734 50.6463ZM82.4613 44.1194C82.4613 44.8811 82.5344 45.5976 82.6805 46.2689C82.83 46.9402 83.0231 47.5733 83.2596 48.168C83.4996 48.7628 83.7674 49.3211 84.0631 49.8428C84.3622 50.3646 84.6613 50.8567 84.9605 51.3194L84.0996 51.8515C83.6683 51.1976 83.3031 50.5802 83.0039 49.9994C82.7048 49.415 82.4509 48.8428 82.2422 48.2828C82.2074 48.1854 82.1744 48.0967 82.1431 48.0167C82.1152 47.9367 82.0892 47.8585 82.0648 47.782C82.0405 47.7054 82.0161 47.6272 81.9918 47.5472C81.9674 47.4672 81.9431 47.3767 81.9187 47.2759C81.7761 47.728 81.6178 48.1802 81.4439 48.6324C81.2735 49.0846 81.0978 49.5141 80.917 49.9211C80.7396 50.3246 80.5639 50.6933 80.39 51.0272C80.2196 51.3611 80.0648 51.6359 79.9257 51.8515L79.0648 51.3194C79.2248 51.0098 79.3935 50.6863 79.5709 50.3489C79.7483 50.008 79.9222 49.6533 80.0926 49.2846C80.2631 48.9124 80.4265 48.528 80.5831 48.1315C80.7396 47.7315 80.8787 47.3159 81.0005 46.8846C81.1222 46.4533 81.2213 46.008 81.2978 45.5489C81.3744 45.0898 81.4178 44.6133 81.4283 44.1194H82.4613ZM85.9826 44.7924C85.9826 44.2811 86.1443 43.8602 86.4678 43.5298C86.7947 43.1959 87.2156 43.0289 87.7304 43.0289C88.2486 43.0289 88.6678 43.1959 88.9878 43.5298C89.3112 43.8637 89.473 44.2967 89.473 44.8289V45.2463C89.473 45.7611 89.3095 46.182 88.9826 46.5089C88.6591 46.8359 88.2452 46.9994 87.7408 46.9994C87.233 46.9994 86.8121 46.8359 86.4782 46.5089C86.1478 46.182 85.9826 45.7472 85.9826 45.2046V44.7924ZM86.7912 45.2463C86.7912 45.5489 86.8765 45.7994 87.0469 45.9976C87.2208 46.1959 87.4521 46.295 87.7408 46.295C88.0191 46.295 88.2417 46.1994 88.4086 46.008C88.5791 45.8167 88.6643 45.5541 88.6643 45.2202V44.7924C88.6643 44.4898 88.5808 44.2394 88.4139 44.0411C88.2469 43.8394 88.0191 43.7385 87.7304 43.7385C87.4382 43.7385 87.2086 43.8394 87.0417 44.0411C86.8747 44.2394 86.7912 44.4985 86.7912 44.8185V45.2463ZM90.1356 49.5924C90.1356 49.0811 90.2991 48.6602 90.626 48.3298C90.953 47.9994 91.3721 47.8341 91.8834 47.8341C92.3947 47.8341 92.8139 47.9994 93.1408 48.3298C93.4712 48.6567 93.6365 49.0915 93.6365 49.6341V50.0515C93.6365 50.5628 93.473 50.9837 93.146 51.3141C92.8191 51.6446 92.4017 51.8098 91.8939 51.8098C91.386 51.8098 90.9652 51.6463 90.6312 51.3194C90.3008 50.9924 90.1356 50.5576 90.1356 50.015V49.5924ZM90.9443 50.0515C90.9443 50.3576 91.0295 50.6098 91.1999 50.808C91.3739 51.0063 91.6052 51.1054 91.8939 51.1054C92.1756 51.1054 92.3999 51.0098 92.5669 50.8185C92.7373 50.6237 92.8226 50.3594 92.8226 50.0254V49.5924C92.8226 49.2828 92.7373 49.0307 92.5669 48.8359C92.3965 48.6411 92.1686 48.5437 91.8834 48.5437C91.6052 48.5437 91.3791 48.6411 91.2052 48.8359C91.0312 49.0272 90.9443 49.288 90.9443 49.6185V50.0515ZM87.986 51.0376L87.3704 50.6515L91.5391 43.9837L92.1495 44.3698L87.986 51.0376Z" fill="#66DC43"/>
<path d="M40.1747 32.2789C40.1178 32.3682 40.061 32.4676 40.0042 32.5772C39.9515 32.6827 39.9028 32.7983 39.8581 32.9241C39.777 33.1433 39.7019 33.4111 39.6329 33.7276C39.568 34.0401 39.5355 34.4114 39.5355 34.8415C39.5355 35.1094 39.57 35.3508 39.639 35.5659C39.712 35.785 39.8074 35.9778 39.9251 36.1441C40.0468 36.3105 40.1848 36.4546 40.339 36.5763C40.4973 36.6981 40.6596 36.7975 40.826 36.8746C40.9923 36.9557 41.1567 37.0166 41.319 37.0572C41.4854 37.1018 41.6396 37.1282 41.7816 37.1363C41.8344 37.1404 41.8851 37.1424 41.9338 37.1424C42.092 37.1424 42.2686 37.1262 42.4634 37.0937C42.6622 37.0653 42.8712 37.0085 43.0903 36.9233C43.3094 36.8381 43.5184 36.7244 43.7173 36.5824C43.9161 36.4404 44.0906 36.2659 44.2407 36.0589C44.3949 35.856 44.5167 35.6186 44.606 35.3468C44.6993 35.0789 44.746 34.7726 44.746 34.4276C44.746 34.107 44.7399 33.7276 44.7277 33.2894C44.7196 32.8511 44.7074 32.3824 44.6912 31.8833C44.679 31.3841 44.6628 30.8708 44.6425 30.3433C44.6222 29.8117 44.6019 29.2943 44.5816 28.7911C44.5613 28.1986 44.537 27.596 44.5086 26.9833C44.4842 26.3665 44.4558 25.7334 44.4234 25.0841L45.6164 25.0355C45.6489 25.6888 45.6773 26.3259 45.7016 26.9468C45.73 27.5636 45.7544 28.1702 45.7747 28.7668C45.7949 29.274 45.8152 29.7934 45.8355 30.325C45.8558 30.8566 45.872 31.374 45.8842 31.8772C45.9005 32.3763 45.9126 32.847 45.9207 33.2894C45.9329 33.7276 45.939 34.107 45.939 34.4276C45.939 34.9389 45.8741 35.3914 45.7442 35.785C45.6144 36.1827 45.4399 36.5276 45.2207 36.8198C45.0057 37.116 44.7561 37.3636 44.472 37.5624C44.192 37.7612 43.8978 37.9195 43.5894 38.0372C43.281 38.1589 42.9706 38.2421 42.6581 38.2868C42.4309 38.3192 42.2118 38.3355 42.0007 38.3355C41.9277 38.3355 41.8547 38.3334 41.7816 38.3294C41.5341 38.3172 41.2764 38.2786 41.0086 38.2137C40.7448 38.1488 40.4851 38.0555 40.2294 37.9337C39.9738 37.812 39.7303 37.6578 39.499 37.4711C39.2718 37.2885 39.0709 37.0694 38.8964 36.8137C38.7219 36.5581 38.586 36.2659 38.4886 35.9372C38.3912 35.6247 38.3425 35.2757 38.3425 34.8902V34.8415C38.3465 34.314 38.3871 33.8615 38.4642 33.4841C38.5413 33.1068 38.6265 32.7902 38.7199 32.5346C38.8254 32.2383 38.9471 31.9908 39.0851 31.792L40.1747 32.2789ZM49.8468 33.1494H50.5529C50.7883 33.1494 51.0054 33.1453 51.2042 33.1372C51.4031 33.125 51.5836 33.0946 51.746 33.0459C51.9083 32.9972 52.0503 32.9262 52.172 32.8328C52.2938 32.7355 52.3952 32.6015 52.4764 32.4311C52.517 32.3459 52.5474 32.2383 52.5677 32.1085C52.5799 32.0233 52.586 31.932 52.586 31.8346C52.586 31.7818 52.5819 31.7027 52.5738 31.5972C52.5657 31.4876 52.5393 31.3395 52.4947 31.1528C52.45 30.9621 52.3851 30.7633 52.2999 30.5563L51.7703 29.2537L52.8538 28.7181C52.8538 28.7221 52.872 28.7647 52.9086 28.8459C52.9451 28.923 52.9918 29.0285 53.0486 29.1624C53.1094 29.2963 53.1744 29.4526 53.2434 29.6311C53.3123 29.8056 53.3773 29.9923 53.4381 30.1911C53.6207 30.7795 53.7263 31.2989 53.7547 31.7494C53.7587 31.8143 53.7607 31.8792 53.7607 31.9441C53.7607 32.3134 53.6999 32.6381 53.5781 32.9181C53.4564 33.194 53.3063 33.4233 53.1277 33.6059C52.9532 33.7885 52.7503 33.9346 52.519 34.0441C52.2877 34.1537 52.028 34.2308 51.7399 34.2755C51.4558 34.3201 51.1474 34.3424 50.8147 34.3424H49.8468V33.1494ZM56.7799 30.3859C56.8367 30.5766 56.8935 30.7653 56.9503 30.952C57.0071 31.1346 57.0578 31.3192 57.1025 31.5059C57.1512 31.7007 57.1999 31.8975 57.2486 32.0963C57.3013 32.2911 57.348 32.4859 57.3886 32.6807C57.4332 32.8714 57.4697 33.0601 57.4981 33.2468C57.5265 33.4334 57.5407 33.616 57.5407 33.7946C57.5407 34.1476 57.488 34.4885 57.3825 34.8172C57.281 35.1499 57.137 35.4705 56.9503 35.7789C56.7677 36.0873 56.5486 36.3815 56.2929 36.6615C56.0413 36.9415 55.7654 37.2053 55.4651 37.4528C55.1689 37.7004 54.8544 37.9276 54.5216 38.1346C54.1929 38.3456 53.8581 38.5343 53.5173 38.7007L52.9877 37.6294C53.4138 37.4183 53.8277 37.1728 54.2294 36.8928C54.6312 36.6169 54.9883 36.3146 55.3007 35.9859C55.6173 35.6572 55.8709 35.3082 56.0616 34.9389C56.2523 34.5697 56.3477 34.1882 56.3477 33.7946C56.3477 33.6444 56.3335 33.4862 56.3051 33.3198C56.2807 33.1534 56.2483 32.983 56.2077 32.8085C56.1671 32.634 56.1225 32.4595 56.0738 32.285C56.0251 32.1105 55.9784 31.9401 55.9338 31.7737C55.8364 31.4328 55.7329 31.092 55.6234 30.7511L56.7799 30.3859ZM49.8407 34.3424C49.3944 34.3424 49.0129 34.2897 48.6964 34.1841C48.3839 34.0786 48.1181 33.9163 47.899 33.6972C47.7651 33.5633 47.6616 33.4192 47.5886 33.265C47.5196 33.1108 47.4668 32.9586 47.4303 32.8085C47.3978 32.6583 47.3796 32.5163 47.3755 32.3824C47.3715 32.2444 47.3694 32.1268 47.3694 32.0294C47.3694 31.9969 47.3694 31.9015 47.3694 31.7433C47.3735 31.581 47.3776 31.374 47.3816 31.1224C47.3857 30.8708 47.3877 30.5827 47.3877 30.2581C47.3877 29.9375 47.3857 29.5986 47.3816 29.2415C47.3816 28.8926 47.3776 28.5294 47.3694 28.152C47.3613 27.7746 47.3471 27.4094 47.3268 27.0563C47.3106 26.7033 47.2883 26.3786 47.2599 26.0824C47.2355 25.7821 47.2051 25.5366 47.1686 25.3459L48.3616 25.1268C48.3981 25.3337 48.4286 25.5873 48.4529 25.8876C48.4813 26.1879 48.5036 26.5146 48.5199 26.8676C48.5402 27.2207 48.5544 27.5899 48.5625 27.9755C48.5747 28.3569 48.5807 28.7302 48.5807 29.0955V32.1511C48.5807 32.2891 48.5868 32.4189 48.599 32.5407C48.6152 32.6583 48.67 32.7618 48.7634 32.8511C48.8567 32.9444 48.9947 33.0175 49.1773 33.0702C49.3639 33.123 49.5851 33.1494 49.8407 33.1494H49.9625V34.3424H49.8407ZM50.1207 36.3328L49.1347 37.3189L48.1364 36.3268L49.1225 35.3346L50.1207 36.3328ZM52.6164 36.3389L51.6303 37.3311L50.632 36.3328L51.6181 35.3468L52.6164 36.3389ZM64.3778 34.5007C64.3778 33.7094 64.3636 32.9241 64.3352 32.145C64.3068 31.3618 64.2439 30.6111 64.1465 29.8928C64.0491 29.1746 63.9091 28.503 63.7265 27.8781C63.5479 27.2531 63.3065 26.7012 63.0021 26.2224L64.0126 25.5772C64.3453 26.1088 64.6213 26.7236 64.8404 27.4215C65.0636 28.1155 65.234 28.9088 65.3517 29.8015C65.4004 30.183 65.439 30.5766 65.4674 30.9824C65.4998 31.3882 65.5242 31.794 65.5404 32.1998C65.5607 32.6015 65.5729 32.9972 65.5769 33.3868C65.585 33.7763 65.5891 34.1476 65.5891 34.5007H64.3778ZM67.6014 34.3728C67.4716 34.3728 67.3498 34.3485 67.2362 34.2998C67.1267 34.2511 67.0293 34.1841 66.944 34.0989C66.8588 34.0137 66.7919 33.9163 66.7432 33.8068C66.6945 33.6931 66.6701 33.5714 66.6701 33.4415C66.6701 33.2955 66.6965 33.1656 66.7493 33.052C66.8061 32.9343 66.8811 32.8349 66.9745 32.7537C67.0719 32.6685 67.1814 32.6056 67.3032 32.565C67.429 32.5204 67.5588 32.4981 67.6927 32.4981H67.7232C68.0884 32.4981 68.3745 32.632 68.5814 32.8998C68.7803 33.1514 68.8817 33.472 68.8858 33.8615V33.9589C68.8858 35.0586 68.2101 35.9473 66.8588 36.625L66.5058 35.9859C67.5365 35.4908 68.0519 34.9247 68.0519 34.2876V34.2572C67.9139 34.3343 67.7638 34.3728 67.6014 34.3728ZM72.8734 34.4824C72.8734 33.5815 72.7862 32.7355 72.6117 31.9441C72.4412 31.1528 72.216 30.4082 71.936 29.7102C71.6601 29.0082 71.3476 28.3508 70.9986 27.7381C70.6537 27.1212 70.3067 26.5389 69.9578 25.9911L70.9621 25.3641C71.2137 25.7537 71.445 26.1291 71.656 26.4902C71.867 26.8514 72.0618 27.2065 72.2404 27.5555C72.4189 27.9004 72.5812 28.2392 72.7273 28.572C72.8734 28.9047 73.0073 29.2375 73.1291 29.5702C73.1696 29.6879 73.2062 29.7934 73.2386 29.8868C73.2751 29.9801 73.3076 30.0714 73.336 30.1607C73.3644 30.2499 73.3928 30.3433 73.4212 30.4407C73.4496 30.534 73.478 30.6395 73.5065 30.7572C73.6728 30.2256 73.8575 29.694 74.0604 29.1624C74.2633 28.6268 74.4682 28.1215 74.6751 27.6468C74.8821 27.1679 75.085 26.7317 75.2838 26.3381C75.4867 25.9444 75.6693 25.6198 75.8317 25.3641L76.836 25.9911C76.6493 26.3563 76.4525 26.7398 76.2456 27.1415C76.0386 27.5433 75.8357 27.9612 75.6369 28.3955C75.438 28.8297 75.2473 29.2821 75.0647 29.7528C74.8821 30.2236 74.7198 30.7126 74.5778 31.2198C74.4357 31.727 74.3201 32.2526 74.2308 32.7963C74.1415 33.3401 74.0908 33.9021 74.0786 34.4824H72.8734ZM80.7347 34.4824C80.7347 33.5815 80.6475 32.7355 80.473 31.9441C80.3026 31.1528 80.0773 30.4082 79.7973 29.7102C79.5214 29.0082 79.2089 28.3508 78.86 27.7381C78.515 27.1212 78.1681 26.5389 77.8191 25.9911L78.8234 25.3641C79.075 25.7537 79.3063 26.1291 79.5173 26.4902C79.7284 26.8514 79.9231 27.2065 80.1017 27.5555C80.2802 27.9004 80.4426 28.2392 80.5886 28.572C80.7347 28.9047 80.8686 29.2375 80.9904 29.5702C81.031 29.6879 81.0675 29.7934 81.1 29.8868C81.1365 29.9801 81.1689 30.0714 81.1973 30.1607C81.2257 30.2499 81.2542 30.3433 81.2826 30.4407C81.311 30.534 81.3394 30.6395 81.3678 30.7572C81.5342 30.2256 81.7188 29.694 81.9217 29.1624C82.1246 28.6268 82.3295 28.1215 82.5365 27.6468C82.7434 27.1679 82.9463 26.7317 83.1452 26.3381C83.3481 25.9444 83.5307 25.6198 83.693 25.3641L84.6973 25.9911C84.5107 26.3563 84.3139 26.7398 84.1069 27.1415C83.9 27.5433 83.6971 27.9612 83.4982 28.3955C83.2994 28.8297 83.1086 29.2821 82.926 29.7528C82.7434 30.2236 82.5811 30.7126 82.4391 31.2198C82.2971 31.727 82.1814 32.2526 82.0921 32.7963C82.0029 33.3401 81.9521 33.9021 81.94 34.4824H80.7347ZM88.5961 34.4824C88.5961 33.5815 88.5088 32.7355 88.3343 31.9441C88.1639 31.1528 87.9387 30.4082 87.6587 29.7102C87.3827 29.0082 87.0703 28.3508 86.7213 27.7381C86.3764 27.1212 86.0294 26.5389 85.6804 25.9911L86.6848 25.3641C86.9364 25.7537 87.1677 26.1291 87.3787 26.4902C87.5897 26.8514 87.7845 27.2065 87.963 27.5555C88.1416 27.9004 88.3039 28.2392 88.45 28.572C88.5961 28.9047 88.73 29.2375 88.8517 29.5702C88.8923 29.6879 88.9288 29.7934 88.9613 29.8868C88.9978 29.9801 89.0303 30.0714 89.0587 30.1607C89.0871 30.2499 89.1155 30.3433 89.1439 30.4407C89.1723 30.534 89.2007 30.6395 89.2291 30.7572C89.3955 30.2256 89.5801 29.694 89.783 29.1624C89.9859 28.6268 90.1908 28.1215 90.3978 27.6468C90.6048 27.1679 90.8077 26.7317 91.0065 26.3381C91.2094 25.9444 91.392 25.6198 91.5543 25.3641L92.5587 25.9911C92.372 26.3563 92.1752 26.7398 91.9682 27.1415C91.7613 27.5433 91.5584 27.9612 91.3595 28.3955C91.1607 28.8297 90.97 29.2821 90.7874 29.7528C90.6048 30.2236 90.4424 30.7126 90.3004 31.2198C90.1584 31.727 90.0427 32.2526 89.9535 32.7963C89.8642 33.3401 89.8135 33.9021 89.8013 34.4824H88.5961Z" fill="#1C3169"/>
<defs>
<linearGradient id="paint0_linear_2_48" x1="134.807" y1="12.4176" x2="176.237" y2="68.0454" gradientUnits="userSpaceOnUse">
<stop stop-color="#66DC43"/>
<stop offset="1" stop-color="#66DC43" stop-opacity="0"/>
</linearGradient>
</defs>
</svg>
