<svg width="372" height="67" viewBox="0 0 372 67" fill="none" xmlns="http://www.w3.org/2000/svg">
<rect width="372" height="65.9817" rx="10" transform="matrix(-1 0 0 1 372 0.22937)" fill="white"/>
<circle cx="21.5" cy="21.5" r="21.5" transform="matrix(-1 0 0 1 351 13)" fill="#00BFD9"/>
<mask id="mask0_2_48" style="mask-type:luminance" maskUnits="userSpaceOnUse" x="308" y="13" width="43" height="43">
<circle cx="21.5" cy="21.5" r="21.5" transform="matrix(-1 0 0 1 351 13)" fill="white"/>
</mask>
<g mask="url(#mask0_2_48)">
</g>
<path d="M169.505 14.6014C173.145 9.54635 178.606 9.0485 180.881 9.43146V57.1101H118.312V33.4569C120.018 33.0739 123.773 29.3209 127.413 28.8613C131.963 28.2869 131.963 33.4569 135.376 32.308C138.789 31.1591 136.514 31.8347 139.927 30.6858C143.34 29.5369 150.734 23.1169 154.147 19.6703C157.56 16.2236 159.266 30.0102 165.523 34.0313C171.835 38.0877 164.954 20.9203 169.505 14.6014Z" fill="url(#paint0_linear_2_48)"/>
<path d="M180.881 9.43146C178.606 9.0485 173.145 9.54635 169.505 14.6014C164.954 20.9203 170.384 39.2 165.523 33.4569C159.602 26.4624 160.653 29.509 159.266 24.8403C155.853 13.3514 151.003 21.6968 148.459 24.2658C145.615 27.138 139.927 31.1591 136.514 32.308C133.101 33.4569 131.963 28.2869 127.413 28.8613C123.773 29.3209 120.018 33.0739 118.312 33.4569" stroke="#E62E2E" stroke-width="2" stroke-linecap="round"/>
<path d="M32.283 29.0925C32.2261 29.1818 32.1693 29.2812 32.1125 29.3908C32.0598 29.4963 32.0111 29.6119 31.9664 29.7377C31.8853 29.9569 31.8102 30.2247 31.7412 30.5412C31.6763 30.8537 31.6438 31.225 31.6438 31.6551C31.6438 31.923 31.6783 32.1644 31.7473 32.3795C31.8203 32.5986 31.9157 32.7914 32.0334 32.9577C32.1551 33.1241 32.2931 33.2682 32.4473 33.3899C32.6056 33.5117 32.7679 33.6111 32.9343 33.6882C33.1006 33.7693 33.265 33.8302 33.4273 33.8708C33.5937 33.9154 33.7479 33.9418 33.8899 33.9499C33.9427 33.954 33.9934 33.956 34.0421 33.956C34.2003 33.956 34.3769 33.9398 34.5717 33.9073C34.7705 33.8789 34.9795 33.8221 35.1986 33.7369C35.4177 33.6517 35.6267 33.538 35.8256 33.396C36.0244 33.254 36.1989 33.0795 36.349 32.8725C36.5032 32.6696 36.625 32.4322 36.7143 32.1604C36.8076 31.8925 36.8543 31.5862 36.8543 31.2412C36.8543 30.9206 36.8482 30.5412 36.836 30.103C36.8279 29.6647 36.8157 29.196 36.7995 28.6969C36.7873 28.1977 36.7711 27.6844 36.7508 27.1569C36.7305 26.6253 36.7102 26.1079 36.6899 25.6047C36.6696 25.0122 36.6453 24.4096 36.6169 23.7969C36.5925 23.1801 36.5641 22.547 36.5317 21.8977L37.7247 21.849C37.7572 22.5024 37.7856 23.1395 37.8099 23.7604C37.8383 24.3772 37.8627 24.9838 37.883 25.5804C37.9032 26.0876 37.9235 26.607 37.9438 27.1386C37.9641 27.6702 37.9803 28.1876 37.9925 28.6908C38.0088 29.1899 38.0209 29.6606 38.029 30.103C38.0412 30.5412 38.0473 30.9206 38.0473 31.2412C38.0473 31.7525 37.9824 32.205 37.8525 32.5986C37.7227 32.9963 37.5482 33.3412 37.329 33.6334C37.114 33.9296 36.8644 34.1772 36.5803 34.376C36.3003 34.5748 36.0061 34.7331 35.6977 34.8508C35.3893 34.9725 35.0789 35.0557 34.7664 35.1004C34.5392 35.1328 34.3201 35.149 34.109 35.149C34.036 35.149 33.963 35.147 33.8899 35.143C33.6424 35.1308 33.3847 35.0922 33.1169 35.0273C32.8531 34.9624 32.5934 34.869 32.3377 34.7473C32.0821 34.6256 31.8386 34.4714 31.6073 34.2847C31.3801 34.1021 31.1792 33.883 31.0047 33.6273C30.8302 33.3717 30.6943 33.0795 30.5969 32.7508C30.4995 32.4383 30.4508 32.0893 30.4508 31.7038V31.6551C30.4548 31.1276 30.4954 30.6751 30.5725 30.2977C30.6496 29.9204 30.7348 29.6038 30.8282 29.3482C30.9337 29.0519 31.0554 28.8044 31.1934 28.6056L32.283 29.0925ZM41.9551 29.963H42.6612C42.8966 29.963 43.1137 29.9589 43.3125 29.9508C43.5114 29.9386 43.6919 29.9082 43.8543 29.8595C44.0166 29.8108 44.1586 29.7398 44.2803 29.6464C44.4021 29.549 44.5035 29.4151 44.5847 29.2447C44.6253 29.1595 44.6557 29.0519 44.676 28.9221C44.6882 28.8369 44.6943 28.7456 44.6943 28.6482C44.6943 28.5954 44.6902 28.5163 44.6821 28.4108C44.674 28.3012 44.6476 28.1531 44.603 27.9664C44.5583 27.7757 44.4934 27.5769 44.4082 27.3699L43.8786 26.0673L44.9621 25.5317C44.9621 25.5357 44.9803 25.5783 45.0169 25.6595C45.0534 25.7366 45.1001 25.8421 45.1569 25.976C45.2177 26.1099 45.2827 26.2662 45.3517 26.4447C45.4206 26.6192 45.4856 26.8059 45.5464 27.0047C45.729 27.5931 45.8346 28.1125 45.863 28.563C45.867 28.6279 45.869 28.6928 45.869 28.7577C45.869 29.127 45.8082 29.4517 45.6864 29.7317C45.5647 30.0076 45.4146 30.2369 45.236 30.4195C45.0615 30.6021 44.8586 30.7482 44.6273 30.8577C44.396 30.9673 44.1363 31.0444 43.8482 31.089C43.5641 31.1337 43.2557 31.156 42.923 31.156H41.9551V29.963ZM48.8882 27.1995C48.945 27.3902 49.0018 27.5789 49.0586 27.7656C49.1154 27.9482 49.1661 28.1328 49.2108 28.3195C49.2595 28.5143 49.3082 28.7111 49.3569 28.9099C49.4096 29.1047 49.4563 29.2995 49.4969 29.4943C49.5415 29.685 49.578 29.8737 49.6064 30.0604C49.6348 30.247 49.649 30.4296 49.649 30.6082C49.649 30.9612 49.5963 31.3021 49.4908 31.6308C49.3893 31.9635 49.2453 32.2841 49.0586 32.5925C48.876 32.9009 48.6569 33.1951 48.4012 33.4751C48.1496 33.7551 47.8737 34.0189 47.5734 34.2664C47.2772 34.514 46.9627 34.7412 46.6299 34.9482C46.3012 35.1592 45.9664 35.3479 45.6256 35.5143L45.096 34.443C45.5221 34.2319 45.936 33.9864 46.3377 33.7064C46.7395 33.4305 47.0966 33.1282 47.409 32.7995C47.7256 32.4708 47.9792 32.1218 48.1699 31.7525C48.3606 31.3833 48.456 31.0018 48.456 30.6082C48.456 30.458 48.4418 30.2998 48.4134 30.1334C48.389 29.967 48.3566 29.7966 48.316 29.6221C48.2754 29.4476 48.2308 29.2731 48.1821 29.0986C48.1334 28.9241 48.0867 28.7537 48.0421 28.5873C47.9447 28.2464 47.8412 27.9056 47.7317 27.5647L48.8882 27.1995ZM41.949 31.156C41.5027 31.156 41.1212 31.1033 40.8047 30.9977C40.4922 30.8922 40.2264 30.7299 40.0073 30.5108C39.8734 30.3769 39.7699 30.2328 39.6969 30.0786C39.6279 29.9244 39.5751 29.7722 39.5386 29.6221C39.5061 29.4719 39.4879 29.3299 39.4838 29.196C39.4798 29.058 39.4777 28.9404 39.4777 28.843C39.4777 28.8105 39.4777 28.7151 39.4777 28.5569C39.4818 28.3946 39.4859 28.1876 39.4899 27.936C39.494 27.6844 39.496 27.3963 39.496 27.0717C39.496 26.7511 39.494 26.4122 39.4899 26.0551C39.4899 25.7062 39.4859 25.343 39.4777 24.9656C39.4696 24.5882 39.4554 24.223 39.4351 23.8699C39.4189 23.5169 39.3966 23.1922 39.3682 22.896C39.3438 22.5957 39.3134 22.3502 39.2769 22.1595L40.4699 21.9404C40.5064 22.1473 40.5369 22.4009 40.5612 22.7012C40.5896 23.0015 40.6119 23.3282 40.6282 23.6812C40.6485 24.0343 40.6627 24.4035 40.6708 24.789C40.683 25.1705 40.689 25.5438 40.689 25.909V28.9647C40.689 29.1027 40.6951 29.2325 40.7073 29.3543C40.7235 29.4719 40.7783 29.5754 40.8717 29.6647C40.965 29.758 41.103 29.8311 41.2856 29.8838C41.4722 29.9366 41.6934 29.963 41.949 29.963H42.0708V31.156H41.949ZM42.229 33.1464L41.243 34.1325L40.2447 33.1404L41.2308 32.1482L42.229 33.1464ZM44.7247 33.1525L43.7386 34.1447L42.7403 33.1464L43.7264 32.1604L44.7247 33.1525ZM56.4861 31.3143C56.4861 30.523 56.4719 29.7377 56.4435 28.9586C56.4151 28.1754 56.3522 27.4247 56.2548 26.7064C56.1574 25.9882 56.0174 25.3166 55.8348 24.6917C55.6562 24.0667 55.4148 23.5148 55.1104 23.036L56.1209 22.3908C56.4536 22.9224 56.7296 23.5372 56.9487 24.2351C57.1719 24.929 57.3423 25.7224 57.46 26.6151C57.5087 26.9966 57.5473 27.3902 57.5757 27.796C57.6081 28.2018 57.6325 28.6076 57.6487 29.0134C57.669 29.4151 57.6812 29.8108 57.6852 30.2004C57.6933 30.5899 57.6974 30.9612 57.6974 31.3143H56.4861ZM61.8645 31.296C61.8645 30.3951 61.7773 29.549 61.6028 28.7577C61.4323 27.9664 61.2071 27.2218 60.9271 26.5238C60.6512 25.8218 60.3387 25.1644 59.9897 24.5517C59.6448 23.9348 59.2979 23.3525 58.9489 22.8047L59.9532 22.1777C60.2048 22.5673 60.4361 22.9427 60.6471 23.3038C60.8581 23.665 61.0529 24.0201 61.2315 24.369C61.41 24.714 61.5723 25.0528 61.7184 25.3856C61.8645 25.7183 61.9984 26.0511 62.1202 26.3838C62.1608 26.5015 62.1973 26.607 62.2297 26.7004C62.2663 26.7937 62.2987 26.885 62.3271 26.9743C62.3555 27.0635 62.3839 27.1569 62.4123 27.2543C62.4408 27.3476 62.4692 27.4531 62.4976 27.5708C62.6639 27.0392 62.8486 26.5076 63.0515 25.976C63.2544 25.4404 63.4593 24.9351 63.6663 24.4604C63.8732 23.9815 64.0761 23.5453 64.275 23.1517C64.4779 22.758 64.6605 22.4334 64.8228 22.1777L65.8271 22.8047C65.6405 23.1699 65.4436 23.5534 65.2367 23.9551C65.0297 24.3569 64.8268 24.7748 64.628 25.209C64.4292 25.6433 64.2384 26.0957 64.0558 26.5664C63.8732 27.0372 63.7109 27.5262 63.5689 28.0334C63.4268 28.5406 63.3112 29.0662 63.2219 29.6099C63.1326 30.1537 63.0819 30.7157 63.0697 31.296H61.8645ZM71.1137 26.7977C70.7322 26.7977 70.3589 26.745 69.9937 26.6395C69.6325 26.5299 69.316 26.3493 69.0441 26.0977C69.0928 26.2966 69.1334 26.5279 69.1658 26.7917C69.2024 27.0554 69.2308 27.3375 69.2511 27.6377C69.2754 27.934 69.2937 28.2424 69.3058 28.563C69.318 28.8835 69.3261 29.2001 69.3302 29.5125C69.3383 29.825 69.3424 30.1273 69.3424 30.4195C69.3424 30.7117 69.3424 30.9775 69.3424 31.2169H68.1311C68.1311 30.4256 68.1169 29.6404 68.0885 28.8612C68.06 28.078 67.9972 27.3273 67.8998 26.609C67.8024 25.8908 67.6624 25.2192 67.4798 24.5943C67.3012 23.9693 67.0598 23.4175 66.7554 22.9386L67.7658 22.2995C67.9079 22.5308 68.0418 22.7743 68.1676 23.0299C68.2934 23.2856 68.4029 23.5433 68.4963 23.803C68.5856 23.5595 68.7073 23.3363 68.8615 23.1334C69.0198 22.9305 69.2003 22.756 69.4032 22.6099C69.6061 22.4598 69.8253 22.3421 70.0606 22.2569C70.3 22.1717 70.5476 22.123 70.8032 22.1108H70.9067C71.1543 22.1108 71.418 22.1514 71.698 22.2325C71.978 22.3137 72.2641 22.4517 72.5563 22.6464C72.7389 22.7641 72.889 22.8757 73.0067 22.9812C73.1244 23.0867 73.2238 23.178 73.305 23.2551L72.4345 24.0951L72.3737 24.0343C72.329 23.9937 72.2702 23.943 72.1972 23.8821C72.1282 23.8212 72.0429 23.7563 71.9415 23.6873C71.8441 23.6183 71.7366 23.5554 71.6189 23.4986C71.5012 23.4418 71.3795 23.3951 71.2537 23.3586C71.1603 23.3343 71.0589 23.3221 70.9493 23.3221C70.9087 23.3221 70.8377 23.3262 70.7363 23.3343C70.6389 23.3424 70.509 23.383 70.3467 23.456C70.1885 23.529 70.0505 23.6244 69.9328 23.7421C69.8192 23.8598 69.7319 23.9957 69.6711 24.1499C69.6264 24.2676 69.6041 24.3934 69.6041 24.5273C69.6041 24.5719 69.6061 24.6166 69.6102 24.6612C69.6508 24.8479 69.7177 25.0041 69.8111 25.1299C69.9044 25.2517 70.016 25.349 70.1458 25.4221C70.2798 25.4911 70.4299 25.5377 70.5963 25.5621C70.7221 25.5824 70.854 25.5925 70.9919 25.5925H71.1137C71.2638 25.5885 71.418 25.5783 71.5763 25.5621C71.7345 25.5418 71.8887 25.5134 72.0389 25.4769C72.189 25.4404 72.3331 25.3937 72.4711 25.3369C72.609 25.2801 72.7369 25.209 72.8545 25.1238L73.3902 26.1099C73.0412 26.3656 72.676 26.5441 72.2945 26.6456C71.9131 26.747 71.5195 26.7977 71.1137 26.7977ZM75.2273 31.1864C75.0975 31.1864 74.9757 31.1621 74.8621 31.1134C74.7525 31.0647 74.6551 30.9977 74.5699 30.9125C74.4847 30.8273 74.4177 30.7299 74.3691 30.6204C74.3204 30.5067 74.296 30.385 74.296 30.2551C74.296 30.109 74.3224 29.9792 74.3751 29.8656C74.432 29.7479 74.507 29.6485 74.6004 29.5673C74.6977 29.4821 74.8073 29.4192 74.9291 29.3786C75.0549 29.334 75.1847 29.3117 75.3186 29.3117H75.3491C75.7143 29.3117 76.0004 29.4456 76.2073 29.7134C76.4062 29.965 76.5076 30.2856 76.5117 30.6751V30.7725C76.5117 31.8722 75.836 32.7609 74.4847 33.4386L74.1317 32.7995C75.1624 32.3044 75.6777 31.7383 75.6777 31.1012V31.0708C75.5398 31.1479 75.3896 31.1864 75.2273 31.1864ZM84.961 22.1899C85.026 22.543 85.0726 22.8676 85.101 23.1638C85.1294 23.456 85.1497 23.7259 85.1619 23.9734C85.166 24.0424 85.168 24.1114 85.168 24.1804C85.168 24.4319 85.1396 24.6835 85.0828 24.9351C85.03 25.1867 84.9326 25.418 84.7906 25.629C84.6486 25.8401 84.4619 26.0064 84.2306 26.1282C84.0033 26.2459 83.7294 26.3047 83.4088 26.3047C83.3074 26.3047 83.1999 26.2946 83.0862 26.2743C82.9726 26.2499 82.857 26.2114 82.7393 26.1586C82.6216 26.1018 82.506 26.0247 82.3923 25.9273C82.2787 25.8299 82.1712 25.7082 82.0697 25.5621C81.9845 25.7244 81.8831 25.8604 81.7654 25.9699C81.6517 26.0795 81.528 26.1667 81.3941 26.2317C81.2602 26.2966 81.1181 26.3433 80.968 26.3717C80.8178 26.4001 80.6636 26.4143 80.5054 26.4143C80.3512 26.4143 80.2173 26.4062 80.1036 26.3899C79.99 26.3696 79.8703 26.3372 79.7445 26.2925C79.8784 27.1204 79.9575 27.9502 79.9819 28.7821C80.0103 29.614 80.0245 30.4438 80.0245 31.2717H78.8132C78.8213 31.1012 78.8254 30.9267 78.8254 30.7482C78.8294 30.5696 78.8315 30.3992 78.8315 30.2369C78.8315 29.056 78.7523 27.938 78.5941 26.883C78.4358 25.8279 78.1923 24.8783 77.8636 24.0343C77.7703 23.8111 77.6831 23.6183 77.6019 23.456C77.5248 23.2937 77.4396 23.1395 77.3462 22.9934L78.448 22.3421C78.4764 22.3908 78.5088 22.4517 78.5454 22.5247C78.5819 22.5937 78.6204 22.6688 78.661 22.7499C78.7016 22.8311 78.7422 22.9143 78.7828 22.9995C78.8274 23.0847 78.87 23.1679 78.9106 23.249L79.1967 23.8638C79.3062 24.1154 79.4016 24.3264 79.4828 24.4969C79.5639 24.6673 79.6491 24.8053 79.7384 24.9108C79.8317 25.0163 79.9373 25.0934 80.0549 25.1421C80.1726 25.1867 80.3228 25.209 80.5054 25.209C80.6961 25.209 80.8483 25.1482 80.9619 25.0264C81.0796 24.9006 81.1709 24.7505 81.2358 24.576C81.3007 24.3975 81.3433 24.2148 81.3636 24.0282C81.388 23.8375 81.4022 23.6751 81.4062 23.5412C81.4062 23.4966 81.4042 23.4195 81.4002 23.3099C81.3961 23.1963 81.39 23.0786 81.3819 22.9569C81.3778 22.8351 81.3717 22.7235 81.3636 22.6221C81.3555 22.5166 81.3494 22.4517 81.3454 22.4273L82.5506 22.2812C82.5546 22.407 82.5628 22.5267 82.5749 22.6404C82.5912 22.7499 82.6033 22.8575 82.6115 22.963C82.6196 23.0482 82.6297 23.1598 82.6419 23.2977C82.6581 23.4357 82.6784 23.5838 82.7028 23.7421C82.7312 23.9004 82.7636 24.0606 82.8002 24.223C82.8407 24.3812 82.8894 24.5253 82.9462 24.6551C83.0031 24.785 83.068 24.8905 83.141 24.9717C83.2181 25.0528 83.3074 25.0934 83.4088 25.0934C83.5428 25.0934 83.6462 25.0528 83.7193 24.9717C83.7964 24.8864 83.8512 24.785 83.8836 24.6673C83.9202 24.5496 83.9425 24.4279 83.9506 24.3021C83.9587 24.1722 83.9628 24.0606 83.9628 23.9673C83.9628 23.7847 83.9546 23.5696 83.9384 23.3221C83.9262 23.0705 83.8877 22.7682 83.8228 22.4151L84.961 22.1899ZM86.8403 27.8569C86.8403 27.5728 86.8931 27.307 86.9986 27.0595C87.1082 26.8079 87.2563 26.5888 87.443 26.4021C87.6296 26.2114 87.8467 26.0612 88.0943 25.9517C88.3459 25.8421 88.6157 25.7873 88.9038 25.7873C89.1879 25.7873 89.4537 25.8421 89.7012 25.9517C89.9528 26.0612 90.1719 26.2114 90.3586 26.4021C90.5493 26.5888 90.6995 26.8079 90.809 27.0595C90.9186 27.307 90.9734 27.5728 90.9734 27.8569C90.9734 28.145 90.9186 28.4148 90.809 28.6664C90.6995 28.914 90.5493 29.1311 90.3586 29.3177C90.1719 29.5044 89.9528 29.6525 89.7012 29.7621C89.4537 29.8676 89.1879 29.9204 88.9038 29.9204C88.6157 29.9204 88.3459 29.8676 88.0943 29.7621C87.8467 29.6525 87.6296 29.5044 87.443 29.3177C87.2563 29.1311 87.1082 28.914 86.9986 28.6664C86.8931 28.4148 86.8403 28.145 86.8403 27.8569ZM87.8325 27.8569C87.8325 28.003 87.8609 28.1409 87.9177 28.2708C87.9746 28.4006 88.0517 28.5143 88.149 28.6117C88.2464 28.709 88.3601 28.7862 88.4899 28.843C88.6198 28.8998 88.7577 28.9282 88.9038 28.9282C89.0499 28.9282 89.1879 28.8998 89.3177 28.843C89.4517 28.7862 89.5673 28.709 89.6647 28.6117C89.7621 28.5143 89.8392 28.4006 89.896 28.2708C89.9528 28.1409 89.9812 28.003 89.9812 27.8569C89.9812 27.7108 89.9528 27.5728 89.896 27.443C89.8392 27.309 89.7621 27.1934 89.6647 27.096C89.5673 26.9986 89.4517 26.9215 89.3177 26.8647C89.1879 26.8079 89.0499 26.7795 88.9038 26.7795C88.7577 26.7795 88.6198 26.8079 88.4899 26.8647C88.3601 26.9215 88.2464 26.9986 88.149 27.096C88.0517 27.1934 87.9746 27.309 87.9177 27.443C87.8609 27.5728 87.8325 27.7108 87.8325 27.8569ZM92.8696 27.8569C92.8696 27.5728 92.9224 27.307 93.0279 27.0595C93.1375 26.8079 93.2856 26.5888 93.4723 26.4021C93.6589 26.2114 93.876 26.0612 94.1236 25.9517C94.3752 25.8421 94.645 25.7873 94.9331 25.7873C95.2172 25.7873 95.483 25.8421 95.7305 25.9517C95.9821 26.0612 96.2012 26.2114 96.3879 26.4021C96.5786 26.5888 96.7288 26.8079 96.8383 27.0595C96.9479 27.307 97.0027 27.5728 97.0027 27.8569C97.0027 28.145 96.9479 28.4148 96.8383 28.6664C96.7288 28.914 96.5786 29.1311 96.3879 29.3177C96.2012 29.5044 95.9821 29.6525 95.7305 29.7621C95.483 29.8676 95.2172 29.9204 94.9331 29.9204C94.645 29.9204 94.3752 29.8676 94.1236 29.7621C93.876 29.6525 93.6589 29.5044 93.4723 29.3177C93.2856 29.1311 93.1375 28.914 93.0279 28.6664C92.9224 28.4148 92.8696 28.145 92.8696 27.8569ZM93.8618 27.8569C93.8618 28.003 93.8902 28.1409 93.947 28.2708C94.0038 28.4006 94.0809 28.5143 94.1783 28.6117C94.2757 28.709 94.3894 28.7862 94.5192 28.843C94.6491 28.8998 94.787 28.9282 94.9331 28.9282C95.0792 28.9282 95.2172 28.8998 95.347 28.843C95.4809 28.7862 95.5966 28.709 95.694 28.6117C95.7914 28.5143 95.8685 28.4006 95.9253 28.2708C95.9821 28.1409 96.0105 28.003 96.0105 27.8569C96.0105 27.7108 95.9821 27.5728 95.9253 27.443C95.8685 27.309 95.7914 27.1934 95.694 27.096C95.5966 26.9986 95.4809 26.9215 95.347 26.8647C95.2172 26.8079 95.0792 26.7795 94.9331 26.7795C94.787 26.7795 94.6491 26.8079 94.5192 26.8647C94.3894 26.9215 94.2757 26.9986 94.1783 27.096C94.0809 27.1934 94.0038 27.309 93.947 27.443C93.8902 27.5728 93.8618 27.7108 93.8618 27.8569Z" fill="#1C3169"/>
<path d="M56.0798 46.4504H53.2207V45.5687H56.0798V46.4504ZM59.2397 42.1304C59.3406 42.2313 59.4623 42.3548 59.6049 42.5009C59.751 42.647 59.9058 42.8104 60.0693 42.9913C60.2328 43.1722 60.4015 43.3687 60.5754 43.5809C60.7493 43.7896 60.918 44.0087 61.0815 44.2383C61.8432 45.3096 62.2241 46.2435 62.2241 47.04C62.2241 47.3357 62.1754 47.6278 62.078 47.9165C61.9806 48.2018 61.8467 48.4591 61.6762 48.6887C61.5928 48.8 61.4902 48.9131 61.3684 49.0278C61.2467 49.1391 61.1023 49.2418 60.9354 49.3357C60.7719 49.4261 60.5823 49.5009 60.3667 49.56C60.151 49.6157 59.9075 49.6435 59.6362 49.6435C59.2119 49.6435 58.8328 49.5704 58.4989 49.4244C58.1754 49.2818 57.9075 49.0887 57.6954 48.8452C57.5458 48.6748 57.4241 48.4922 57.3302 48.2974C57.2362 48.0991 57.1649 47.9009 57.1162 47.7026C57.0675 47.5044 57.0397 47.3113 57.0328 47.1235C57.0293 47.0609 57.0275 47 57.0275 46.9409C57.0275 46.8226 57.0345 46.7131 57.0484 46.6122C57.0867 46.2887 57.1736 45.9461 57.3093 45.5844C57.4449 45.2226 57.6223 44.8574 57.8415 44.4887C57.9875 44.2452 58.1423 44.0139 58.3058 43.7948C58.4693 43.5722 58.6397 43.3704 58.8171 43.1896C58.7023 43.0678 58.5997 42.9652 58.5093 42.8818L59.2397 42.1304ZM59.6362 48.5948C60.1719 48.5948 60.5719 48.4157 60.8362 48.0574C60.9615 47.8904 61.0484 47.7148 61.0971 47.5304C61.1493 47.3426 61.1754 47.1791 61.1754 47.04C61.1754 46.7583 61.0954 46.4331 60.9354 46.0644C60.7789 45.6922 60.5423 45.2852 60.2258 44.8435C60.0032 44.5339 59.7719 44.24 59.5319 43.9618C59.3649 44.1391 59.2015 44.3409 59.0415 44.567C58.8815 44.7896 58.7354 45.0244 58.6032 45.2713C58.471 45.5148 58.358 45.7635 58.2641 46.0174C58.1736 46.2678 58.1145 46.5096 58.0867 46.7426C58.0797 46.7983 58.0762 46.8644 58.0762 46.9409C58.0762 46.9687 58.0762 47.0191 58.0762 47.0922C58.0797 47.1618 58.0936 47.2626 58.118 47.3948C58.1458 47.5235 58.1875 47.6557 58.2432 47.7913C58.3023 47.9235 58.3823 48.0435 58.4832 48.1513C58.6154 48.3078 58.7754 48.4209 58.9632 48.4904C59.151 48.56 59.3754 48.5948 59.6362 48.5948ZM63.7259 48.9861C63.7259 48.7844 63.7833 48.6226 63.898 48.5009C64.0198 48.3722 64.1919 48.3078 64.4146 48.3078C64.6406 48.3078 64.8163 48.3722 64.9415 48.5009C65.0598 48.6226 65.1189 48.7844 65.1189 48.9861C65.1189 49.1739 65.0598 49.327 64.9415 49.4452C64.8128 49.5704 64.6372 49.6331 64.4146 49.6331C64.1919 49.6331 64.0198 49.5704 63.898 49.4452C63.7833 49.3304 63.7259 49.1774 63.7259 48.9861ZM69.1486 49.7531C69.1486 48.9809 69.0739 48.2557 68.9243 47.5774C68.7782 46.8991 68.5852 46.2609 68.3452 45.6626C68.1086 45.0609 67.8408 44.4974 67.5417 43.9722C67.246 43.4435 66.9486 42.9444 66.6495 42.4748L67.5104 41.9374C67.726 42.2713 67.9243 42.5931 68.1052 42.9026C68.286 43.2122 68.453 43.5165 68.606 43.8157C68.7591 44.1113 68.8982 44.4018 69.0234 44.687C69.1486 44.9722 69.2634 45.2574 69.3678 45.5426C69.4026 45.6435 69.4339 45.7339 69.4617 45.8139C69.493 45.8939 69.5208 45.9722 69.5452 46.0487C69.5695 46.1252 69.5939 46.2052 69.6182 46.2887C69.6426 46.3687 69.6669 46.4591 69.6913 46.56C69.8339 46.1044 69.9921 45.6487 70.166 45.1931C70.34 44.7339 70.5156 44.3009 70.693 43.8939C70.8704 43.4835 71.0443 43.1096 71.2147 42.7722C71.3886 42.4348 71.5452 42.1565 71.6843 41.9374L72.5452 42.4748C72.3852 42.7878 72.2165 43.1165 72.0391 43.4609C71.8617 43.8052 71.6878 44.1635 71.5173 44.5357C71.3469 44.9078 71.1834 45.2957 71.0269 45.6991C70.8704 46.1026 70.7313 46.5218 70.6095 46.9565C70.4878 47.3913 70.3886 47.8418 70.3121 48.3078C70.2356 48.7739 70.1921 49.2557 70.1817 49.7531H69.1486ZM78.0417 42.0052C78.0417 42.0122 78.0469 42.047 78.0574 42.1096C78.0678 42.1687 78.0782 42.2487 78.0887 42.3496C78.0991 42.447 78.1078 42.5583 78.1148 42.6835C78.1182 42.7704 78.12 42.8591 78.12 42.9496V43.0852C78.1061 43.8887 77.9165 44.5044 77.5513 44.9322V44.927C77.1965 45.3548 76.7148 45.5687 76.1061 45.5687C75.9391 45.5687 75.7878 45.5583 75.6521 45.5374C75.52 45.5131 75.3878 45.4748 75.2556 45.4226L75.2974 45.7096C75.3391 46.0365 75.3721 46.3739 75.3965 46.7218C75.4243 47.0661 75.4452 47.4122 75.4591 47.76C75.4765 48.1044 75.4869 48.4452 75.4904 48.7826C75.4974 49.1165 75.5008 49.4348 75.5008 49.7374H74.4626C74.4626 49.1844 74.4574 48.6348 74.4469 48.0887C74.4365 47.5391 74.4087 47.007 74.3635 46.4922C74.3182 45.9739 74.2504 45.48 74.16 45.0104C74.073 44.5374 73.9513 44.1026 73.7948 43.7061C73.7217 43.5183 73.6435 43.3391 73.56 43.1687C73.4765 42.9983 73.3826 42.8226 73.2782 42.6418L74.1495 42.0887C74.2052 42.1791 74.2556 42.2713 74.3008 42.3652C74.3495 42.4557 74.3965 42.5513 74.4417 42.6522C74.4904 42.7496 74.5391 42.8539 74.5878 42.9652C74.6365 43.0765 74.6904 43.1965 74.7495 43.3252C74.8295 43.5096 74.9078 43.6765 74.9843 43.8261C75.0643 43.9722 75.1548 44.0991 75.2556 44.207C75.36 44.3148 75.4782 44.3983 75.6104 44.4574C75.7461 44.5131 75.9113 44.5409 76.1061 44.5409C76.3948 44.5409 76.6121 44.4522 76.7582 44.2748C76.8243 44.1983 76.8782 44.1096 76.92 44.0087C76.9617 43.9044 76.9948 43.7948 77.0191 43.68C77.0469 43.5652 77.0661 43.447 77.0765 43.3252C77.0869 43.2035 77.0921 43.0852 77.0921 42.9704C77.0921 42.8209 77.0835 42.6765 77.0661 42.5374C77.0521 42.3983 77.0365 42.2835 77.0191 42.1931L78.0417 42.0052ZM79.4688 42.7409C79.4688 42.2296 79.6305 41.8087 79.954 41.4783C80.281 41.1444 80.7018 40.9774 81.2166 40.9774C81.7349 40.9774 82.154 41.1444 82.474 41.4783C82.7975 41.8122 82.9592 42.2452 82.9592 42.7774V43.1948C82.9592 43.7096 82.7957 44.1304 82.4688 44.4574C82.1453 44.7844 81.7314 44.9478 81.2271 44.9478C80.7192 44.9478 80.2984 44.7844 79.9644 44.4574C79.634 44.1304 79.4688 43.6957 79.4688 43.1531V42.7409ZM80.2775 43.1948C80.2775 43.4974 80.3627 43.7478 80.5331 43.9461C80.7071 44.1444 80.9384 44.2435 81.2271 44.2435C81.5053 44.2435 81.7279 44.1478 81.8949 43.9565C82.0653 43.7652 82.1505 43.5026 82.1505 43.1687V42.7409C82.1505 42.4383 82.0671 42.1878 81.9001 41.9896C81.7331 41.7878 81.5053 41.687 81.2166 41.687C80.9244 41.687 80.6949 41.7878 80.5279 41.9896C80.361 42.1878 80.2775 42.447 80.2775 42.767V43.1948ZM83.6218 47.5409C83.6218 47.0296 83.7853 46.6087 84.1123 46.2783C84.4392 45.9478 84.8584 45.7826 85.3697 45.7826C85.881 45.7826 86.3001 45.9478 86.6271 46.2783C86.9575 46.6052 87.1227 47.04 87.1227 47.5826V48C87.1227 48.5113 86.9592 48.9322 86.6323 49.2626C86.3053 49.5931 85.8879 49.7583 85.3801 49.7583C84.8723 49.7583 84.4514 49.5948 84.1175 49.2678C83.7871 48.9409 83.6218 48.5061 83.6218 47.9635V47.5409ZM84.4305 48C84.4305 48.3061 84.5157 48.5583 84.6862 48.7565C84.8601 48.9548 85.0914 49.0539 85.3801 49.0539C85.6618 49.0539 85.8862 48.9583 86.0531 48.767C86.2236 48.5722 86.3088 48.3078 86.3088 47.9739V47.5409C86.3088 47.2313 86.2236 46.9791 86.0531 46.7844C85.8827 46.5896 85.6549 46.4922 85.3697 46.4922C85.0914 46.4922 84.8653 46.5896 84.6914 46.7844C84.5175 46.9757 84.4305 47.2365 84.4305 47.567V48ZM81.4723 48.9861L80.8566 48.6L85.0253 41.9322L85.6357 42.3183L81.4723 48.9861Z" fill="#E62E2E"/>
<path d="M263.969 31.9739C263.99 32.0174 264.029 32.0957 264.086 32.2087C264.147 32.3217 264.214 32.4609 264.288 32.6261C264.362 32.7913 264.44 32.9783 264.523 33.187C264.606 33.3957 264.679 33.6152 264.745 33.8457C264.814 34.0761 264.871 34.3152 264.914 34.563C264.958 34.8065 264.979 35.05 264.979 35.2935C264.975 35.6674 264.929 36.0174 264.842 36.3435C264.76 36.6696 264.629 36.9543 264.451 37.1978C264.277 37.4413 264.051 37.6326 263.773 37.7717C263.495 37.9109 263.158 37.9804 262.762 37.9804C262.64 37.9804 262.51 37.963 262.371 37.9283C262.232 37.8891 262.092 37.8348 261.953 37.7652C261.814 37.6913 261.682 37.6 261.556 37.4913C261.429 37.3826 261.321 37.2587 261.229 37.1196C260.969 37.4283 260.675 37.6457 260.349 37.7717C260.023 37.8978 259.677 37.9696 259.312 37.987C259.26 37.9913 259.212 37.9935 259.169 37.9935C259.073 37.9935 258.975 37.987 258.875 37.9739C258.775 37.9565 258.673 37.9304 258.569 37.8957C258.469 37.8609 258.373 37.8174 258.282 37.7652C258.19 37.713 258.097 37.6543 258.001 37.5891C258.006 37.663 258.008 37.7391 258.008 37.8174C258.008 38.1174 257.982 38.4304 257.929 38.7565C257.882 39.087 257.79 39.4174 257.656 39.7478C257.521 40.0783 257.34 40.3848 257.114 40.6674C256.892 40.9543 256.616 41.2065 256.286 41.4239C255.882 41.6978 255.427 41.9043 254.923 42.0435C254.423 42.1826 253.856 42.2674 253.221 42.2978H252.966C251.814 42.2978 250.871 41.9717 250.136 41.3196C249.806 41.0283 249.532 40.6783 249.314 40.2696C249.101 39.8652 248.96 39.4196 248.89 38.9326C248.851 38.6587 248.832 38.387 248.832 38.1174C248.832 37.9522 248.845 37.7217 248.871 37.4261C248.897 37.1261 248.964 36.7739 249.073 36.3696C249.186 35.9652 249.323 35.5826 249.484 35.2217C249.645 34.8565 249.816 34.5261 249.999 34.2304L251.036 34.9935C250.979 35.0674 250.912 35.1783 250.834 35.3261C250.76 35.4696 250.684 35.6391 250.606 35.8348C250.532 36.0304 250.46 36.2457 250.39 36.4804C250.325 36.7152 250.269 36.9587 250.221 37.2109C250.177 37.463 250.149 37.7196 250.136 37.9804C250.132 38.0543 250.129 38.1261 250.129 38.1957C250.129 38.387 250.142 38.5717 250.169 38.75C250.186 38.863 250.214 38.9957 250.253 39.1478C250.297 39.3043 250.36 39.4652 250.442 39.6304C250.529 39.8 250.638 39.9652 250.769 40.1261C250.903 40.2913 251.071 40.437 251.271 40.563C251.471 40.6935 251.708 40.7978 251.982 40.8761C252.256 40.9587 252.577 41 252.947 41H253.162C255.014 40.9217 256.138 40.2739 256.534 39.0565C256.647 38.7 256.71 38.3413 256.723 37.9804V37.837C256.723 37.5239 256.697 37.2087 256.645 36.8913C256.592 36.5696 256.516 36.2543 256.416 35.9457C256.316 35.637 256.212 35.3543 256.103 35.0978C255.999 34.863 255.908 34.6826 255.829 34.5565C255.756 34.4304 255.719 34.363 255.719 34.3543L256.808 33.65L257.219 34.5957C257.336 34.8696 257.458 35.1348 257.584 35.3913C257.714 35.6435 257.858 35.8674 258.014 36.063C258.175 36.2587 258.356 36.413 258.556 36.5261C258.742 36.6304 258.956 36.6826 259.195 36.6826H259.253C259.479 36.6783 259.664 36.6326 259.808 36.5457C259.951 36.4587 260.064 36.3435 260.147 36.2C260.229 36.0565 260.286 35.8891 260.316 35.6978C260.351 35.5065 260.373 35.3022 260.382 35.0848C260.386 34.9413 260.388 34.7957 260.388 34.6478V33.7543L261.712 33.6239L261.738 34.1848C261.742 34.2935 261.749 34.4326 261.758 34.6022C261.771 34.7674 261.79 34.9457 261.816 35.137C261.842 35.3239 261.879 35.513 261.927 35.7043C261.975 35.8957 262.036 36.0696 262.11 36.2261C262.188 36.3783 262.284 36.5022 262.397 36.5978C262.51 36.6935 262.647 36.7413 262.808 36.7413C262.956 36.7413 263.086 36.7 263.199 36.6174C263.316 36.5304 263.412 36.4152 263.486 36.2717C263.564 36.1283 263.623 35.963 263.662 35.7761C263.688 35.6283 263.701 35.4761 263.701 35.3196V35.2022C263.688 34.9283 263.647 34.663 263.577 34.4065C263.512 34.15 263.436 33.9087 263.349 33.6826C263.262 33.4565 263.171 33.25 263.075 33.063C262.979 32.8761 262.897 32.713 262.827 32.5739L263.969 31.9739ZM269.773 37.55C269.773 38.1196 269.652 38.663 269.408 39.1804C269.165 39.6978 268.841 40.1783 268.436 40.6217C268.036 41.0696 267.578 41.4783 267.06 41.8478C266.543 42.2174 266.01 42.5391 265.462 42.813L264.902 41.6587C265.215 41.4978 265.526 41.3196 265.834 41.1239C266.143 40.9326 266.434 40.7261 266.708 40.5043C266.982 40.2826 267.234 40.0478 267.465 39.8C267.695 39.5565 267.889 39.3 268.045 39.0304C268.206 38.7609 268.326 38.4804 268.404 38.1891C268.46 37.9804 268.489 37.7674 268.489 37.55C268.489 37.463 268.484 37.3826 268.476 37.3087C268.445 37.0609 268.397 36.7957 268.332 36.513C268.271 36.2261 268.204 35.9457 268.13 35.6717C268.056 35.3978 267.982 35.1413 267.908 34.9022C267.834 34.6587 267.771 34.4565 267.719 34.2957L268.945 33.9174C269.11 34.4217 269.271 34.8522 269.428 35.2087C269.584 35.5609 269.745 35.85 269.91 36.0761C270.076 36.2978 270.247 36.4609 270.426 36.5652C270.608 36.6696 270.808 36.7217 271.026 36.7217H271.13V38H271.019C270.958 38 270.88 37.9978 270.784 37.9935C270.689 37.9891 270.582 37.9717 270.465 37.9413C270.352 37.9109 270.234 37.863 270.112 37.7978C269.995 37.7326 269.882 37.6413 269.773 37.5239V37.55ZM270.884 36.7217H271.699C271.96 36.7217 272.232 36.7196 272.515 36.7152C272.797 36.7065 273.067 36.6804 273.323 36.637C273.58 36.5891 273.815 36.5174 274.028 36.4217C274.241 36.3217 274.408 36.1804 274.53 35.9978C274.673 35.7761 274.758 35.537 274.784 35.2804C274.789 35.2239 274.791 35.1674 274.791 35.1109C274.791 34.9065 274.76 34.687 274.699 34.4522C274.652 34.2739 274.532 34.0478 274.341 33.7739C274.154 33.4957 273.921 33.2 273.643 32.887C273.365 32.5696 273.054 32.2457 272.71 31.9152C272.367 31.5848 272.017 31.2761 271.66 30.9891L271.81 29.6522L277.171 27.3565L277.673 28.5435L273.004 30.5065C273.217 30.6891 273.449 30.8935 273.702 31.1196C273.954 31.3457 274.204 31.5957 274.452 31.8696C274.782 32.2348 275.054 32.5848 275.267 32.9196C275.48 33.25 275.645 33.5652 275.762 33.8652C275.88 34.1652 275.958 34.4478 275.997 34.713C276.023 34.887 276.036 35.0522 276.036 35.2087C276.036 35.3 276.028 35.4261 276.01 35.587C275.997 35.7435 275.956 35.9217 275.886 36.1217C275.821 36.3217 275.743 36.5043 275.652 36.6696C275.265 37.3565 274.61 37.7848 273.689 37.9543C273.536 37.9848 273.347 38 273.121 38H270.884V36.7217ZM276.949 26.4761L271.706 28.6935L271.752 27.8587L276.643 25.8174L276.949 26.4761ZM279.943 27.7022C280.13 29.4674 280.241 31.05 280.275 32.45C280.288 33.1717 280.295 33.85 280.295 34.4848C280.295 34.8674 280.288 35.3783 280.275 36.0174C280.267 36.6565 280.232 37.337 280.171 38.0587L278.886 37.987C278.956 37.013 279.001 36.1217 279.023 35.313C279.032 34.9478 279.036 34.5978 279.036 34.263C279.036 33.8587 279.03 33.4761 279.017 33.1152C278.93 31.0065 278.812 29.2674 278.664 27.8978L279.943 27.7022ZM284.402 33.7609C284.463 33.9652 284.524 34.1674 284.585 34.3674C284.646 34.563 284.7 34.7609 284.748 34.9609C284.8 35.1696 284.852 35.3804 284.905 35.5935C284.961 35.8022 285.011 36.0109 285.055 36.2196C285.102 36.4239 285.142 36.6261 285.172 36.8261C285.202 37.0261 285.218 37.2217 285.218 37.413C285.218 37.7913 285.161 38.1565 285.048 38.5087C284.939 38.8652 284.785 39.2087 284.585 39.5391C284.389 39.8696 284.155 40.1848 283.881 40.4848C283.611 40.7848 283.315 41.0674 282.994 41.3326C282.676 41.5978 282.339 41.8413 281.983 42.063C281.631 42.2891 281.272 42.4913 280.907 42.6696L280.339 41.5217C280.796 41.2957 281.239 41.0326 281.67 40.7326C282.1 40.437 282.483 40.113 282.818 39.7609C283.157 39.4087 283.428 39.0348 283.633 38.6391C283.837 38.2435 283.939 37.8348 283.939 37.413C283.939 37.2522 283.924 37.0826 283.894 36.9043C283.868 36.7261 283.833 36.5435 283.789 36.3565C283.746 36.1696 283.698 35.9826 283.646 35.7957C283.594 35.6087 283.544 35.4261 283.496 35.2478C283.392 34.8826 283.281 34.5174 283.163 34.1522L284.402 33.7609ZM284.82 31.087L283.757 32.15L282.687 31.0804L283.75 30.0174L284.82 31.087Z" fill="black" fill-opacity="0.6"/>
<defs>
<linearGradient id="paint0_linear_2_48" x1="134.807" y1="13.9259" x2="167.124" y2="67.0674" gradientUnits="userSpaceOnUse">
<stop stop-color="#E62E2E" stop-opacity="0.3"/>
<stop offset="1" stop-color="#E62E2E" stop-opacity="0"/>
</linearGradient>
</defs>
</svg>
